<?xml version="1.0" encoding="iso-8859-1"?>
<!-- Generator: Adobe Illustrator 19.0.0, SVG Export Plug-In . SVG Version: 6.00 Build 0)  -->
<svg version="1.1" id="Capa_1"  xmlns="http://www.w3.org/2000/svg" xmlns:xlink="http://www.w3.org/1999/xlink" x="0px" y="0px"
	 viewBox="0 0 476.338 476.338" style="enable-background:new 0 0 476.338 476.338;" xml:space="preserve">
<g>
	<g>
		<path d="M267.369,259.438c-16.1-16.1-42.3-16.1-58.4,0c-16.1,16.1-16.1,42.3,0,58.4c16.1,16.1,42.3,16.1,58.4,0
			C283.469,301.738,283.469,275.538,267.369,259.438z M253.269,303.638c-8.3,8.3-21.8,8.3-30.1,0c-8.3-8.3-8.3-21.8,0-30.1
			s21.8-8.3,30.1,0c4,4,6.2,9.4,6.2,15.1C259.469,294.238,257.269,299.738,253.269,303.638z"/>
	</g>
</g>
<g>
	<g>
		<path d="M238.169,164.938c-68.3,0-123.7,55.4-123.7,123.7s55.4,123.7,123.7,123.7c32.8,0,64.3-13,87.5-36.2
			c23.2-23.2,36.3-54.7,36.2-87.5C361.869,220.338,306.469,164.938,238.169,164.938z M330.269,241.138c2,3.9,3.8,7.9,5.3,12
			l-17.2-0.1L330.269,241.138z M269.969,189.938c3.4,1.1,6.7,2.3,9.9,3.7l-10,10L269.969,189.938z M202.369,191.338l-0.2,14.6
			l-10.1-10.2C195.469,194.138,198.869,192.638,202.369,191.338z M143.969,245.538l8.6,8.6l-12-0.2
			C141.569,251.138,142.669,248.238,143.969,245.538z M143.269,330.238c-1.4-3.2-2.6-6.4-3.7-9.7l13.6-0.2L143.269,330.238z
			 M202.369,385.938c-4-1.5-7.9-3.2-11.8-5.2l11.8-11.8V385.938z M270.169,387.238l-0.2-15.7l11.4,11.4
			C277.769,384.638,273.969,386.038,270.169,387.238z M331.069,334.738l-12.7-12.7l18.1-0.2
			C334.869,326.238,333.069,330.538,331.069,334.738z M294.269,302.238c-5.5,0-10,4.6-9.9,10.1c0,2.6,1.1,5.1,2.9,7l32.8,32.8
			c-5.9,7.7-13,14.6-20.9,20.3l-32.5-32.5c-3.9-3.9-10.2-3.9-14.1,0c-1.9,1.9-3,4.5-2.9,7.2l0.6,44.4c-9.3,1.1-18.6,0.9-27.8-0.5
			v-46.2c0-5.5-4.5-10-10-10c-2.7,0-5.2,1.1-7.1,2.9l-31.9,31.9c-7.7-6.1-14.4-13.3-20.1-21.3l31.3-31.2c3.9-3.8,3.9-10.1,0.1-14
			c-1.9-1.9-4.5-3-7.1-2.9h-0.1l-42.2,0.5c-1-9-0.9-18,0.3-26.9l41.3,0.7h0.2c5.5,0,10-4.5,10-10c0-2.7-1.1-5.2-2.9-7.1l-29.8-29.8
			c5.8-7.9,12.6-15,20.4-21l30.2,30.2c3.9,3.9,10.2,3.9,14.1,0c1.8-1.8,2.9-4.4,2.9-7l0.4-43.6c9.1-1.4,18.4-1.6,27.5-0.5l-0.4,42.3
			c-0.1,5.5,4.4,10,9.9,10.1c2.7,0,5.3-1,7.2-2.9l31.3-31.3c8,5.6,15.2,12.4,21.3,20.1l-31.9,31.9c-3.9,3.9-3.9,10.2,0,14.1
			c1.9,1.9,4.4,2.9,7,2.9l46.3,0.3c1.4,9.5,1.5,19.1,0.3,28.6L294.269,302.238z"/>
	</g>
</g>
<g>
	<g>
		<path d="M421.169,456.238h-140.6c30.2-7.6,57.8-23.3,79.8-45.4c67.4-67.4,67.4-176.9,0-244.3c-4.4-4.4-9-8.3-13.7-12.3h10.5
			c16.5-0.1,29.9-13.5,30-30v-27.6c26.4-5.5,43.3-31.4,37.8-57.8c-5.5-26.4-31.4-43.3-57.8-37.8s-43.3,31.4-37.8,57.8
			c4,19,18.8,33.8,37.8,37.8v27.6c-0.1,5.5-4.5,9.9-10,10h-39.7c-0.6,0-1.1,0-1.7,0.1c-64.8-32.5-145.9-21.8-199.9,32.2
			c-67.4,67.4-67.4,177,0,244.4c22,22.1,49.6,37.8,79.8,45.4h-140.5c-5.5,0-10,4.5-10,10s4.5,10,10,10h366c5.5,0,10-4.5,10-10
			S426.669,456.238,421.169,456.238z M348.269,48.938c0-15.9,12.9-28.8,28.8-28.8s28.8,12.9,28.8,28.8c0,15.9-12.9,28.8-28.8,28.8
			C361.069,77.738,348.269,64.838,348.269,48.938z M130.069,396.638c-59.6-59.6-59.5-156.5,0-216.1c59.7-59.6,156.4-59.6,216.1,0
			c59.6,59.6,59.6,156.5,0,216.1C286.569,456.238,189.669,456.238,130.069,396.638z"/>
	</g>
</g>
<g>
	<g>
		<path d="M377.169,25.238c-5.5,0-10,4.5-10,10v15c0,5.5,4.5,10,10,10s10-4.5,10-10v-15
			C387.169,29.738,382.669,25.238,377.169,25.238z"/>
	</g>
</g>
<g>
</g>
<g>
</g>
<g>
</g>
<g>
</g>
<g>
</g>
<g>
</g>
<g>
</g>
<g>
</g>
<g>
</g>
<g>
</g>
<g>
</g>
<g>
</g>
<g>
</g>
<g>
</g>
<g>
</g>
</svg>
