<?xml version="1.0" encoding="iso-8859-1"?>
<!-- Generator: Adobe Illustrator 19.0.0, SVG Export Plug-In . SVG Version: 6.00 Build 0)  -->
<svg version="1.1" id="Capa_1"  xmlns="http://www.w3.org/2000/svg" xmlns:xlink="http://www.w3.org/1999/xlink" x="0px" y="0px"
	 viewBox="0 0 359 359" style="enable-background:new 0 0 359 359;" xml:space="preserve">
<g>
	<g>
		<path d="M302.55,55.8c-16.4-35.6-39.2-55.1-64.1-55.1l-110.6-0.2c-2.2-0.3-4.5-0.5-6.8-0.5c-25,0-47.9,19.7-64.4,55.5
			c-15.4,33.3-23.8,77.3-23.8,124s8.5,90.7,23.8,124c16.5,35.8,39.4,55.5,64.4,55.5c2.3,0,4.5-0.2,6.8-0.5l109.8-0.2
			c25,0,47.9-19.4,64.5-55c15.5-33.2,24-77.2,24-123.8C326.15,132.8,317.75,88.9,302.55,55.8z M124.15,338.8h-0.5
			c-0.6,0-1.2,0.1-1.8,0.2c-0.3,0-0.6,0-0.9,0c-16.4,0-33.2-16-46.1-43.8c-14.2-30.7-22-71.8-22-115.7c0-43.9,7.8-84.9,22-115.7
			c12.8-27.9,29.7-43.8,46.2-43.8s33.4,16,46.2,43.8c14.2,30.7,22,71.8,22,115.7c0,43.9-7.8,84.9-22,115.7
			C155.25,321.3,139.65,337,124.15,338.8z M212.35,288.4c-3.2,2.8-6.9,5.9-9.3,10.3c-2.6,4.7-3.4,9.7-4.2,14.1
			c-0.4,2.3-1,5.8-1.6,6.6c-1.2,1.5-4.7,2.5-8,3.5c-3.7,0.9-7.2,2.3-10.5,4.1c-4.1,2.5-6.9,6.6-9.5,10.3c-0.3,0.5-0.7,1-1,1.4h-5.5
			c8.4-9,16.1-20.7,22.8-35.1c15.4-33.3,23.8-77.3,23.8-124s-8.5-90.7-23.8-124c-6.7-14.5-14.4-26.3-22.9-35.3l18.2,0.1
			c1,0.5,2.1,1.1,3.3,1.7c4.6,2.5,10.4,5.7,13.1,8.9c0.7,0.9,1.2,4.3,1.6,6.6c0.7,4.4,1.6,9.4,4.2,14.1c2.4,4.4,6.1,7.5,9.3,10.3
			c2.3,2,5,4.3,5.7,6c0.5,1.2,0.1,4.6-0.2,7.1c-0.5,4.6-1,9.9,0.5,15.3c1.5,5.1,4.6,9.2,7.3,12.7c1.8,2.4,3.9,5,4.2,6.7
			c0.3,1.3-0.6,4.5-1.3,7.1c-1.2,4.5-2.6,9.7-1.9,15.3c0.7,5.4,3.3,9.9,5.5,13.9c1.5,2.6,3.1,5.4,3.2,7.1c0.1,1.4-1.2,4.5-2.2,7
			c-1.8,4.3-3.9,9.3-3.9,15c0,5.7,2.1,10.6,3.9,15c1,2.5,2.3,5.6,2.2,7c-0.1,1.6-1.8,4.5-3.2,7.1c-2.3,4-4.9,8.5-5.5,13.9
			c-0.7,5.7,0.7,10.8,1.9,15.3c0.7,2.6,1.6,5.8,1.3,7.1c-0.3,1.7-2.4,4.3-4.2,6.7c-2.8,3.5-5.9,7.6-7.3,12.7
			c-1.5,5.5-1,10.7-0.5,15.3c0.3,2.5,0.6,5.9,0.2,7.1C217.35,284.1,214.75,286.4,212.35,288.4z M233.55,312.8
			c-0.4,2.3-1,5.8-1.6,6.6c-1.2,1.5-4.7,2.5-8,3.5c-2.6,0.7-5.1,1.6-7.6,2.6c1-3.1,1.8-6.2,2.2-9.4c0.5-3,1-6,2-7.8
			c0.6-1.2,2.8-3,4.8-4.7c3.9-3.4,8.8-7.5,11.3-13.9c2.2-5.7,1.6-11.4,1.1-16.5c-0.3-3-0.6-6.1-0.1-7.8c0.4-1.4,2.2-3.7,3.9-5.8
			c3-3.9,6.8-8.8,8.1-15.1c1.2-6-0.3-11.4-1.6-16.3c-0.8-2.9-1.6-5.8-1.4-7.6c0.2-1.5,1.7-4.1,3.1-6.5c2.4-4.2,5.4-9.5,5.8-15.8
			c0.4-6.1-1.8-11.3-3.8-15.9c-1.1-2.7-2.3-5.6-2.3-7.2c0-1.6,1.2-4.5,2.3-7.2c1.9-4.6,4.1-9.9,3.8-15.9c-0.4-6.3-3.4-11.6-5.8-15.8
			c-1.3-2.3-2.9-5-3.1-6.5c-0.2-1.7,0.6-4.7,1.4-7.6c1.3-4.8,2.8-10.3,1.6-16.3c-1.3-6.3-5-11.2-8.1-15.1c-1.6-2.1-3.5-4.5-3.9-5.8
			c-0.5-1.8-0.2-4.8,0.1-7.8c0.5-5,1.1-10.8-1.1-16.4c-2.5-6.4-7.4-10.5-11.3-13.9c-1.9-1.6-4.1-3.5-4.8-4.7c-1-1.8-1.5-4.8-2-7.8
			c-0.8-4.5-1.6-9.5-4.4-13.9h1.6c1,0.6,2,1.1,3.1,1.7c4.6,2.5,10.4,5.7,13.1,8.9c0.7,0.9,1.2,4.3,1.6,6.6c0.7,4.4,1.6,9.4,4.2,14.1
			c2.4,4.4,6.1,7.5,9.3,10.3c2.3,2,5,4.3,5.7,5.9c0.5,1.2,0.1,4.6-0.2,7.1c-0.4,4.5-1,9.8,0.5,15.3c1.5,5.1,4.6,9.2,7.3,12.7
			c1.8,2.4,3.9,5,4.2,6.7c0.3,1.3-0.6,4.5-1.3,7.1c-1.2,4.5-2.6,9.7-1.9,15.3c0.7,5.4,3.3,9.9,5.5,13.9c1.5,2.6,3.1,5.4,3.2,7.1
			c0.1,1.4-1.2,4.5-2.2,7c-1.8,4.3-3.9,9.3-3.9,15s2.1,10.6,3.9,15c1,2.5,2.3,5.6,2.2,7c-0.1,1.6-1.8,4.5-3.2,7.1
			c-2.3,4-4.9,8.5-5.5,13.9c-0.7,5.7,0.7,10.8,1.9,15.3c0.7,2.6,1.6,5.8,1.3,7.1c-0.3,1.7-2.4,4.3-4.2,6.7
			c-2.8,3.5-5.9,7.6-7.3,12.7c-1.5,5.5-1,10.7-0.5,15.3c0.3,2.5,0.6,5.9,0.2,7.1c-0.7,1.7-3.3,4-5.7,6c-3.2,2.8-6.9,5.9-9.3,10.3
			C235.15,303.4,234.35,308.4,233.55,312.8z M284.05,294.9c-12.5,26.7-28.7,42.5-44.7,43.5c3.1-1.5,5.8-3.6,8-6.2
			c4.1-4.9,5.1-10.9,6-16.1c0.5-3,1-6,2-7.8c0.6-1.2,2.8-3,4.8-4.7c3.9-3.4,8.8-7.5,11.3-13.9c2.2-5.7,1.6-11.4,1.1-16.5
			c-0.3-3-0.6-6.1-0.1-7.8c0.4-1.4,2.2-3.7,3.9-5.8c3-3.9,6.8-8.8,8.1-15.1c1.2-6-0.3-11.4-1.6-16.3c-0.8-2.9-1.6-5.8-1.4-7.6
			c0.2-1.5,1.7-4.1,3.1-6.5c2.4-4.2,5.4-9.5,5.8-15.8c0.4-6.1-1.8-11.3-3.8-15.9c-1.1-2.7-2.3-5.6-2.3-7.2c0-1.6,1.2-4.5,2.3-7.2
			c1.9-4.6,4.1-9.9,3.8-15.9c-0.4-6.3-3.4-11.6-5.8-15.8c-1.3-2.3-2.9-5-3.1-6.5c-0.2-1.7,0.6-4.7,1.4-7.6
			c1.3-4.8,2.8-10.3,1.6-16.3c-1.3-6.3-5-11.2-8.1-15.1c-1.6-2.1-3.5-4.5-3.9-5.8c-0.5-1.8-0.2-4.8,0.1-7.8c0.5-5,1.1-10.8-1.1-16.5
			c-2.5-6.4-7.4-10.5-11.3-13.9c-1.9-1.6-4.1-3.5-4.8-4.7c-1-1.8-1.5-4.8-2-7.8c-0.5-3.8-1.4-7.5-2.8-11
			c12.4,5.7,24.3,19.9,33.9,40.8c14,30.5,21.7,71.5,21.7,115.4C306.15,223.3,298.35,264.2,284.05,294.9z"/>
	</g>
</g>
<g>
	<g>
		<path d="M121.05,88.8c-26.1,0-42.8,35.6-42.8,90.7s16.8,90.7,42.9,90.7c26.1,0,42.8-35.6,42.8-90.7S147.15,88.8,121.05,88.8z
			 M135.95,232.9c-2,5.2-7.5,17.2-14.8,17.2s-12.9-12-14.9-17.2c-5.2-13.4-8-32.4-8-53.4s2.9-40,8.1-53.4c2-5.2,7.5-17.2,14.8-17.2
			s12.8,12.1,14.8,17.2c5.2,13.4,8.1,32.4,8.1,53.4S141.15,219.5,135.95,232.9z"/>
	</g>
</g>
<g>
</g>
<g>
</g>
<g>
</g>
<g>
</g>
<g>
</g>
<g>
</g>
<g>
</g>
<g>
</g>
<g>
</g>
<g>
</g>
<g>
</g>
<g>
</g>
<g>
</g>
<g>
</g>
<g>
</g>
</svg>
