<?xml version="1.0" encoding="iso-8859-1"?>
<!-- Generator: Adobe Illustrator 19.0.0, SVG Export Plug-In . SVG Version: 6.00 Build 0)  -->
<svg version="1.1" id="Capa_1"  xmlns="http://www.w3.org/2000/svg" xmlns:xlink="http://www.w3.org/1999/xlink" x="0px" y="0px"
	 viewBox="0 0 452 452" style="enable-background:new 0 0 452 452;" xml:space="preserve">
<g>
	<g>
		<path d="M436.2,182.25l-30.7-13.2l-30.4-58.9c-4.4-8.6-13.2-13.9-22.9-13.9h-48.1c-14.1,0-26.1,11.5-26.1,25.7v81.3H26.1
			c-14.3,0.2-25.9,11.8-26.1,26.1v52.7c0,14.2,11.9,25.2,26.1,25.2h18c1.7,28,24.2,48.5,51.7,48.5s50-20.5,51.7-48.5h162
			c1.7,28,24.2,48.5,51.7,48.5s50-20.5,51.7-48.5h13c14.1,0,26.1-11,26.1-25.2v-76.2C451.9,195.55,445.7,186.25,436.2,182.25z
			 M95.8,336.25c-17.6,0-31.8-14.2-31.8-31.8c0-17.6,14.2-31.8,31.8-31.8c17.6,0,31.8,14.2,31.8,31.8
			C127.6,322.05,113.4,336.25,95.8,336.25z M278,287.25H144.8c-6.9-20-26.3-35.1-49-35.1s-42,15.1-49,35.1H26.1
			c-3.1,0-6.1-2.1-6.1-5.2v-52.7c0.2-3.3,2.8-5.9,6.1-6.1H278V287.25z M298,121.95c0-3.2,3-5.7,6.1-5.7h48.1c2.2,0.1,4.1,1.3,5,3.3
			l24.5,47.7H298V121.95z M361.2,336.25c-17.6,0-31.8-14.2-31.8-31.8c0-17.6,14.2-31.8,31.8-31.8s31.8,14.2,31.8,31.8
			C393,322.05,378.8,336.25,361.2,336.25z M425.9,287.25h-15.7c-7-20-26.3-35.1-49-35.1s-42,15.1-49,35.1H298v-100h98.1l32.3,13.6
			c2.1,0.8,3.5,2.8,3.6,5v76.2h0C432,285.15,429,287.25,425.9,287.25z"/>
	</g>
</g>
<g>
</g>
<g>
</g>
<g>
</g>
<g>
</g>
<g>
</g>
<g>
</g>
<g>
</g>
<g>
</g>
<g>
</g>
<g>
</g>
<g>
</g>
<g>
</g>
<g>
</g>
<g>
</g>
<g>
</g>
</svg>
