<?xml version="1.0" encoding="iso-8859-1"?>
<!-- Generator: Adobe Illustrator 19.0.0, SVG Export Plug-In . SVG Version: 6.00 Build 0)  -->
<svg version="1.1" id="Capa_1"  xmlns="http://www.w3.org/2000/svg" xmlns:xlink="http://www.w3.org/1999/xlink" x="0px" y="0px"
	 viewBox="0 0 496.1 496.1" style="enable-background:new 0 0 496.1 496.1;" xml:space="preserve">
<g>
	<g>
		<path d="M480.7,250.947l-30.4-13.1l-30.1-58.6c-4.3-8.5-13.1-13.9-22.7-13.9h-47.8c-14.2,0-25.6,11.5-25.7,25.7v81.4H42.3
			c-14,0-25.3,11.3-25.3,25.3c0,0.1,0,0.1,0,0.2v52.3c-0.1,13.9,11.1,25.1,25,25.2c0.1,0,0.2,0,0.4,0h17.9
			c1.8,28.4,26.3,49.9,54.7,48.1c25.9-1.7,46.5-22.3,48.1-48.1h192c1.8,28.4,26.4,49.9,54.8,48.1c25.8-1.7,46.4-22.3,48.1-48.1h12.9
			c13.8,0.1,25.1-11,25.2-24.8c0-0.1,0-0.3,0-0.4v-75.8C496.1,264.247,490,255.047,480.7,250.947z M111.6,404.047
			c-17.4,0-31.5-14.1-31.5-31.5c0-17.4,14.1-31.5,31.5-31.5c17.4,0,31.5,14.1,31.5,31.5C143.2,389.947,129,404.047,111.6,404.047z
			 M324,355.447H160.4c-7.3-20.8-26.8-34.7-48.8-34.9c-22,0.1-41.5,14.1-48.8,34.9H42.3c-2.8,0.1-5.2-2-5.3-4.8c0-0.1,0-0.3,0-0.4
			v-52.3c-0.1-2.9,2.2-5.4,5.1-5.5c0.1,0,0.1,0,0.2,0H324V355.447z M344,191.147c0.1-3.2,2.6-5.7,5.7-5.7h47.8c2.1,0,4,1.1,4.9,2.9
			l24.4,47.1H344V191.147z M406.5,404.047c-17.4,0-31.5-14.1-31.5-31.5c0-17.4,14.1-31.5,31.5-31.5s31.5,14.1,31.5,31.5
			C438,389.947,423.9,404.047,406.5,404.047z M476,350.247c0.1,2.8-2,5.1-4.8,5.2c-0.1,0-0.3,0-0.4,0h-15.5
			c-9.2-26.9-38.5-41.3-65.4-32.1c-15.1,5.2-26.9,17-32.1,32.1H344v-100h97.1l31.7,13.8c2,0.9,3.3,3,3.2,5.2V350.247z"/>
	</g>
</g>
<g>
	<g>
		<path d="M305,207.447c-5.5,0-10,4.5-10,10v33h-59.8c11.8-3,21.4-11.6,25.6-23h1.6c15.7-0.1,28.5-12.8,28.6-28.5v-14.7
			c-0.1-22.5-18.3-40.7-40.8-40.8h-30.3c-2.3,0-4.5-0.9-6.1-2.5l-33.8-36.3c-5.4-5.8-12.8-9.1-20.7-9.2H153v-3h6c5.5,0,10-4.5,10-10
			s-4.5-10-10-10H70.9c-5.5,0-10,4.5-10,10s4.5,10,10,10H76v3h-5.8c-7.2,0.1-14.1,2.9-19.4,7.9l-40,37.5c-1.5,1.4-2.9,3.1-4.1,4.8
			c-2.5,1.9-4,4.9-4,8c0,0.2,0.1,0.5,0.1,0.7c-0.6,2.4-0.9,4.8-0.9,7.3v37.3c-0.1,15.6,12.5,28.4,28.2,28.5h1.3
			c4.3,11.4,13.8,20,25.6,23H10c-5.5,0-10,4.5-10,10c0,5.5,4.5,10,10,10h295c5.5,0,10-4.5,10-10v-43
			C315,211.947,310.5,207.447,305,207.447z M140,115.447h19.3c2.3,0.1,4.5,1.1,6.1,2.8l23.5,25.2H140V115.447z M140,163.447h77.8
			c0.2,0,0.5,0,0.7,0c0.5,0,0.9,0,1.4,0h30.3c11.4,0.1,20.7,9.4,20.8,20.8v14.7c-0.1,4.7-3.9,8.4-8.6,8.5H262
			c-4.3-19.6-23.7-31.9-43.3-27.6c-13.7,3-24.5,13.8-27.5,27.6H140V163.447z M96,92.447h37v3H96V92.447z M101.3,115.447H120v28H88.4
			L101.3,115.447z M64.5,117.847c1.5-1.5,3.6-2.3,5.7-2.4h9.1l-12.9,28H37.2L64.5,117.847z M30.2,207.447c-4.6-0.1-8.3-3.9-8.2-8.5
			v-35.5h50.7H120v44h-18.9c-4.3-19.6-23.7-31.9-43.3-27.6C44,182.847,33.3,193.647,30.2,207.447z M49.4,215.147
			c0-9,7.3-16.3,16.3-16.3s16.3,7.3,16.3,16.3s-7.3,16.3-16.3,16.3S49.4,224.147,49.4,215.147z M74.3,250.447
			c11.8-3,21.3-11.6,25.6-23h92.5c4.3,11.4,13.8,20,25.6,23H74.3z M210.3,215.147c0-9,7.3-16.3,16.3-16.3s16.3,7.3,16.3,16.3
			s-7.3,16.3-16.3,16.3S210.3,224.147,210.3,215.147z"/>
	</g>
</g>
<g>
</g>
<g>
</g>
<g>
</g>
<g>
</g>
<g>
</g>
<g>
</g>
<g>
</g>
<g>
</g>
<g>
</g>
<g>
</g>
<g>
</g>
<g>
</g>
<g>
</g>
<g>
</g>
<g>
</g>
</svg>
