<?xml version="1.0" encoding="iso-8859-1"?>
<!-- Generator: Adobe Illustrator 19.0.0, SVG Export Plug-In . SVG Version: 6.00 Build 0)  -->
<svg version="1.1" id="Capa_1"  xmlns="http://www.w3.org/2000/svg" xmlns:xlink="http://www.w3.org/1999/xlink" x="0px" y="0px"
	 viewBox="0 0 499.902 499.902" style="enable-background:new 0 0 499.902 499.902;" xml:space="preserve">
<g>
	<g>
		<path d="M484.701,244.551l-30.3-13.1l-30.2-58.6c-4.3-8.6-13.1-14-22.7-14h-47.8c-14.2,0.1-25.7,11.6-25.9,25.8v81.2h-281.4
			c-14.1,0.1-25.5,11.5-25.5,25.6v52.4c0,14.1,11.4,26,25.5,26h17.9c1.7,26,24.1,48.2,51.4,48.2s49.7-22.2,51.4-48.2h192
			c1.7,26,24.1,48.2,51.4,48.2s49.7-22.2,51.4-48.2h12.9c14.1,0,25.1-11.9,25.1-26v-75.8
			C500.001,257.851,494.001,248.651,484.701,244.551z M115.701,397.651c-17.4,0-31.5-14.1-31.5-31.5c0-17.4,14.1-31.5,31.5-31.5
			c17.4,0,31.5,14.1,31.5,31.5C147.201,383.451,133.101,397.651,115.701,397.651z M327.901,349.851h-163.5
			c-6.9-21-26.1-34.9-48.7-34.9c-22.6,0-41.8,13.9-48.8,34.9h-20.5c-3.1,0-5.5-3-5.5-6v-52.4c0-3.1,2.4-5.6,5.5-5.6h281.5V349.851z
			 M347.901,184.651c0.1-3.1,2.7-5.7,5.9-5.8h47.8c2.1,0,4,1.1,4.9,2.9l24.3,47.1h-82.9V184.651z M410.501,397.651
			c-17.4,0-31.5-14.1-31.5-31.5c0-17.4,14.1-31.5,31.5-31.5s31.5,14.1,31.5,31.5C442.001,383.451,427.901,397.651,410.501,397.651z
			 M474.801,349.851h-15.5c-7-21-26.2-34.9-48.8-34.9s-41.8,13.9-48.7,34.9h-13.9v-101h97.3l31.6,13.9c2,1,3.2,3.1,3.1,5.3v75.8h0
			C479.901,346.951,477.901,349.851,474.801,349.851z"/>
	</g>
</g>
<g>
	<g>
		<path d="M311.901,198.851c-5.5,0-10,4.5-10,10v32h-56.9c7.8-4.5,13.9-11.6,17.1-20h1c17-0.2,30.7-13.9,30.8-30.9v-17.3
			c-0.1-13.8-9.4-25.8-22.6-29.4l-44.2-12l-26.3-34.6c-7.1-9.3-18.1-14.7-29.7-14.8h-79c-12.9,0-24.8,6.7-31.6,17.6l-20.4,32.6
			l-22.5,10.4c-10.8,5-17.7,15.9-17.6,27.8v19.7c-0.1,16.8,13.1,30.9,29.9,30.9h4.4c3.3,8.4,9.3,15.5,17.1,20h-34.5
			c-5.5,0-10,4.5-10,10c0,5.5,4.5,10,10,10h295c5.5,0,10-4.5,10-10v-42C321.901,203.351,317.401,198.851,311.901,198.851z
			 M32.901,200.851h-3c-5.8,0-10-5.1-10-10.9v-19.7c-0.1-4.1,2.2-7.8,5.9-9.5l25.4-11.6c1.8-0.8,3.3-2.1,4.3-3.8l22-35.2
			c3.1-5.1,8.7-8.2,14.6-8.2h79c5.4,0.1,10.5,2.6,13.8,6.9l28.3,37.2c1.3,1.8,3.2,3,5.3,3.6l47.5,13c4.6,1.2,7.8,5.4,7.9,10.1v17.3
			c-0.1,5.7-4.6,10.3-10.3,10.4c-3.7-17.4-19.1-29.9-36.9-29.8c-18-0.2-33.6,12.5-37,30.2h-83c-3.5-18-18.7-30-36.9-30
			C51.601,170.851,36.501,182.851,32.901,200.851z M69.801,225.651c-9.7,0-17.6-7.9-17.6-17.6s7.9-17.6,17.6-17.6
			s17.6,7.9,17.6,17.6S79.501,225.651,69.801,225.651z M88.201,240.851c7.8-4.5,13.9-11.6,17.1-20h85.7c3.3,8.4,9.3,15.5,17.1,20
			H88.201z M226.501,225.651c-9.7,0-17.6-7.9-17.6-17.6s7.9-17.6,17.6-17.6s17.6,7.9,17.6,17.6S236.201,225.651,226.501,225.651z"/>
	</g>
</g>
<g>
</g>
<g>
</g>
<g>
</g>
<g>
</g>
<g>
</g>
<g>
</g>
<g>
</g>
<g>
</g>
<g>
</g>
<g>
</g>
<g>
</g>
<g>
</g>
<g>
</g>
<g>
</g>
<g>
</g>
</svg>
