<?xml version="1.0" encoding="iso-8859-1"?>
<!-- Generator: Adobe Illustrator 19.0.0, SVG Export Plug-In . SVG Version: 6.00 Build 0)  -->
<svg version="1.1" id="Capa_1"  xmlns="http://www.w3.org/2000/svg" xmlns:xlink="http://www.w3.org/1999/xlink" x="0px" y="0px"
	 viewBox="0 0 467.851 467.851" style="enable-background:new 0 0 467.851 467.851;" xml:space="preserve">
<g>
	<g>
		<path d="M233.919,42.401c-105.6,0-191.5,85.9-191.5,191.5s85.9,191.5,191.5,191.5s191.5-85.9,191.5-191.5
			S339.519,42.401,233.919,42.401z M273.519,67.001c64.3,15.4,114.1,66.3,128.1,130.9h-112.7c-4.5-6.8-10.2-12.7-16.8-17.5
			L273.519,67.001z M253.519,63.501l-1.3,107.3c-11.8-3.4-24.3-3.5-36.1-0.1l-0.6-107.3
			C228.119,62.001,240.919,62.101,253.519,63.501z M233.919,188.201c25.3,0,45.7,20.5,45.7,45.7s-20.4,45.7-45.7,45.7
			c-25.2,0-45.7-20.5-45.7-45.7C188.219,208.601,208.719,188.201,233.919,188.201z M195.519,66.701l0.7,113.4
			c-6.9,4.9-12.7,10.9-17.3,17.8h-112.7C80.319,132.901,130.619,81.801,195.519,66.701z M62.419,233.901c0-5.4,0.3-10.7,0.8-16h107
			c-2.6,10.5-2.6,21.5,0,32h-107C62.619,244.601,62.419,239.301,62.419,233.901z M233.919,405.401c-82.2,0-151.1-58.2-167.7-135.5
			h112.7c19.8,30.3,60.5,38.9,90.9,19c7.6-5,14.1-11.4,19-19h112.8C385.019,347.201,316.119,405.401,233.919,405.401z
			 M297.619,249.901c2.7-10.5,2.7-21.5,0-32h107c0.5,5.3,0.8,10.6,0.8,16s-0.3,10.7-0.8,16H297.619z"/>
	</g>
</g>
<g>
	<g>
		<path d="M399.319,68.501c-43.8-44-103.3-68.7-165.4-68.5c-129.2,0-233.9,104.7-233.9,233.9c0,62,24.6,121.5,68.5,165.4
			c91.4,91.4,239.5,91.4,330.8,0S490.719,159.801,399.319,68.501z M385.619,384.801c-0.2,0.1-0.3,0.2-0.4,0.4
			c-83.4,83.7-218.9,83.8-302.6,0.4s-83.8-218.9-0.4-302.6c0.1-0.1,0.3-0.3,0.4-0.4c83.4-83.7,218.9-83.8,302.6-0.4
			S469.019,301.101,385.619,384.801z"/>
	</g>
</g>
<g>
</g>
<g>
</g>
<g>
</g>
<g>
</g>
<g>
</g>
<g>
</g>
<g>
</g>
<g>
</g>
<g>
</g>
<g>
</g>
<g>
</g>
<g>
</g>
<g>
</g>
<g>
</g>
<g>
</g>
</svg>
