<?xml version="1.0" encoding="iso-8859-1"?>
<!-- Generator: Adobe Illustrator 19.0.0, SVG Export Plug-In . SVG Version: 6.00 Build 0)  -->
<svg version="1.1" id="Capa_1"  xmlns="http://www.w3.org/2000/svg" xmlns:xlink="http://www.w3.org/1999/xlink" x="0px" y="0px"
	 viewBox="0 0 467.851 467.851" style="enable-background:new 0 0 467.851 467.851;" xml:space="preserve">
<g>
	<g>
		<path d="M233.919,49.601c-101.6,0-184.3,82.7-184.3,184.3s82.7,184.3,184.3,184.3s184.3-82.7,184.3-184.3
			S335.519,49.601,233.919,49.601z M233.919,70.001c78.7,0,146.3,55.7,161.3,132.9h-82.3v-1.6c0-17-14.1-31.4-31.1-31.4h-95.7
			c-17,0-31.2,14.3-31.2,31.4v1.6h-82.3C87.619,125.701,155.219,69.901,233.919,70.001z M291.919,200.801v65.2h0
			c0,6-4.9,10.9-10.9,10.9h-95.2c-6,0-10.9-4.9-10.9-10.9v-65.2c0-6,4.9-10.9,10.9-10.9h95.2
			C287.019,189.901,291.919,194.801,291.919,200.801z M69.619,233.901c0-3.8,0.1-8,0.4-11h84.9v22h-84.9
			C69.719,241.901,69.619,237.701,69.619,233.901z M233.919,397.801c-78.7,0-146.3-55.7-161.3-132.9h82.3v1.6
			c0,17,14.1,31.4,31.1,31.4h95.7c17,0,31.2-14.3,31.2-31.4v-1.6h82.3C380.219,342.101,312.619,397.901,233.919,397.801z
			 M312.919,244.901v-22h84.9c0.3,3,0.4,7.2,0.4,11s-0.1,8-0.4,11H312.919z"/>
	</g>
</g>
<g>
	<g>
		<path d="M399.319,68.501c-43.8-44-103.3-68.7-165.4-68.5c-129.2,0-233.9,104.7-233.9,233.9c0,62,24.6,121.5,68.5,165.4
			c91.4,91.4,239.5,91.4,330.8,0S490.719,159.801,399.319,68.501z M385.619,384.801c-0.2,0.1-0.3,0.2-0.4,0.4
			c-83.4,83.7-218.9,83.8-302.6,0.4s-83.8-218.9-0.4-302.6c0.1-0.1,0.3-0.3,0.4-0.4c83.4-83.7,218.9-83.8,302.6-0.4
			S469.019,301.101,385.619,384.801z"/>
	</g>
</g>
<g>
</g>
<g>
</g>
<g>
</g>
<g>
</g>
<g>
</g>
<g>
</g>
<g>
</g>
<g>
</g>
<g>
</g>
<g>
</g>
<g>
</g>
<g>
</g>
<g>
</g>
<g>
</g>
<g>
</g>
</svg>
