<?xml version="1.0" encoding="iso-8859-1"?>
<!-- Generator: Adobe Illustrator 19.0.0, SVG Export Plug-In . SVG Version: 6.00 Build 0)  -->
<svg version="1.1" id="Capa_1"  xmlns="http://www.w3.org/2000/svg" xmlns:xlink="http://www.w3.org/1999/xlink" x="0px" y="0px"
	 viewBox="0 0 458.088 458.088" style="enable-background:new 0 0 458.088 458.088;" xml:space="preserve">
<g>
	<g>
		<path d="M391,67.069c-42.9-43-101.2-67.2-162-67c-126.5,0-229,102.5-229,229c0,60.7,24.1,119,67.1,161.9
			c89.4,89.4,234.4,89.4,323.9,0S480.4,156.569,391,67.069z M81.6,377.169c71-81.4,194.6-89.8,276-18.8c6.7,5.8,13,12.1,18.8,18.8
			C294.9,458.369,163.1,458.369,81.6,377.169z M390,362.269c-79.2-88.9-215.5-96.7-304.4-17.5c-6.2,5.5-12,11.3-17.5,17.5
			c-28.9-34.8-45.7-78-47.8-123.2h34c5.5,0,10-4.5,10-10s-4.5-10-10-10h-34c2.3-48.5,21.4-94.6,54.1-130.5l23.8,23.8
			c3.9,3.9,10.2,3.9,14.1,0c3.9-3.9,3.9-10.2,0-14.1l-23.8-23.8c35.9-32.7,82-51.9,130.5-54.1v34c0,5.5,4.5,10,10,10s10-4.5,10-10
			v-34c48.5,2.3,94.6,21.4,130.5,54.1l-23.8,23.8c-3.9,3.9-4,10.2-0.1,14.1c3.9,3.9,10.2,4,14.1,0.1c0,0,0,0,0.1-0.1l23.8-23.8
			c32.7,35.9,51.9,82,54.1,130.5h-34c-5.5,0-10,4.5-10,10c0.1,5.5,4.5,10,10.1,10h34C435.7,284.269,418.9,327.469,390,362.269z"/>
	</g>
</g>
<g>
	<g>
		<path d="M262,237.069c-3.3-11.1-12-19.7-23-23v-109.1c0-5.5-4.5-10-10-10s-10,4.5-10,10v109.1c-18.2,5.5-28.5,24.8-23,43
			s24.8,28.5,43,23S267.5,255.269,262,237.069z M229,261.469c-8,0-14.5-6.5-14.5-14.5s6.5-14.4,14.5-14.4s14.5,6.5,14.5,14.5
			C243.5,254.969,237,261.469,229,261.469z"/>
	</g>
</g>
<g>
</g>
<g>
</g>
<g>
</g>
<g>
</g>
<g>
</g>
<g>
</g>
<g>
</g>
<g>
</g>
<g>
</g>
<g>
</g>
<g>
</g>
<g>
</g>
<g>
</g>
<g>
</g>
<g>
</g>
</svg>
