<?xml version="1.0" encoding="iso-8859-1"?>
<!-- Generator: Adobe Illustrator 19.0.0, SVG Export Plug-In . SVG Version: 6.00 Build 0)  -->
<svg version="1.1" id="Capa_1"  xmlns="http://www.w3.org/2000/svg" xmlns:xlink="http://www.w3.org/1999/xlink" x="0px" y="0px"
	 viewBox="0 0 461.137 461.137" style="enable-background:new 0 0 461.137 461.137;" xml:space="preserve">
<g>
	<g>
		<path d="M393.6,67.519c-43.1-43.3-101.8-67.6-163-67.5C103.3,0.019,0,103.319,0,230.619c0,61.2,24.3,119.8,67.5,163
			c90,90,236,90,326.1,0S483.6,157.619,393.6,67.519z M84.6,382.219c17.5-19.2,38.4-34.8,61.8-46.1c78.4-37.7,172.3-18.9,230.1,46.1
			C295.1,460.819,166,460.819,84.6,382.219z M390.3,367.719c-63.9-70.7-166.7-90.8-252.5-49.6c-25.2,12.1-48,29-67,49.5
			c-32.8-38.1-50.9-86.7-50.8-137c0-116.1,94.5-210.6,210.6-210.6s210.6,94.5,210.6,210.6
			C441.2,280.919,423.2,329.619,390.3,367.719z"/>
	</g>
</g>
<g>
	<g>
		<path d="M230.6,51.919c-5.5,0-10,4.5-10,10v60.2c0,5.6,4.5,10,10,10s10-4.5,10-10v-60.2C240.6,56.419,236.1,51.919,230.6,51.919z"
			/>
	</g>
</g>
<g>
	<g>
		<path d="M399.3,220.619h-60.2c-5.6,0-10,4.5-10,10s4.5,10,10,10h60.2c5.5,0,10-4.5,10-10S404.8,220.619,399.3,220.619z"/>
	</g>
</g>
<g>
	<g>
		<path d="M122.1,220.619H61.9c-5.5,0-10,4.5-10,10s4.5,10,10,10h60.2c5.5,0,10-4.5,10-10S127.7,220.619,122.1,220.619z"/>
	</g>
</g>
<g>
	<g>
		<path d="M161.3,147.219c0,0,0,0-0.1-0.1l-43-43c-3.9-3.9-10.2-4-14.1-0.1c-3.9,3.9-4,10.2-0.1,14.1c0,0,0,0,0.1,0.1l43,43
			c3.9,3.9,10.2,4,14.1,0.1C165.1,157.419,165.2,151.119,161.3,147.219z"/>
	</g>
</g>
<g>
	<g>
		<path d="M357.2,104.119c-3.9-3.9-10.2-4-14.1-0.1c0,0,0,0-0.1,0.1l-98.1,98.1c-15.7-7.9-34.9-1.6-42.9,14.1
			c-7.9,15.7-1.6,34.9,14.1,42.9c15.7,7.9,34.9,1.6,42.9-14.1c4.6-9,4.6-19.7,0-28.7l98.1-98.2
			C361,114.319,361.1,108.019,357.2,104.119z M230.6,242.519c-6.6,0-11.9-5.3-11.9-11.9s5.3-11.9,11.9-11.9
			c6.6,0,11.9,5.3,11.9,11.9S237.2,242.519,230.6,242.519z"/>
	</g>
</g>
<g>
</g>
<g>
</g>
<g>
</g>
<g>
</g>
<g>
</g>
<g>
</g>
<g>
</g>
<g>
</g>
<g>
</g>
<g>
</g>
<g>
</g>
<g>
</g>
<g>
</g>
<g>
</g>
<g>
</g>
</svg>
