<?xml version="1.0" encoding="iso-8859-1"?>
<!-- Generator: Adobe Illustrator 19.0.0, SVG Export Plug-In . SVG Version: 6.00 Build 0)  -->
<svg version="1.1" id="Capa_1"  xmlns="http://www.w3.org/2000/svg" xmlns:xlink="http://www.w3.org/1999/xlink" x="0px" y="0px"
	 viewBox="0 0 406.1 406.1" style="enable-background:new 0 0 406.1 406.1;" xml:space="preserve">
<g>
	<g>
		<path d="M203.062,152.7c-27.8,0-50.3,22.5-50.3,50.3s22.5,50.3,50.3,50.3s50.3-22.5,50.3-50.3S230.862,152.7,203.062,152.7z
			 M203.062,233.3c-16.7,0-30.3-13.6-30.3-30.3s13.6-30.3,30.3-30.3c16.7,0,30.3,13.6,30.3,30.3S219.762,233.3,203.062,233.3z"/>
	</g>
</g>
<g>
	<g>
		<path d="M203.062,31.6c-27.8,0-50.3,22.5-50.3,50.3c0,27.8,22.5,50.3,50.3,50.3s50.3-22.5,50.3-50.3
			C253.362,54.2,230.862,31.7,203.062,31.6z M203.062,112.2c-16.7,0-30.3-13.6-30.3-30.3c0-16.7,13.6-30.3,30.3-30.3
			c16.7,0,30.3,13.6,30.3,30.3C233.362,98.7,219.762,112.2,203.062,112.2z"/>
	</g>
</g>
<g>
	<g>
		<path d="M203.062,273.8c-27.8,0-50.3,22.5-50.3,50.3c0,27.8,22.5,50.3,50.3,50.3s50.3-22.5,50.3-50.3
			C253.362,296.3,230.862,273.8,203.062,273.8z M203.062,354.4c-16.7,0-30.3-13.6-30.3-30.3s13.6-30.3,30.3-30.3
			c16.7,0,30.3,13.6,30.3,30.3S219.762,354.4,203.062,354.4z"/>
	</g>
</g>
<g>
	<g>
		<path d="M381.862,268h-77.8v-23.7l84.5-74.1c3.1-2.7,4.2-7,2.7-10.9c-1.5-3.9-5.3-6.4-9.4-6.3h-77.8v-24.3l84.5-74
			c4.2-3.7,4.5-10.1,0.8-14.3c-1.9-2.1-4.6-3.4-7.5-3.4h-78.5c-3-21.2-21.1-36.9-42.6-37h-115.5c-21.4,0.1-39.5,15.8-42.6,37h-78.5
			c-5.6,0.1-10.1,4.6-10,10.2c0,2.8,1.2,5.5,3.3,7.4l84.6,74.1V153h-77.8c-5.5-0.1-9.9,4.3-10,9.7c0,2.9,1.2,5.6,3.3,7.5l84.5,74
			V268h-77.8c-5.6,0.1-10.1,4.7-10,10.4c0,2.8,1.3,5.5,3.3,7.4l84.5,74.1v2.8c0,23.7,19.5,43.4,43.2,43.4h115.6
			c23.7,0,43.2-19.7,43.2-43.4v-2.8l84.5-74.1c4.2-3.8,4.5-10.2,0.8-14.4C387.462,269.3,384.762,268.1,381.862,268z M304.062,57
			h51.2l-51.2,45.1V57z M304.062,173h51.2l-51.2,44.7V173z M102.062,333.2l-51.2-45.2h51.2V333.2z M102.062,217.7l-51.2-44.7h51.2
			V217.7z M102.062,102.1L50.862,57h51.2V102.1z M284.062,362c0,12.7-10.3,23-23,23h-116c-12.7,0-23-10.3-23-23V43
			c0-12.7,10.3-23,23-23h116c12.7,0,23,10.3,23,23V362z M304.062,333.2V288h51.2L304.062,333.2z"/>
	</g>
</g>
<g>
</g>
<g>
</g>
<g>
</g>
<g>
</g>
<g>
</g>
<g>
</g>
<g>
</g>
<g>
</g>
<g>
</g>
<g>
</g>
<g>
</g>
<g>
</g>
<g>
</g>
<g>
</g>
<g>
</g>
</svg>
