<?xml version="1.0" encoding="iso-8859-1"?>
<!-- Generator: Adobe Illustrator 19.0.0, SVG Export Plug-In . SVG Version: 6.00 Build 0)  -->
<svg version="1.1" id="Capa_1"  xmlns="http://www.w3.org/2000/svg" xmlns:xlink="http://www.w3.org/1999/xlink" x="0px" y="0px"
	 viewBox="0 0 458.402 458.402" style="enable-background:new 0 0 458.402 458.402;" xml:space="preserve">
<g>
	<g>
		<path d="M204.1,330.702c-8.4-12.1-20.2-21.4-33.9-26.8v-153.4c22-12.7,42.2-38.5,41.9-71.2c0-39-22.3-67.9-59.5-77.2
			c-5.4-1.3-10.8,1.9-12.2,7.3c-0.3,1-0.4,2.1-0.3,3.2l3.3,43.1c-8.5,4.5-18.8,4.5-27.3,0l3.6-43.3c0.5-5.5-3.6-10.3-9.1-10.8
			c-1.2-0.1-2.4,0-3.6,0.4c-16.7,4.7-31.3,15-41.4,29.1c-9.5,13.5-14.6,30.1-14.8,48c0,17.9,4.9,34.6,14.5,48.1
			c8.4,12,20.2,21.3,33.9,26.7v154c-25,14.7-42.1,42.7-42.1,71.5c0,18.4,5.2,35.1,15,48.3c10.5,14.2,26.2,24,45.3,28.4
			c5.4,1.2,10.8-2.1,12-7.5c0.2-1,0.3-2,0.2-3l-3.3-43.1c8.5-4.5,18.8-4.5,27.3,0l-3.6,43.3c-0.5,5.5,3.6,10.3,9.1,10.8
			c1.2,0.1,2.4,0,3.6-0.4c16.7-4.7,31.4-15,41.4-29.2c9.5-13.6,14.5-30.2,14.5-48.2C218.6,360.902,213.7,344.202,204.1,330.702z
			 M171.3,430.802l2.7-32.7c0.3-3.4-1.2-6.7-3.9-8.8l-0.4-0.3c-17.8-13.5-42.5-13.3-60.1,0.4c-2.6,2.1-4,5.3-3.8,8.6l2.6,33.9
			c-20.1-9.3-31.3-27.9-31.3-52.7c0-23,14.9-46.2,36.4-56.5c3.4-1.7,5.6-5.2,5.5-9v-167c0.1-4.4-2.8-8.3-7-9.6
			c-25.6-7.7-41.5-30.1-41.5-58.1c0.2-22.7,10.5-41.5,27.7-51.8l-2.7,32.7c-0.3,3.4,1.2,6.7,3.9,8.8l0.4,0.3
			c17.8,13.5,42.4,13.3,60-0.3c0.1-0.1,0.2-0.1,0.2-0.2c2.5-2.1,3.9-5.2,3.6-8.5l-2.6-33.6c19.7,9.7,30.7,28.4,30.7,53
			c0.3,26.7-18.5,47.8-36.1,56c-3.5,1.7-5.7,5.2-5.6,9.1v166.5c-0.1,4.4,2.8,8.3,7,9.6c25.6,7.7,41.5,30.1,41.5,58.2
			C198.7,401.602,188.4,420.402,171.3,430.802z"/>
	</g>
</g>
<g>
	<g>
		<path d="M397.6,261.702l-52.4-0.2v-177.5h20.7c5.6-0.1,10.1-4.8,10-10.4c0-0.4,0-0.8-0.1-1.2l-9.2-64c-0.7-4.9-5-8.5-9.9-8.4
			h-44.9c-4.9-0.1-9.2,3.5-9.9,8.4l-9.2,64.1c-0.8,5.5,3,10.7,8.6,11.5c0.4,0.1,0.9,0.1,1.3,0.1h22.6v177.4l-57.2-0.5
			c-5.6,0.1-10.1,4.7-10,10.2c0.1,5.5,4.5,9.9,10,10l19.2,0.1v130c0,25.9,20.9,46.9,46.8,47.1c0.1,0,0.2,0,0.4,0
			c25.9,0,46.9-21,46.9-47v-0.1v-129.7l16.3,0.4c5.6-0.1,10.1-4.7,10-10.4C407.4,266.202,403,261.802,397.6,261.702z M314.2,64.002
			l6.3-44H348l6.3,44H314.2z M361.2,411.402c0.1,14.9-11.9,27-26.8,27.1h-0.1h-0.2c-14.9-0.1-26.9-12.2-26.9-27.1v-130l54,0.2
			V411.402z"/>
	</g>
</g>
<g>
</g>
<g>
</g>
<g>
</g>
<g>
</g>
<g>
</g>
<g>
</g>
<g>
</g>
<g>
</g>
<g>
</g>
<g>
</g>
<g>
</g>
<g>
</g>
<g>
</g>
<g>
</g>
<g>
</g>
</svg>
