<?xml version="1.0" encoding="iso-8859-1"?>
<!-- Generator: Adobe Illustrator 19.0.0, SVG Export Plug-In . SVG Version: 6.00 Build 0)  -->
<svg version="1.1" id="Capa_1"  xmlns="http://www.w3.org/2000/svg" xmlns:xlink="http://www.w3.org/1999/xlink" x="0px" y="0px"
	 viewBox="0 0 480.449 480.449" style="enable-background:new 0 0 480.449 480.449;" xml:space="preserve">
<g>
	<g>
		<path d="M379.124,67.347h-46.9v-5.3c-0.1-17-13.9-30.8-30.9-30.7h-15.5c-10-25.4-38.7-37.9-64.1-27.9c-12.8,5-22.9,15.1-27.9,27.9
			h-15.2c-16.8,0-30.4,13.6-30.4,30.4c0,0.1,0,0.2,0,0.4v5.3h-46.9c-22.8,0-41.1,18.9-41.1,41.7v330.4c0,22.5,18.2,40.8,40.8,40.9
			c0.1,0,0.2,0,0.4,0h277.7c22.5,0.2,41-17.9,41.1-40.5c0-0.1,0-0.2,0-0.4v-330.5C420.224,86.247,401.824,67.347,379.124,67.347z
			 M168.224,62.047c-0.2-5.7,4.3-10.5,10-10.7c0.1,0,0.3,0,0.4,0h22.4c4.7,0,8.7-3.3,9.7-7.8c3.3-14.1,14.9-23.6,28.9-23.6
			c13.9,0,25.9,9.8,28.8,23.4c1,4.7,5,8,9.8,8h23c6-0.1,10.9,4.7,10.9,10.7v39.3h-143.9V62.047z M400.224,439.447
			c0,11.5-9.3,20.8-20.7,20.9c-0.1,0-0.3,0-0.4,0h-277.8c-11.5,0.2-21-9-21.1-20.5c0-0.1,0-0.3,0-0.4v-330.4
			c0-11.8,9.4-21.7,21.1-21.7h46.9v24.3c-0.2,5.1,3.8,9.5,9,9.7c0.2,0,0.4,0,0.5,0h164.5c5.4,0.2,9.9-4.1,10-9.5c0-0.1,0-0.1,0-0.2
			v-24.3h46.9c11.8,0,21.1,10,21.1,21.7V439.447z"/>
	</g>
</g>
<g>
	<g>
		<path d="M348.924,199.747l-3.6-3.4l-17.1-40.1c-4-9.5-13.3-15.7-23.7-15.8h-125.5c-10.3,0.1-19.7,6.3-23.7,15.8l-16.8,39.1l-5.7,5
			c-7.4,6.3-11.7,15.6-11.6,25.3v68.6c0,13.9,11.2,25.1,25,25.2c0.1-0.1,0.2-0.1,0.3-0.1h12.9c14,0,25.8-11.1,25.8-25.2v-4.8h110
			v4.8c0,14,11.8,25.2,25.8,25.2h12.9c13.9,0.1,25.2-11,25.3-24.9c0-0.1,0-0.2,0-0.3v-70.3
			C359.224,214.747,355.524,206.047,348.924,199.747z M173.724,163.947c0.9-2.2,3-3.6,5.3-3.6h125.4c2.3,0,4.4,1.5,5.3,3.6
			l11.4,26.4h-11.2c-5.5-18.9-25.3-29.8-44.3-24.3c-11.7,3.4-20.9,12.6-24.3,24.3h-78.9L173.724,163.947z M287.724,190.347h-24.2
			c2.9-3,7.2-5.7,12.1-5.7C280.524,184.647,284.824,187.347,287.724,190.347z M165.224,294.147c0,3-2.8,5.2-5.8,5.2h-12.9
			c-2.8,0.1-5.2-2.1-5.3-4.9c0-0.1,0-0.2,0-0.3v-5.3c1.7,0.3,3.5,0.5,5.3,0.4h18.7V294.147z M146.524,269.347
			c-2.9,0.1-5.2-2.2-5.3-5.1c0-0.1,0-0.1,0-0.2v-38.4c0-3.9,1.6-7.6,4.6-10.1l5.9-5.2h179.5l3.9,3.9c2.6,2.5,4.1,6,4,9.6v40.2
			c0.1,2.9-2.2,5.2-5.1,5.3c-0.1,0-0.1,0-0.2,0H146.524z M339.224,294.247c0.1,2.8-2.2,5.1-5,5.2c-0.1-0.1-0.2-0.1-0.3-0.1h-12.9
			c-3,0-5.8-2.2-5.8-5.2v-4.8h18.7c1.8,0,3.5-0.1,5.3-0.4V294.247z"/>
	</g>
</g>
<g>
	<g>
		<path d="M191.224,219.347h-32c-5.5,0-10,4.5-10,10v25c0,5.5,4.5,10,10,10h32c5.5,0,10-4.5,10-10v-25
			C201.224,223.847,196.724,219.347,191.224,219.347z M180.224,245.347h-11v-6h11V245.347z"/>
	</g>
</g>
<g>
	<g>
		<path d="M322.224,219.347h-32c-5.5,0-10,4.5-10,10v25c0,5.5,4.5,10,10,10h32c5.5,0,10-4.5,10-10v-25
			C332.224,223.847,327.724,219.347,322.224,219.347z M311.224,245.347h-11v-6h11V245.347z"/>
	</g>
</g>
<g>
	<g>
		<path d="M258.624,235.347h-36.7c-5.5,0-10,4.5-10,10s4.4,10,10,10h36.7c5.5,0,10-4.5,10-10S264.124,235.347,258.624,235.347z"/>
	</g>
</g>
<g>
	<g>
		<path d="M213.224,335.347h-86c-5.5,0-10,4.5-10,10v83c0,5.5,4.5,10,10,10h86c5.5,0,10-4.5,10-10v-83
			C223.224,339.847,218.724,335.347,213.224,335.347z M203.224,418.347h-66v-63h66V418.347z"/>
	</g>
</g>
<g>
	<g>
		<path d="M192.024,368.247c-4.1-3.5-10.3-3.1-13.9,0.9l-12.5,14.2l-4.3-3.4c-4.3-3.5-10.6-2.8-14.1,1.5c-3.3,4.4-2.6,10.7,1.8,14.2
			l11.8,9.4c4.2,3.3,10.2,2.8,13.8-1.2l18.6-21.5C196.824,378.147,196.224,371.847,192.024,368.247z"/>
	</g>
</g>
<g>
	<g>
		<path d="M311.324,355.347h-62.1c-5.5,0-10,4.5-10,10s4.5,10,10,10h62.1c5.5,0,10-4.5,10-10S316.824,355.347,311.324,355.347z"/>
	</g>
</g>
<g>
	<g>
		<path d="M353.024,397.347h-103.8c-5.5,0-10,4.5-10,10s4.5,10,10,10h103.9c5.5,0,10-4.5,10-10S358.624,397.347,353.024,397.347z"/>
	</g>
</g>
<g>
</g>
<g>
</g>
<g>
</g>
<g>
</g>
<g>
</g>
<g>
</g>
<g>
</g>
<g>
</g>
<g>
</g>
<g>
</g>
<g>
</g>
<g>
</g>
<g>
</g>
<g>
</g>
<g>
</g>
</svg>
