<?xml version="1.0" encoding="iso-8859-1"?>
<!-- Generator: Adobe Illustrator 19.0.0, SVG Export Plug-In . SVG Version: 6.00 Build 0)  -->
<svg version="1.1" id="Capa_1"  xmlns="http://www.w3.org/2000/svg" xmlns:xlink="http://www.w3.org/1999/xlink" x="0px" y="0px"
	 viewBox="0 0 505.65 505.65" style="enable-background:new 0 0 505.65 505.65;" xml:space="preserve">
<g>
	<g>
		<path d="M339.35,296.6c-11.3-11.4-24.7-20.4-39.6-26.3V207l-10-21.2v-20l36.3-28.7l-33.2-35.9l32.4-37L253.55,0l-47.8,34.2v236
			c-14.9,6-28.3,15-39.5,26.4c-47.8,47.8-47.8,125.5,0,173.2c47.8,47.8,125.3,47.8,173.2,0C387.25,422,387.15,344.3,339.35,296.6z
			 M225.75,44.5l26.4-18.9l45,40.3l-31.3,35.6l30.9,33.2l-27,21.3v34.4l10,21.2v52.3c-17.8-4-36.2-4-54,0V44.5z M326.25,454.7
			c-0.4,0.4-0.7,0.7-1,1c-40,40-104.9,40-144.9-0.1c-40-40-40-104.9,0.1-144.9c40-40,104.8-40,144.8,0
			C365.25,350.2,365.65,414.6,326.25,454.7z"/>
	</g>
</g>
<g>
	<g>
		<path d="M284.25,367.7c-8.4-8.3-19.7-13-31.5-13c-24.6,0-44.5,19.9-44.5,44.5c0,24.6,19.9,44.5,44.5,44.5
			c24.6,0,44.5-19.9,44.5-44.5C297.25,387.4,292.55,376.1,284.25,367.7z M270.05,416.5c-9.6,9.6-25.1,9.6-34.7,0
			c-9.6-9.6-9.6-25.1,0-34.7c9.6-9.6,25.1-9.6,34.7,0C279.65,391.5,279.65,407,270.05,416.5z"/>
	</g>
</g>
<g>
</g>
<g>
</g>
<g>
</g>
<g>
</g>
<g>
</g>
<g>
</g>
<g>
</g>
<g>
</g>
<g>
</g>
<g>
</g>
<g>
</g>
<g>
</g>
<g>
</g>
<g>
</g>
<g>
</g>
</svg>
