<?xml version="1.0" encoding="iso-8859-1"?>
<!-- Generator: Adobe Illustrator 19.0.0, SVG Export Plug-In . SVG Version: 6.00 Build 0)  -->
<svg version="1.1" id="Capa_1"  xmlns="http://www.w3.org/2000/svg" xmlns:xlink="http://www.w3.org/1999/xlink" x="0px" y="0px"
	 viewBox="0 0 468 468" style="enable-background:new 0 0 468 468;" xml:space="preserve">
<g>
	<g>
		<path d="M351.649,386.9h-3.5v-16.3c0-22.8-18.1-41.7-40.9-41.7h-45.1v-184h3.3c5.1,0,9.3-3.8,9.9-8.8l3.3-27.8
			c11.9-12.1,18.5-28.4,18.6-45.4c-0.1-34.8-28.4-63-63.3-62.9c-34.9,0.1-63,28.4-62.9,63.3c0,16.9,6.6,33.1,18.5,45l3.3,27.8
			c0.6,5,4.9,8.8,9.9,8.8h3.3v184h-45.1c-22.8,0-40.9,19-40.9,41.7v16.3h-3.5c-22.8,0-41.5,18.4-41.5,41.2v29.8
			c0.1,5.6,4.6,10.1,10.2,10.1h297.5c5.6,0,10.1-4.5,10.2-10.1v-29.8C393.149,405.3,374.349,386.9,351.649,386.9z M205.749,96.1
			c-9.3-8.3-14.7-20.3-14.6-32.8c-0.1-23.8,19.1-43.2,42.9-43.3c23.8-0.1,43.2,19.1,43.3,42.9c0,12.6-5.3,24.7-14.6,33.2
			c-1.8,1.6-3,3.9-3.3,6.3l-2.9,22.5h-44.9l-2.7-22.5C208.749,99.9,207.549,97.7,205.749,96.1z M242.149,144.9v184h-16v-184H242.149
			z M140.149,370.6c0-11.8,9.2-21.7,20.9-21.7h146.2c11.8,0,20.9,10,20.9,21.7v16.3h-188V370.6z M95.149,447.9v-19.8
			c0.1-11.8,9.8-21.2,21.5-21.2h234.9c11.8-0.1,21.4,9.4,21.5,21.2v19.8H95.149z"/>
	</g>
</g>
<g>
</g>
<g>
</g>
<g>
</g>
<g>
</g>
<g>
</g>
<g>
</g>
<g>
</g>
<g>
</g>
<g>
</g>
<g>
</g>
<g>
</g>
<g>
</g>
<g>
</g>
<g>
</g>
<g>
</g>
</svg>
