<?xml version="1.0" encoding="iso-8859-1"?>
<!-- Generator: Adobe Illustrator 19.0.0, SVG Export Plug-In . SVG Version: 6.00 Build 0)  -->
<svg version="1.1" id="Capa_1"  xmlns="http://www.w3.org/2000/svg" xmlns:xlink="http://www.w3.org/1999/xlink" x="0px" y="0px"
	 viewBox="0 0 455.726 455.726" style="enable-background:new 0 0 455.726 455.726;" xml:space="preserve">
<g>
	<g>
		<path d="M451.12,171.426v-0.1l-2.6-7.8c0-0.1-0.1-0.2-0.1-0.3c-21.7-59.8-78.4-99.5-142-99.5h-8.3v-28.6
			c-0.2-5.7-4.8-10.2-10.5-10.4h-61.6c-5.5,0-9.9,4.9-9.9,10.4v28.6h-37.7c-3.6-14.2-14.8-25.4-29-29.1l-132.3-34.3
			c-3.1-0.8-6.3-0.1-8.9,1.8c-2.5,1.9-4,4.8-4.1,7.9v127.9c0.1,3.1,1.6,6.1,4.1,7.9c1.8,1.4,4,2.1,6.2,2.1c0.9,0,1.8-0.1,2.6-0.3
			l132.4-34.8c14.2-3.7,25.3-14.9,28.9-29.1h37.8v33.9c-0.1,5.5,4.4,10.1,9.9,10.1h21.1v13.4c-45,5.2-81,43.7-81,90.3v193.1
			c0.1,17.2,14,31.1,31.2,31.2h120.1c17,0,30.7-14.2,30.7-31.2v-193.1c0-46.9-36-85.7-81-90.4v-13.3h20.5c5.5,0,10.5-4.6,10.5-10.1
			v-33.9h8.3c55.1,0,104.3,34.4,123.1,86.2l2.6,7.7c1.7,5.2,7.4,8.1,12.6,6.4C449.92,182.326,452.819,176.626,451.12,171.426z
			 M158.72,78.926c-1.8,7.1-7.4,12.7-14.5,14.6l-120.1,31.4v-102l120,31.1C155.02,56.826,161.52,68.026,158.72,78.926z
			 M328.12,424.526c0,6-4.7,11.2-10.7,11.2h-120.1c-6.1-0.1-11.1-5.1-11.2-11.2v-40.8h142V424.526z M328.12,363.726h-142v-83h142
			V363.726z M328.12,231.426v29.3h-142v-29.3c0-39.2,31.8-71,71-71S328.12,192.126,328.12,231.426z M278.12,107.726h-42v-63h42
			V107.726z"/>
	</g>
</g>
<g>
</g>
<g>
</g>
<g>
</g>
<g>
</g>
<g>
</g>
<g>
</g>
<g>
</g>
<g>
</g>
<g>
</g>
<g>
</g>
<g>
</g>
<g>
</g>
<g>
</g>
<g>
</g>
<g>
</g>
</svg>
