<?xml version="1.0" encoding="iso-8859-1"?>
<!-- Generator: Adobe Illustrator 19.0.0, SVG Export Plug-In . SVG Version: 6.00 Build 0)  -->
<svg version="1.1" id="Capa_1"  xmlns="http://www.w3.org/2000/svg" xmlns:xlink="http://www.w3.org/1999/xlink" x="0px" y="0px"
	 viewBox="0 0 492.1 492.1" style="enable-background:new 0 0 492.1 492.1;" xml:space="preserve">
<g>
	<g>
		<path d="M466.3,320.41l-39.6-18l-34.9-55.6c-10-16.1-27.8-25.8-46.8-25.7h-66v-60.5c26.7-3,48-25.8,48-53.3v-29.2h2.1
			c5.5,0,10-4.5,10-10s-4.5-10-10-10h-21.7l0.2-34.9c0-5.5-4.4-10-10-10c-5.5,0-10,4.4-10,10l-0.2,34.9H250l-0.2-34.9
			c0-5.5-4.5-10-10-10.1h-0.1c-5.5,0.1-10,4.6-9.9,10.2l0.2,34.8h-21.7c-5.5,0-10,4.5-10,10s4.5,10,10,10h2.8v29.2
			c-0.1,27.5,20.7,50.5,48,53.4v60.4h-62.5c-17.2,0-33.5,7.9-44,21.6l-45,58.9l-75.3,20.5c-19.1,5.2-32.3,22.6-32.3,42.4v28.7
			c-0.1,24.1,19.4,43.7,43.5,43.8c0.1,0,0.1,0,0.2,0h6.5c7.7,29.9,38.2,47.9,68.1,40.2c19.7-5.1,35.1-20.5,40.2-40.2h169.4
			c7.7,29.9,38.2,47.9,68.1,40.2c19.7-5.1,35.1-20.5,40.2-40.2h12.2c24.1,0,43.7-19.5,43.7-43.6c0-0.1,0-0.1,0-0.2v-32.8
			C492,343.31,482,327.61,466.3,320.41z M231,107.31v-29.2h76v29.2c0,18.5-15.5,33.8-34.1,33.8h-8.5
			C245.9,141.01,230.9,125.91,231,107.31z M104.4,459.21c-19.8,0-35.9-16.1-35.9-35.9s16.1-35.9,35.9-35.9s35.9,16.1,35.9,35.9
			C140.2,443.11,124.2,459.21,104.4,459.21z M382,459.21c-19.8,0-35.9-16.1-35.9-35.9s16.1-35.9,35.9-35.9
			c19.8,0,35.9,16.1,35.9,35.9S401.8,459.21,382,459.21z M448.5,417.11c-0.1,0-0.2,0-0.3,0h-10.7c-3.3-30.7-30.9-52.9-61.6-49.5
			c-26.1,2.8-46.7,23.4-49.5,49.5H159.9c-3.3-30.7-30.9-52.9-61.6-49.5c-26.1,2.8-46.7,23.4-49.5,49.5h-5.1
			c-13.1,0-23.7-10.5-23.7-23.6c0-0.1,0-0.2,0-0.3v-28.7c0-10.8,7.1-20.3,17.5-23.2l78.6-21.5c2.1-0.6,4-1.8,5.3-3.6l47-61.5
			c6.7-8.7,17.1-13.8,28.1-13.7H345c12.1-0.1,23.5,6.1,29.9,16.4l36.5,58.2c1,1.6,2.6,2.9,4.3,3.7l42.3,19.2
			c8.5,3.9,14,12.4,13.9,21.8v33h0.1C472.1,406.41,461.6,417.01,448.5,417.11z"/>
	</g>
</g>
<g>
</g>
<g>
</g>
<g>
</g>
<g>
</g>
<g>
</g>
<g>
</g>
<g>
</g>
<g>
</g>
<g>
</g>
<g>
</g>
<g>
</g>
<g>
</g>
<g>
</g>
<g>
</g>
<g>
</g>
</svg>
