<?xml version="1.0" encoding="iso-8859-1"?>
<!-- Generator: Adobe Illustrator 19.0.0, SVG Export Plug-In . SVG Version: 6.00 Build 0)  -->
<svg version="1.1" id="Capa_1"  xmlns="http://www.w3.org/2000/svg" xmlns:xlink="http://www.w3.org/1999/xlink" x="0px" y="0px"
	 viewBox="0 0 478 478" style="enable-background:new 0 0 478 478;" xml:space="preserve">
<g>
	<g>
		<path d="M427.25,277.4l-7.7-7.4c0-0.2,0-0.3-0.1-0.5l-31.4-84.9c-5.5-14.7-19.5-24.5-35.2-24.6h-103.8v-28.1
			c23.6-3.2,41.2-23.5,41-47.4V62h1.4c5.5,0,10-4.5,10-10s-4.5-10-10-10h-12.6l0.2-31.8c0-5.5-4.4-9.2-9.9-10.2h-0.1
			c-5.5,0.1-10,4.6-10,10.1l-0.2,31.9h-39.6l-0.2-31.7c0-5.5-4.5-10-10-10s-10,4.5-10,10l0.2,31.6h-12.6c-5.5,0-10,4.5-10,10
			s4.5,10,10,10h1.4v22.6c-0.2,23.8,17.4,44.1,41,47.4V160h-98.4c-15.7,0.1-29.7,9.9-35.2,24.6l-31.1,84.1l-11.5,10
			c-11.4,9.8-18,24.1-17.9,39.1V440c0,20.7,16.4,38,37,38h23.1c20.7,0,37-17.3,37-38v-16h214v16c0,20.7,16.3,38,37,38h23
			c20.7,0,37-17.3,37-38V314.7C443.15,300.6,437.35,287.1,427.25,277.4z M208.05,85.1c0-0.2,0-0.4,0-0.5V62h62v22.6
			c0.2,15-11.8,27.3-26.8,27.4c-0.2,0-0.3,0-0.5,0h-7.4C220.35,112.1,208.15,100.1,208.05,85.1z M114.25,191.6
			c2.5-6.9,9.1-11.5,16.4-11.6h222.2c7.3,0.1,13.9,4.7,16.4,11.6l26.5,71.4h-17.3c-5.5-33.2-36.9-55.6-70.1-50.1
			c-25.7,4.3-45.8,24.4-50.1,50.1H87.85L114.25,191.6z M358.05,263h-79.3c5.5-21.9,27.8-35.2,49.7-29.7
			C342.95,237,354.35,248.4,358.05,263z M112.05,440c0,9.7-7.4,18-17,18h-23c-9.7,0-17-8.3-17-18v-20.5c5.2,2.9,11.1,4.5,17,4.5h40
			V440z M423.05,440c0,9.7-7.4,18-17,18h-23c-9.7,0-17-8.3-17-18v-16h40c6,0,11.8-1.6,17-4.5V440z M423.15,386.3h-0.1
			c0,9.7-7.4,17.7-17,17.7h-334c-9.7,0-17-8-17-17.7v-68.5c-0.1-9.2,3.9-17.9,10.8-23.9l12.7-11h325.8l9.2,8.9
			c6.2,5.9,9.6,14.2,9.6,22.8V386.3z"/>
	</g>
</g>
<g>
	<g>
		<path d="M151.05,315h-66c-5.5,0-10,4.5-10,10v45c0,5.5,4.5,10,10,10h66c5.5,0,10-4.5,10-10v-45
			C161.05,319.5,156.55,315,151.05,315z M140.05,360h-45v-25h45V360z"/>
	</g>
</g>
<g>
	<g>
		<path d="M394.05,315h-66c-5.5,0-10,4.5-10,10v45c0,5.5,4.5,10,10,10h66c5.5,0,10-4.5,10-10v-45
			C404.05,319.5,399.55,315,394.05,315z M383.05,360h-45v-25h45V360z"/>
	</g>
</g>
<g>
	<g>
		<path d="M281.05,351h-84c-5.5,0-10,4.5-10,10s4.5,10,10,10h84c5.5,0,10-4.5,10-10S286.55,351,281.05,351z"/>
	</g>
</g>
<g>
	<g>
		<path d="M281.05,324h-84c-5.5,0-10,4.5-10,10s4.5,10,10,10h84c5.5,0,10-4.5,10-10S286.55,324,281.05,324z"/>
	</g>
</g>
<g>
</g>
<g>
</g>
<g>
</g>
<g>
</g>
<g>
</g>
<g>
</g>
<g>
</g>
<g>
</g>
<g>
</g>
<g>
</g>
<g>
</g>
<g>
</g>
<g>
</g>
<g>
</g>
<g>
</g>
</svg>
