<?xml version="1.0" encoding="iso-8859-1"?>
<!-- Generator: Adobe Illustrator 19.0.0, SVG Export Plug-In . SVG Version: 6.00 Build 0)  -->
<svg version="1.1" id="Capa_1"  xmlns="http://www.w3.org/2000/svg" xmlns:xlink="http://www.w3.org/1999/xlink" x="0px" y="0px"
	 viewBox="0 0 446.082 446.082" style="enable-background:new 0 0 446.082 446.082;" xml:space="preserve">
<g>
	<g>
		<path d="M77.424,91.381c-19.4,0-35.1,15.7-35.1,35.1c0,19.4,15.7,35.1,35.1,35.1c19.4,0,35.1-15.7,35.1-35.1
			C112.524,107.181,96.824,91.481,77.424,91.381z M77.424,141.581c-8.3,0-15.1-6.8-15.1-15.1c0-8.3,6.8-15.1,15.1-15.1
			s15.1,6.8,15.1,15.1C92.524,134.881,85.724,141.581,77.424,141.581z"/>
	</g>
</g>
<g>
	<g>
		<path d="M198.824,91.381c-19.4,0-35.1,15.7-35.1,35.1c0,19.4,15.7,35.1,35.1,35.1c19.4,0,35.1-15.7,35.1-35.1
			C233.924,107.081,218.224,91.381,198.824,91.381z M198.824,141.581c-8.3,0-15.1-6.7-15.1-15.1c0-8.3,6.8-15.1,15.1-15.1
			c8.3,0,15.1,6.8,15.1,15.1C213.924,134.781,207.124,141.581,198.824,141.581z"/>
	</g>
</g>
<g>
	<g>
		<path d="M247.024,284.581c-19.4,0-35.1,15.7-35.1,35.1c0,19.4,15.7,35.1,35.1,35.1c19.4,0,35.1-15.7,35.1-35.1
			C282.124,300.281,266.424,284.581,247.024,284.581z M247.024,334.781c-8.3,0-15.1-6.8-15.1-15.1s6.8-15.1,15.1-15.1
			c8.3,0,15.1,6.8,15.1,15.1S255.324,334.681,247.024,334.781z"/>
	</g>
</g>
<g>
	<g>
		<path d="M424.324,265.581c-14.5-15.2-34.7-23.8-55.9-23.7c-16.6,0-32.9,5.3-46.2,15.2c-8.6,6.5-20.5,6.5-29,0
			c-2.7-2-5.4-3.7-8.3-5.4l-18.9-86.3c21.5-37.1,8.9-84.7-28.2-106.2c-26.8-15.5-60.3-13.7-85.2,4.7c-8.6,6.5-20.5,6.5-29,0
			c-34.6-25.4-83.3-17.8-108.6,16.8c-25.4,34.6-17.8,83.3,16.8,108.6c12.5,9.2,27.5,14.4,43,15c0.9,0,1.7,0,2.6,0
			c17,0,33.6-5.6,47.1-15.9c8-6.1,19.2-6.1,27.2,0c8.2,6.2,17.5,10.7,27.4,13.3l13.1,62.7c-0.4,0.4-0.9,0.8-1.3,1.3
			c-29.7,31.1-28.6,80.5,2.5,110.2c13.8,13.1,31.9,20.8,50.9,21.5c0.9,0,1.7,0,2.6,0c17,0,33.6-5.6,47.1-15.9c8-6.1,19.2-6.1,27.2,0
			c34.2,26,83,19.4,109-14.8C453.424,336.181,450.924,293.281,424.324,265.581z M163.824,172.381c-15.2-11.4-36.2-11.4-51.4,0.1
			c-10.6,8.1-23.6,12.2-36.9,11.7c-29.7-1-54.7-25.9-55.8-55.5c-1.2-31.9,23.6-58.7,55.5-60c13.1-0.5,26,3.5,36.5,11.2
			c15.7,11.7,37.1,11.7,52.8,0c25.7-19,61.9-13.5,80.8,12.2c7.8,10.6,11.8,23.5,11.2,36.6c-1.1,29.6-26.1,54.5-55.7,55.5
			C187.524,184.68,174.424,180.48,163.824,172.381z M262.624,243.381c-5.1-1-10.3-1.6-15.6-1.6c-13,0-25.7,3.2-37.1,9.4l-9.8-46.9
			c0.5,0,0.9,0,1.4,0c17.9-0.6,34.9-7.4,48.3-19.3L262.624,243.381z M426.124,321.881c-1.1,29.6-26.1,54.5-55.7,55.5
			c-13.3,0.5-26.4-3.7-37-11.8c-15.2-11.5-36.3-11.5-51.5,0c-10.6,8.1-23.6,12.2-36.9,11.7c-29.7-1-54.7-25.9-55.8-55.5
			c-1.2-31.9,23.7-58.7,55.6-60c13.1-0.5,25.9,3.5,36.5,11.2c15.7,11.7,37.1,11.7,52.8,0c25.7-19,61.9-13.5,80.8,12.2
			C422.724,295.881,426.624,308.781,426.124,321.881z"/>
	</g>
</g>
<g>
	<g>
		<path d="M368.424,284.581c-19.4,0-35.1,15.7-35.1,35.1c0,19.4,15.7,35.1,35.1,35.1s35.1-15.7,35.1-35.1
			C403.524,300.281,387.824,284.581,368.424,284.581z M368.424,334.781c-8.3,0-15.1-6.8-15.1-15.1s6.8-15.1,15.1-15.1
			s15.1,6.8,15.1,15.1S376.724,334.681,368.424,334.781z"/>
	</g>
</g>
<g>
</g>
<g>
</g>
<g>
</g>
<g>
</g>
<g>
</g>
<g>
</g>
<g>
</g>
<g>
</g>
<g>
</g>
<g>
</g>
<g>
</g>
<g>
</g>
<g>
</g>
<g>
</g>
<g>
</g>
</svg>
