<?xml version="1.0" encoding="iso-8859-1"?>
<!-- Generator: Adobe Illustrator 19.0.0, SVG Export Plug-In . SVG Version: 6.00 Build 0)  -->
<svg version="1.1" id="Capa_1"  xmlns="http://www.w3.org/2000/svg" xmlns:xlink="http://www.w3.org/1999/xlink" x="0px" y="0px"
	 viewBox="0 0 470.296 470.296" style="enable-background:new 0 0 470.296 470.296;" xml:space="preserve">
<g>
	<g>
		<path d="M470.249,232.822c-1.4-37.9-32.5-68-70.4-68c-15.1,0-29.7,4.8-41.8,13.8c-7.3,5.5-17.3,5.5-24.6-0.1
			c-26.9-19.9-64.1-18-88.9,4.4c-5.3,4.8-13.4,4.8-18.7,0c-24.8-22.5-62.1-24.3-89-4.4c-7.3,5.5-17.3,5.5-24.6-0.1
			c-31.3-23.1-75.4-16.4-98.5,14.9c-23.1,31.3-16.4,75.4,14.9,98.5c25.1,18.5,59.5,18.3,84.4-0.6c6.8-5.2,16.2-5.2,23,0
			c26.8,20.5,64.5,18.9,89.5-3.8c5.5-4.9,13.8-4.9,19.3,0c25,22.7,62.6,24.3,89.4,3.8c6.8-5.2,16.2-5.2,23,0
			c12.3,9.3,27.3,14.4,42.7,14.4c0.8,0,1.6,0,2.4,0C441.249,304.222,471.649,271.622,470.249,232.822z M450.149,237.222
			c-1,25.8-22.8,47.5-48.6,48.4c-11.6,0.4-23-3.2-32.2-10.3c-14-10.6-33.3-10.5-47.2,0c-9.2,7-20.6,10.7-32.1,10.2
			c-11.8-0.5-23-5-31.8-13c-13.1-11.8-33-11.8-46.1,0c-17.9,16.3-44.8,17.4-64,2.7c-14-10.6-33.3-10.5-47.2,0
			c-9.2,7-20.6,10.7-32.1,10.2c-25.9-0.9-47.7-22.6-48.6-48.4c-1.1-27.8,20.6-51.2,48.4-52.3c11.4-0.4,22.7,3,31.9,9.8
			c14.3,10.7,34,10.7,48.3,0.1c19.3-14.3,45.9-13,63.7,3.1c13,11.6,32.6,11.6,45.6,0c17.7-16.1,44.4-17.4,63.6-3.2
			c14.3,10.7,34,10.7,48.3,0.1c22.2-16.5,53.8-11.7,70.3,10.6C447.149,214.522,450.649,225.722,450.149,237.222z"/>
	</g>
</g>
<g>
	<g>
		<path d="M69.149,202.822c-17.9,0-32.4,14.4-32.4,32.3c0,17.9,14.4,32.4,32.3,32.4c17.9,0,32.4-14.4,32.4-32.3
			C101.449,217.422,87.049,202.922,69.149,202.822z M69.149,247.622c-6.8,0-12.4-5.5-12.4-12.3c0-6.8,5.5-12.4,12.3-12.4
			s12.4,5.5,12.4,12.3S75.949,247.522,69.149,247.622z"/>
	</g>
</g>
<g>
	<g>
		<path d="M177.349,202.822c-17.9,0-32.4,14.4-32.4,32.3c0,17.9,14.4,32.4,32.3,32.4c17.9,0,32.4-14.4,32.4-32.3
			C209.649,217.422,195.149,202.922,177.349,202.822z M177.349,247.622c-6.8,0-12.4-5.5-12.4-12.3c0-6.8,5.5-12.4,12.3-12.4
			s12.4,5.5,12.4,12.3S184.149,247.522,177.349,247.622z"/>
	</g>
</g>
<g>
	<g>
		<path d="M290.349,202.822c-17.9,0-32.4,14.4-32.4,32.3c0,17.9,14.4,32.4,32.3,32.4s32.4-14.4,32.4-32.3
			C322.649,217.422,308.249,202.922,290.349,202.822z M290.349,247.622c-6.8,0-12.4-5.5-12.4-12.3c0-6.8,5.5-12.4,12.3-12.4
			s12.4,5.5,12.4,12.3C302.749,242.022,297.149,247.522,290.349,247.622z"/>
	</g>
</g>
<g>
	<g>
		<path d="M398.549,202.822c-17.9,0-32.4,14.5-32.4,32.4s14.4,32.4,32.3,32.4c17.9,0,32.4-14.4,32.4-32.3c0,0,0,0,0-0.1
			C430.849,217.422,416.349,202.922,398.549,202.822z M410.849,235.322c0,6.7-5.5,12.2-12.3,12.3c-6.8,0-12.4-5.5-12.4-12.3
			c0-6.8,5.5-12.4,12.3-12.4s12.4,5.5,12.4,12.3C410.849,235.222,410.849,235.222,410.849,235.322z"/>
	</g>
</g>
<g>
</g>
<g>
</g>
<g>
</g>
<g>
</g>
<g>
</g>
<g>
</g>
<g>
</g>
<g>
</g>
<g>
</g>
<g>
</g>
<g>
</g>
<g>
</g>
<g>
</g>
<g>
</g>
<g>
</g>
</svg>
