<?xml version="1.0" encoding="iso-8859-1"?>
<!-- Generator: Adobe Illustrator 19.0.0, SVG Export Plug-In . SVG Version: 6.00 Build 0)  -->
<svg version="1.1" id="Capa_1"  xmlns="http://www.w3.org/2000/svg" xmlns:xlink="http://www.w3.org/1999/xlink" x="0px" y="0px"
	 viewBox="0 0 452.276 452.276" style="enable-background:new 0 0 452.276 452.276;" xml:space="preserve">
<g>
	<g>
		<path d="M384.338,282.675l-6.2-5.9c-0.1-0.2-0.1-0.3-0.2-0.5l-25.6-59.8c-5.2-12.3-17.3-20.3-30.7-20.3h-186.4
			c-13.4,0-25.5,8-30.8,20.4l-25.3,59.1l-9.4,8.1c-9.9,8.5-15.6,20.9-15.6,33.9v101.9c0,18,14.5,32.6,32.5,32.7c0.1,0,0.2,0,0.3,0
			h19.1c18.2,0.1,33-14.5,33.1-32.6v-11.5h174v11.3c0.1,18.2,14.9,32.8,33.1,32.7h19.1c18,0.1,32.7-14.4,32.8-32.4
			c0-0.1,0-0.2,0-0.3v-104.5C398.138,302.775,393.138,291.075,384.338,282.675z M122.838,224.375c2.1-5,7-8.2,12.4-8.2h186.3
			c5.4,0,10.3,3.2,12.4,8.2l19.7,45.8h-9.8c-5.5-28.4-33-47-61.5-41.5c-21,4.1-37.4,20.5-41.5,41.5h-137.6L122.838,224.375z
			 M323.138,270.175h-61.8c5.5-17.1,23.8-26.4,40.9-20.9C312.238,252.475,319.938,260.275,323.138,270.175z M119.138,419.475
			c-0.1,7.1-5.9,12.8-13,12.7c0,0,0,0-0.1,0h-19.1c-6.9,0.1-12.7-5.4-12.8-12.4c0-0.1,0-0.2,0-0.3v-14.5c4,1.7,8.2,3.1,12.8,3.1
			h32.2V419.475z M86.938,388.175c-7.1,0-12.8-6.3-12.8-13.4v-57.1c0-7.2,3.1-14,8.5-18.7l10.2-8.8h270.4l7.3,7
			c4.9,4.7,7.6,11.1,7.6,17.8v59.8c0,7.1-5.6,13.4-12.8,13.4H86.938z M378.138,419.575c0.1,6.9-5.5,12.6-12.5,12.7
			c-0.1-0.1-0.2-0.1-0.3-0.1h-19.1c-7.1,0.1-13-5.5-13.1-12.6c0,0,0,0,0-0.1v-11.3h32.2c4.6,0,8.8-1.4,12.8-3.1V419.575z"/>
	</g>
</g>
<g>
	<g>
		<path d="M152.138,314.175h-55c-5.5,0-10,4.5-10,10v37c0,5.5,4.5,10,10,10h55c5.5,0,10-4.5,10-10v-37
			C162.138,318.675,157.638,314.175,152.138,314.175z M142.138,351.175h-35v-17h35V351.175z"/>
	</g>
</g>
<g>
	<g>
		<path d="M355.138,314.175h-55c-5.5,0-10,4.5-10,10v37c0,5.5,4.5,10,10,10h55c5.5,0,10-4.5,10-10v-37
			C365.138,318.675,360.638,314.175,355.138,314.175z M345.138,351.175h-35v-17h35V351.175z"/>
	</g>
</g>
<g>
	<g>
		<path d="M261.138,349.175h-70c-5.5,0-10,4.5-10,10s4.5,10,10,10h70c5.5,0,10-4.5,10-10S266.638,349.175,261.138,349.175z"/>
	</g>
</g>
<g>
	<g>
		<path d="M261.138,321.175h-70c-5.5,0-10,4.5-10,10s4.5,10,10,10h70c5.5,0,10-4.5,10-10S266.638,321.175,261.138,321.175z"/>
	</g>
</g>
<g>
	<g>
		<path d="M226.138,92.375c-19.8,0-35.8,16-35.8,35.8s16,35.8,35.8,35.8s35.8-16,35.8-35.8S245.938,92.375,226.138,92.375z
			 M226.138,143.975c-8.7,0-15.8-7.1-15.8-15.8s7.1-15.8,15.8-15.8c8.7,0,15.8,7,15.8,15.8
			C241.938,136.875,234.838,143.975,226.138,143.975z"/>
	</g>
</g>
<g>
	<g>
		<path d="M294.438,76.175c-37.7-37.7-98.8-37.7-136.6,0c-3.9,3.9-3.9,10.2,0,14.1c3.9,3.9,10.2,3.9,14.1,0
			c29.9-29.9,78.4-29.9,108.3,0c1.9,1.9,4.5,3,7.1,3c5.5,0,10-4.5,10-10C297.338,80.575,296.238,78.075,294.438,76.175z"/>
	</g>
</g>
<g>
	<g>
		<path d="M335.238,45.175c0,0,0,0-0.1-0.1c-60.3-60.1-157.9-60.1-218.2,0c-3.9,3.9-3.9,10.3,0.1,14.1s10.2,3.8,14.1,0
			c52.4-52.4,137.6-52.4,189.9,0c3.9,3.9,10.2,3.9,14.1,0.1C339.038,55.375,339.038,49.075,335.238,45.175z"/>
	</g>
</g>
<g>
</g>
<g>
</g>
<g>
</g>
<g>
</g>
<g>
</g>
<g>
</g>
<g>
</g>
<g>
</g>
<g>
</g>
<g>
</g>
<g>
</g>
<g>
</g>
<g>
</g>
<g>
</g>
<g>
</g>
</svg>
