<?xml version="1.0" encoding="iso-8859-1"?>
<!-- Generator: Adobe Illustrator 19.0.0, SVG Export Plug-In . SVG Version: 6.00 Build 0)  -->
<svg version="1.1" id="Capa_1"  xmlns="http://www.w3.org/2000/svg" xmlns:xlink="http://www.w3.org/1999/xlink" x="0px" y="0px"
	 viewBox="0 0 438.92 438.92" style="enable-background:new 0 0 438.92 438.92;" xml:space="preserve">
<g>
	<g>
		<path d="M408.96,289.375l-56.8-53.1c-6.7-6.3-15.5-9.7-24.6-9.7h-13.2v-13h12.1c5.5,0,10-4.5,10-10s-4.5-10-10-10h-125.1
			c-5.5,0-10,4.5-10,10s4.5,10,10,10h12v13h-12.5c-10,0-19.5,4.1-26.3,11.4l-48,51.4c-3,3.3-7.3,5.1-11.7,5.2h-43
			c-29.5-0.1-53.4,23.8-53.4,53.2v20.9c0,19.8,16.1,35.9,36,35.9h0.1h5.3c7.2,25.2,33.4,39.7,58.6,32.5c15.7-4.5,28-16.8,32.5-32.5
			h137.4c7.2,25.2,33.4,39.7,58.6,32.5c15.7-4.5,28-16.8,32.5-32.5h4.9c19.8,0.1,36-16,36.1-35.8v-0.1v-53
			C420.36,305.675,416.16,296.175,408.96,289.375z M327.36,246.575c4.2,0,8.2,1.6,11.1,4.4l46.5,43.6h-54.8l-22.2-48H327.36z
			 M308.26,294.575h-55.9v-48h33.7L308.26,294.575z M105.26,419.075c-15.1,0-27.4-12.3-27.4-27.4c0-15.1,12.3-27.4,27.4-27.4
			c15.1,0,27.4,12.3,27.4,27.4C132.66,406.875,120.36,419.075,105.26,419.075z M232.36,384.475h-80.2c-3.8-25.9-27.9-43.7-53.8-39.9
			c-20.6,3.1-36.8,19.3-39.9,39.9h-4c-8.8,0.1-16-7-16.1-15.8v-20.9c0-18.4,15-33.3,33.4-33.3h0.1h43c0.7,0,1.3,0,2-0.1
			c0.4,0,0.7,0.1,1.1,0.1h114.4V384.475z M232.36,294.575h-83.2l40-42.8c3-3.3,7.3-5.1,11.7-5.2h31.5V294.575z M233.36,213.575h61
			v13h-61V213.575z M333.86,419.075c-15.1,0-27.4-12.3-27.4-27.4c0-15.1,12.3-27.4,27.4-27.4c15.1,0,27.4,12.3,27.4,27.4
			C361.26,406.875,348.96,419.075,333.86,419.075z M400.46,368.675h-0.1c0,8.8-7.2,15.9-15.9,15.9h-0.1h-3.6
			c-3.8-25.9-27.9-43.8-53.8-39.9c-20.6,3.1-36.8,19.3-39.9,39.9h-34.7v-70h146.3c0.6,0,1.1-0.1,1.7-0.2c0,0.5,0.1,0.9,0.1,1.4
			V368.675z"/>
	</g>
</g>
<g>
	<g>
		<path d="M255.86,92.475c-19.7,0-35.8,16.1-35.8,35.8c0,19.8,16,35.8,35.8,35.8s35.8-16,35.8-35.8S275.66,92.475,255.86,92.475z
			 M255.96,144.075c-8.7,0-15.8-7.1-15.8-15.8s7.1-15.8,15.8-15.8c8.7,0,15.8,7.1,15.8,15.8S264.66,144.075,255.96,144.075z"/>
	</g>
</g>
<g>
	<g>
		<path d="M364.96,45.075c-60.3-60.1-157.9-60.1-218.2,0c-3.9,3.9-3.9,10.3,0.1,14.1c3.9,4,10.2,4,14.1,0.1
			c52.4-52.4,137.6-52.4,189.9,0c3.9,3.9,10.3,3.9,14.1-0.1C368.86,55.275,368.86,48.975,364.96,45.075z"/>
	</g>
</g>
<g>
	<g>
		<path d="M324.26,76.275c-37.7-37.7-98.8-37.7-136.6,0c-3.9,3.9-3.9,10.2,0,14.1c3.9,3.9,10.2,3.9,14.1,0
			c29.9-29.9,78.4-29.9,108.3,0c1.9,2,4.4,3,7.1,3c5.5,0,10-4.5,10-10C327.16,80.675,326.06,78.175,324.26,76.275z"/>
	</g>
</g>
<g>
</g>
<g>
</g>
<g>
</g>
<g>
</g>
<g>
</g>
<g>
</g>
<g>
</g>
<g>
</g>
<g>
</g>
<g>
</g>
<g>
</g>
<g>
</g>
<g>
</g>
<g>
</g>
<g>
</g>
</svg>
