<?xml version="1.0" encoding="iso-8859-1"?>
<!-- Generator: Adobe Illustrator 19.0.0, SVG Export Plug-In . SVG Version: 6.00 Build 0)  -->
<svg version="1.1" id="Capa_1"  xmlns="http://www.w3.org/2000/svg" xmlns:xlink="http://www.w3.org/1999/xlink" x="0px" y="0px"
	 viewBox="0 0 438.1 438.1" style="enable-background:new 0 0 438.1 438.1;" xml:space="preserve">
<g>
	<g>
		<path d="M414.5,287.976l-34.8-15.8l-30.7-49.3c-9.1-14.7-25.1-23.7-42.4-23.7H175.2c-15.7,0.1-30.4,7.5-39.9,20l-39.5,52
			l-66.3,18.2c-17.4,4.8-29.5,20.6-29.5,38.7v25.4c0.1,22,17.9,39.8,39.9,39.7c0.1,0,0.1,0,0.2,0H45c7.5,26.9,35.3,42.7,62.2,35.3
			c17.1-4.7,30.5-18.1,35.3-35.3h148.1c7.5,26.9,35.3,42.7,62.2,35.3c17.1-4.7,30.5-18.1,35.3-35.3h9.9c22,0.2,39.9-17.5,40.1-39.5
			c0-0.1,0-0.1,0-0.2v-29C438,308.776,428.8,294.476,414.5,287.976z M93.7,410.676c-16.9,0-30.6-13.7-30.6-30.6
			c0-16.9,13.7-30.6,30.6-30.6c16.9,0,30.6,13.7,30.6,30.6C124.3,396.976,110.6,410.676,93.7,410.676z M339.3,410.676
			c-16.9,0-30.6-13.7-30.6-30.6c0-16.9,13.7-30.6,30.6-30.6s30.6,13.7,30.6,30.6C369.9,396.976,356.2,410.576,339.3,410.676z
			 M398.1,373.176c-0.1,0-0.1,0-0.2,0h-8.5c-3.2-24-24.5-44.1-50.2-44.1s-47,20.1-50.2,44.1H143.9c-3.2-24-24.5-44.1-50.2-44.1
			s-47,20.1-50.2,44.1H40c-10.9,0.2-19.9-8.6-20.1-19.5c0-0.1,0-0.1,0-0.2v-25.4c0-9,6.1-17,14.8-19.4l69.6-19
			c2.1-0.6,4-1.8,5.3-3.6l41.6-54.8c5.7-7.5,14.5-12,23.9-12.1h131.3c10.4,0.1,20.1,5.5,25.5,14.4l32.3,51.7c1,1.7,2.5,3,4.3,3.9
			l37.5,17.1c7.2,3.3,11.8,10.4,11.8,18.3v28.9h0.2C418,364.376,409.1,373.176,398.1,373.176z"/>
	</g>
</g>
<g>
	<g>
		<path d="M239.9,100.176c-19.8,0-35.8,16-35.8,35.8s16,35.8,35.8,35.8s35.8-16,35.8-35.8S259.7,100.176,239.9,100.176z
			 M239.9,151.776c-8.7,0-15.8-7.1-15.8-15.8s7.1-15.8,15.8-15.8c8.7,0,15.8,7.1,15.8,15.8S248.6,151.776,239.9,151.776z"/>
	</g>
</g>
<g>
	<g>
		<path d="M348.9,52.876c-60.3-60.1-157.9-60.1-218.2,0c-3.9,3.9-3.9,10.2,0,14.1c4,3.9,10.3,3.9,14.2,0
			c52.4-52.4,137.6-52.4,189.9,0c3.9,3.9,10.2,3.9,14.1,0C352.8,63.076,352.8,56.776,348.9,52.876z"/>
	</g>
</g>
<g>
	<g>
		<path d="M308.2,83.976c-37.7-37.6-98.8-37.6-136.6,0c-3.9,3.9-3.9,10.3,0.1,14.1c3.9,3.9,10.2,3.9,14.1,0
			c29.9-29.8,78.4-29.8,108.3,0c1.8,1.9,4.3,3,7,3c5.5,0,10-4.5,10-10C311.1,88.376,310,85.876,308.2,83.976z"/>
	</g>
</g>
<g>
</g>
<g>
</g>
<g>
</g>
<g>
</g>
<g>
</g>
<g>
</g>
<g>
</g>
<g>
</g>
<g>
</g>
<g>
</g>
<g>
</g>
<g>
</g>
<g>
</g>
<g>
</g>
<g>
</g>
</svg>
