<?xml version="1.0" encoding="iso-8859-1"?>
<!-- Generator: Adobe Illustrator 19.0.0, SVG Export Plug-In . SVG Version: 6.00 Build 0)  -->
<svg version="1.1" id="Capa_1"  xmlns="http://www.w3.org/2000/svg" xmlns:xlink="http://www.w3.org/1999/xlink" x="0px" y="0px"
	 viewBox="0 0 462 462" style="enable-background:new 0 0 462 462;" xml:space="preserve">
<g>
	<g>
		<path d="M184.15,333h-47c-5.5,0-10,4.5-10,10v32c0,5.5,4.5,10,10,10h47c5.5,0,10-4.5,10-10v-32
			C194.15,337.5,189.65,333,184.15,333z M173.15,364h-26v-11h26V364z"/>
	</g>
</g>
<g>
	<g>
		<path d="M356.15,333h-47c-5.5,0-10,4.5-10,10v32c0,5.5,4.5,10,10,10h47c5.5,0,10-4.5,10-10v-32
			C366.15,337.5,361.65,333,356.15,333z M345.15,364h-26v-11h26V364z"/>
	</g>
</g>
<g>
	<g>
		<path d="M275.65,363h-59.5c-5.5,0-10,4.5-10,10s4.5,10,10,10h59.5c5.5,0,10-4.5,10-10S281.15,363,275.65,363z"/>
	</g>
</g>
<g>
	<g>
		<path d="M275.65,339h-59.5c-5.5,0-10,4.5-10,10s4.5,10,10,10h59.5c5.5,0,10-4.5,10-10S281.15,339,275.65,339z"/>
	</g>
</g>
<g>
	<g>
		<path d="M443.95,442h-56c3.9-5.2,6.1-11.6,6.2-18.1V335c-0.1-10.8-4.6-21.1-12.5-28.5l-5.1-4.8c0-0.1-0.1-0.1-0.1-0.2l-21.8-50.5
			c-4.7-11-15.6-18-27.5-18h-158.5c-12-0.1-22.8,7-27.5,18l-21.4,49.8l-7.8,6.6c-8.8,7.4-13.8,18.4-13.8,29.9v86.6
			c0,6.5,2,12.8,5.8,18.1h-75.8V66.8c0-25.6,21-46.8,46.6-46.8h126.8c22.5,0,41.1,16.3,45.3,37.6c-30.4,5.4-52.6,31.8-52.7,62.6v6.5
			c0.2,5.7,4.7,10.2,10.4,10.3h106.8c5.5,0,9.8-4.8,9.8-10.3v-6.5c0-31.4-22.9-58.1-54-62.9c-4.5-32.2-32.2-57.3-65.6-57.3H74.75
			c-36.6,0-66.6,30.2-66.6,66.8v384.8c0.1,5.6,4.6,10.2,10.2,10.4h425.5c5.5,0,10-4.5,10-10S449.45,442,443.95,442z M261.35,77.2
			c21.3,1.7,38.1,18.6,39.8,39.8h-86.5C216.55,93.1,237.45,75.3,261.35,77.2z M159.55,259.1c1.6-3.7,5.2-6.1,9.2-6.1h158.4
			c4,0,7.6,2.4,9.2,6.1l15.8,36.9h-4.9c-5.5-24.9-30.1-40.5-55-35c-17.5,3.9-31.1,17.5-35,35h-113.5L159.55,259.1z M326.35,296
			h-48.2c3.9-10,13.3-16.1,24.1-16.1C313.05,279.9,322.45,286,326.35,296z M153.15,423.9c0,5-3.9,9-8.9,9.1c-0.1,0-0.3,0-0.4,0
			h-16.3c-5,0.2-9.2-3.7-9.4-8.7c0-0.1,0-0.2,0-0.3v-10.2c3,0.9,6.2,1.3,9.4,1.2h25.6V423.9z M167.45,442c3.8-5.3,5.8-11.6,5.7-18.1
			V415h145v8.9c0.2,6.5,2.4,12.9,6.3,18.1H167.45z M374.15,423.9c0,5.2-4.6,9.1-9.8,9.1h-16.3c-5.2,0-9.9-3.8-9.9-9.1V415h26.2
			c3.3,0.1,6.6-0.3,9.8-1.2V423.9z M374.25,385.9c0,5.2-4.6,9.1-9.8,9.1h-236.9c-5,0.2-9.3-3.8-9.4-8.8c0-0.1,0-0.2,0-0.3v-48.6
			c0-5.6,2.5-10.9,6.8-14.5l8.3-6.8h228.8l6,5.3c3.9,3.5,6.1,8.5,6.2,13.8V385.9z"/>
	</g>
</g>
<g>
	<g>
		<path d="M258.15,143.6c-5.5,0-10,4.5-10,10v16c0,5.5,4.5,10,10,10s10-4.5,10-10v-16C268.15,148.1,263.65,143.6,258.15,143.6z"/>
	</g>
</g>
<g>
	<g>
		<path d="M303.15,143.6c-5.5,0-10,4.5-10,10v16c0,5.5,4.5,10,10,10s10-4.5,10-10v-16C313.15,148.1,308.65,143.6,303.15,143.6z"/>
	</g>
</g>
<g>
	<g>
		<path d="M212.15,143.6c-5.5,0-10,4.5-10,10v16c0,5.5,4.5,10,10,10s10-4.5,10-10v-16C222.15,148.1,217.65,143.6,212.15,143.6z"/>
	</g>
</g>
<g>
	<g>
		<path d="M258.15,188.6c-5.5,0-10,4.5-10,10v16c0,5.5,4.5,10,10,10s10-4.5,10-10v-16C268.15,193,263.65,188.6,258.15,188.6z"/>
	</g>
</g>
<g>
	<g>
		<path d="M303.15,188.6c-5.5,0-10,4.5-10,10v16c0,5.5,4.5,10,10,10s10-4.5,10-10v-16C313.15,193,308.65,188.6,303.15,188.6z"/>
	</g>
</g>
<g>
	<g>
		<path d="M212.15,188.6c-5.5,0-10,4.5-10,10v16c0,5.5,4.5,10,10,10s10-4.5,10-10v-16C222.15,193,217.65,188.6,212.15,188.6z"/>
	</g>
</g>
<g>
</g>
<g>
</g>
<g>
</g>
<g>
</g>
<g>
</g>
<g>
</g>
<g>
</g>
<g>
</g>
<g>
</g>
<g>
</g>
<g>
</g>
<g>
</g>
<g>
</g>
<g>
</g>
<g>
</g>
</svg>
