<?xml version="1.0" encoding="iso-8859-1"?>
<!-- Generator: Adobe Illustrator 19.0.0, SVG Export Plug-In . SVG Version: 6.00 Build 0)  -->
<svg version="1.1" id="Capa_1"  xmlns="http://www.w3.org/2000/svg" xmlns:xlink="http://www.w3.org/1999/xlink" x="0px" y="0px"
	 viewBox="0 0 466 466" style="enable-background:new 0 0 466 466;" xml:space="preserve">
<g>
	<g>
		<path d="M448.7,446.2h-85.8c9.9-5,17.5-13.6,21.1-24h3.1c17.8,0,32.1-14.9,32.1-32.7v-45.3c0-8.9-3.6-17.5-10.1-23.6l-48.5-45.5
			c-5.9-5.7-13.8-8.8-22-8.9h-9.4v-8h8.5c5.5,0,10-4.5,10-10s-4.5-10-10-10h-107c-5.5,0-10,4.5-10,10s4.5,10,10,10h9.4v8h-9.8
			c-9,0.1-17.5,3.9-23.6,10.4l-41,43.7c-2.3,2.5-5.6,3.8-9,3.8h-36.8c-26,0-46.9,21.5-46.9,47.5v17.8c0,17.8,14.2,32.7,32,32.7h3.5
			c3.7,10.4,11.3,19,21.1,24H27.2V66.8c0-26,21.6-46.7,47.6-46.7h128.4c22.5-0.1,41.9,15.8,46.2,37.8c-30.7,5.2-53.2,31.8-53.2,62.9
			v6.6c0,5.4,4.4,9.7,9.8,9.7c0.1,0,0.1,0,0.2,0h108.2c5.3,0.1,9.6-4,9.8-9.3c0-0.1,0-0.3,0-0.4v-6.6c0-31.7-23.3-58.6-54.6-63.2
			C265,24.5,236.6,0,203.2,0H74.8C37.8,0,7.2,29.7,7.2,66.7v389.8c0,5.5,4.9,9.5,10.5,9.5h431.1c5.5,0,10-4.5,10-10
			S454.3,446.2,448.7,446.2z M260.4,76.5c23.2,0,42.1,18.7,43.9,40.7h-87.9C218.2,95.2,237.2,76.5,260.4,76.5z M399.2,389.5
			c0,6.8-5.3,12.7-12.1,12.7h-1.8c-4.1-22.8-25.9-38-48.7-33.9c-17.3,3.1-30.8,16.6-33.9,33.9h-26.5v-58h123V389.5z M338.6,286.2
			c3.1,0,6.1,1.2,8.4,3.3l37.1,34.7h-42.2l-17.6-38H338.6z M276.2,324.2v-38h26l17.6,38H276.2z M260.2,258.2h49v8h-49V258.2z
			 M221.4,290.1c2.3-2.5,5.6-3.9,9-3.9h25.8v38h-66.6L221.4,290.1z M107.4,402.2h-2.2c-6.8,0-12-5.9-12-12.7v-17.8
			c0-15,11.9-27.5,26.9-27.5h36.8c0.8,0.1,1.6,0.2,2.3,0.2v-0.2h97v58H190c-4.1-22.8-25.9-38-48.7-33.9
			C124,371.4,110.5,384.9,107.4,402.2z M148.7,431.1c-12.1,0-21.9-9.8-21.9-21.9c0-12.1,9.8-21.9,21.9-21.9
			c12.1,0,21.9,9.8,21.9,21.9S160.8,431.1,148.7,431.1z M167.6,446.2c9.8-5,17.4-13.6,21.1-24H304c3.7,10.4,11.3,19,21.1,24H167.6z
			 M344.1,431.2c-12.1,0-21.9-9.8-21.9-21.9c0-12.1,9.8-21.9,21.9-21.9s21.9,9.8,21.9,21.9C366,421.3,356.2,431.1,344.1,431.2z"/>
	</g>
</g>
<g>
	<g>
		<path d="M260.2,144.8c-5.5,0-10,4.5-10,10V171c0,5.5,4.5,10,10,10s10-4.5,10-10v-16.2C270.2,149.3,265.7,144.8,260.2,144.8z"/>
	</g>
</g>
<g>
	<g>
		<path d="M306.2,144.8c-5.5,0-10,4.5-10,10V171c0,5.5,4.5,10,10,10s10-4.5,10-10v-16.2C316.2,149.3,311.7,144.8,306.2,144.8z"/>
	</g>
</g>
<g>
	<g>
		<path d="M214.2,144.8c-5.5,0-10,4.5-10,10V171c0,5.5,4.5,10,10,10s10-4.5,10-10v-16.2C224.2,149.3,219.7,144.8,214.2,144.8z"/>
	</g>
</g>
<g>
	<g>
		<path d="M260.2,190.3c-5.5,0-10,4.5-10,10v16.2c0,5.5,4.5,10,10,10s10-4.5,10-10v-16.2C270.2,194.8,265.7,190.3,260.2,190.3z"/>
	</g>
</g>
<g>
	<g>
		<path d="M306.2,190.3c-5.5,0-10,4.5-10,10v16.2c0,5.5,4.5,10,10,10s10-4.5,10-10v-16.2C316.2,194.8,311.7,190.3,306.2,190.3z"/>
	</g>
</g>
<g>
	<g>
		<path d="M214.2,190.3c-5.5,0-10,4.5-10,10v16.2c0,5.5,4.5,10,10,10s10-4.5,10-10v-16.2C224.2,194.8,219.7,190.3,214.2,190.3z"/>
	</g>
</g>
<g>
</g>
<g>
</g>
<g>
</g>
<g>
</g>
<g>
</g>
<g>
</g>
<g>
</g>
<g>
</g>
<g>
</g>
<g>
</g>
<g>
</g>
<g>
</g>
<g>
</g>
<g>
</g>
<g>
</g>
</svg>
