<?xml version="1.0" encoding="iso-8859-1"?>
<!-- Generator: Adobe Illustrator 19.0.0, SVG Export Plug-In . SVG Version: 6.00 Build 0)  -->
<svg version="1.1" id="Capa_1"  xmlns="http://www.w3.org/2000/svg" xmlns:xlink="http://www.w3.org/1999/xlink" x="0px" y="0px"
	 viewBox="0 0 436 436" style="enable-background:new 0 0 436 436;" xml:space="preserve">
<g>
	<g>
		<path d="M421.5,235.924l-27.1-11.6l-27-52.5c-4.2-8.1-12.5-13.1-21.5-13.1h-43.1c-13.2,0.1-23.9,10.8-23.8,24v0.1v67.9h-31v-24
			c-0.1-5.6-4.6-10-10.2-10h-19.5l-19.2-102.3c-0.5-2.5-1.8-4.6-3.8-6.1l-93.4-69.8c-1.8-1.2-3.9-1.8-6-1.8H58.8
			c-4-0.1-7.7,2.3-9.3,6c-1.4,3.3-0.8,7,1.5,9.8v75.8c0,5.5,4.5,10,10,10c4.6,0,8,3.1,8,7.5c0,4.3-3.5,7.5-8.1,7.5
			c-4.1,0-8-4.4-8-9.1c0-5.5-4.5-10-10-10s-10,4.5-10,10c0,15.8,12.8,29.1,28,29.1c15.8,0,28.1-12.1,28.1-27.5
			c0.1-11.5-7.1-21.8-18-25.7v-48.1l49.6,47.7l-18.3,97H81.6c-5.5,0-9.6,4.5-9.6,10v24H9.9c-5.4-0.1-9.8,4.2-9.9,9.5
			c0,0.1,0,0.1,0,0.2v85.2c0,5.5,4.4,10,9.9,10.1h24.3c2.2,26.1,25.1,45.5,51.3,43.4c23.1-1.9,41.4-20.3,43.4-43.4h177.8
			c2.2,26.1,25.1,45.5,51.3,43.4c23.1-1.9,41.4-20.3,43.4-43.4H412c13.3,0,24-10.8,24-24.1v-73.6
			C436,248.424,430.3,239.724,421.5,235.924z M83.6,56.724h9l87.6,65.5l17.8,94.5h-75.3l18.6-98.5c0.6-3.3-0.5-6.6-3-8.9
			L83.6,56.724z M92,236.724h136v14H92V236.724z M81.6,379.224c-15.2,0-27.5-12.3-27.5-27.5s12.3-27.5,27.5-27.5
			s27.5,12.3,27.5,27.5S96.8,379.124,81.6,379.224z M279,335.724H126.3c-6.6-18-24.1-31.5-44.7-31.5c-20.6,0-38.1,13.5-44.7,31.5H20
			v-65h259V335.724z M299,182.824c-0.1-2.1,1.5-4,3.7-4.1h0.1h43.1c1.5-0.1,2.9,0.7,3.6,2l21.2,41H299V182.824z M354,379.224
			c-15.2,0-27.5-12.3-27.5-27.5s12.3-27.5,27.5-27.5s27.5,12.3,27.5,27.5S369.2,379.124,354,379.224z M416,331.624
			c0,2.2-1.8,4.1-4,4.1h-13.3c-6.6-18-24.1-31.5-44.7-31.5s-38.1,13.5-44.7,31.5H299v-94h86.1l28.5,12.4c1.5,0.7,2.4,2.2,2.4,3.9
			V331.624z"/>
	</g>
</g>
<g>
</g>
<g>
</g>
<g>
</g>
<g>
</g>
<g>
</g>
<g>
</g>
<g>
</g>
<g>
</g>
<g>
</g>
<g>
</g>
<g>
</g>
<g>
</g>
<g>
</g>
<g>
</g>
<g>
</g>
</svg>
