<?xml version="1.0" encoding="iso-8859-1"?>
<!-- Generator: Adobe Illustrator 19.0.0, SVG Export Plug-In . SVG Version: 6.00 Build 0)  -->
<svg version="1.1" id="Capa_1"  xmlns="http://www.w3.org/2000/svg" xmlns:xlink="http://www.w3.org/1999/xlink" x="0px" y="0px"
	 viewBox="0 0 484 484" style="enable-background:new 0 0 484 484;" xml:space="preserve">
<g>
	<g>
		<path d="M470.7,285.226l-69-64.3c-7.7-7.2-17.9-11.2-28.4-11.2h-18.2v-27H372c5.5,0,10-4.5,10-10s-4.5-10-10-10H220.2
			c-5.5,0-10,4.5-10,10s4.5,10,10,10h16.9v27h-17.4c-11.5,0-22.5,4.8-30.4,13.1l-58.2,62.1c-4.1,4.3-9.8,6.8-15.8,6.8H63.1
			c-34.6,0-63.1,28.3-63.1,62.8v25.3c0.2,23.1,18.9,41.8,42,41.9h8.1c7.6,29.6,37.7,47.5,67.3,39.9c19.6-5,34.9-20.3,39.9-39.9h170
			c7.6,29.6,37.7,47.5,67.3,39.9c19.6-5,34.9-20.3,39.9-39.9h7.5c23.1-0.1,41.8-18.8,42-41.9v-64.3
			C484,304.026,479.2,293.026,470.7,285.226z M373.3,229.726c5.4,0,10.7,2,14.7,5.7l60.4,56.3h-73.1l-28.9-62H373.3z M353.2,291.726
			h-73.1v-62h44.2L353.2,291.726z M257.1,182.726h78v27h-78V182.726z M203.9,236.426c4.1-4.3,9.8-6.8,15.8-6.7h40.4v62h-108
			L203.9,236.426z M103.7,443.126c-19.5,0-35.3-15.8-35.3-35.3s15.8-35.3,35.3-35.3s35.3,15.8,35.3,35.3
			C139.1,427.326,123.2,443.126,103.7,443.126z M260.2,401.726H158.7c-3.1-28-26.8-49.1-55-49c-28.2-0.1-51.9,21-55,49h-6.6
			c-12.1-0.1-21.8-9.8-22-21.9v-25.3c0-23.5,19.5-42.8,43.1-42.8h52.2c1.2,0,2.8,0.1,3.8,0h141V401.726z M381,443.126
			c-19.5,0-35.3-15.8-35.3-35.3s15.8-35.3,35.3-35.3s35.3,15.8,35.3,35.3S400.5,443.126,381,443.126z M464.1,379.826
			c-0.2,12.1-9.9,21.8-22,21.9h-6.2c-3.5-30.4-30.9-52.1-61.3-48.7c-25.6,2.9-45.7,23.1-48.7,48.7h-45.8v-90h183.3
			c0.4,1.3,0.6,2.6,0.7,3.9V379.826z"/>
	</g>
</g>
<g>
	<g>
		<path d="M405.4,79.526c5.5,0.5,10.3-3.6,10.8-9.1c0.1-1.2,0-2.4-0.4-3.6c-3.9-13.8-12.4-25.9-24.1-34.2
			c-11.1-7.8-24.8-11.9-39.6-12c-28.1,0-51,14.2-61.3,39.2H189.7c-12.3-21-35-34.1-58.4-34.1c-15.2,0-29,4.2-39.9,12.2
			c-11.7,8.7-19.8,21.6-23.4,37.3c-1.2,5.4,2.1,10.7,7.5,11.9c1,0.2,2,0.3,3,0.2l33.1-2.6c2.5,5.6,2.5,12,0,17.6l-33.2-2.7
			c-5.5-0.5-10.3,3.6-10.8,9.1c-0.1,1.2,0,2.4,0.4,3.6c3.9,13.8,12.4,25.9,24.1,34.2c11.2,7.8,24.9,12,39.7,12
			c28.1,0,51-14.9,61.3-38.9h100.7c10.6,17,31.3,33.6,57.5,33.6c0.2,0,0.4,0,0.6,0c15.1,0,28.9-4.2,39.9-12.3
			c11.7-8.6,20-21.3,23.9-36.8c1.3-5.4-1.9-10.8-7.3-12.1c-1-0.3-2.1-0.4-3.2-0.3l-33.1,2.6c-2.5-5.6-2.5-12,0-17.6L405.4,79.526z
			 M358.8,110.826c2.1,2.6,5.3,4,8.6,3.8l23.2-1.8c-7.8,13.1-21.4,20.3-38.9,20.3c-20.5,0.2-36.7-14.3-43-27.8
			c-1.7-3.5-5.2-5.7-9.1-5.7H186.1c-4.4,0-8.3,2.9-9.6,7.1c-5.9,19.6-23.1,31.8-44.7,31.8c-15.9,0-29.4-6.5-37.6-17.6l22,1.8
			c3.4,0.3,6.7-1.2,8.8-3.9l0.2-0.3c11.3-14.8,11.2-35.4-0.3-50.3c-2.1-2.7-5.3-4.2-8.7-3.9l-23.6,1.8c7.6-13.4,21.1-20.8,38.7-20.8
			c17.7,0,35.5,11.8,43.4,28.4c1.6,3.5,5.1,5.8,9,5.9h114.1c4.4-0.1,8.3-3.1,9.6-7.3c5.9-19.6,23.1-32,44.6-32
			c15.9,0.1,29.2,6.6,37.5,17.7l-22-1.9c-3.4-0.3-6.7,1.2-8.8,3.9l-0.2,0.3C347.1,75.326,347.3,96.026,358.8,110.826z"/>
	</g>
</g>
<g>
</g>
<g>
</g>
<g>
</g>
<g>
</g>
<g>
</g>
<g>
</g>
<g>
</g>
<g>
</g>
<g>
</g>
<g>
</g>
<g>
</g>
<g>
</g>
<g>
</g>
<g>
</g>
<g>
</g>
</svg>
