<?xml version="1.0" encoding="iso-8859-1"?>
<!-- Generator: Adobe Illustrator 19.0.0, SVG Export Plug-In . SVG Version: 6.00 Build 0)  -->
<svg version="1.1" id="Capa_1"  xmlns="http://www.w3.org/2000/svg" xmlns:xlink="http://www.w3.org/1999/xlink" x="0px" y="0px"
	 viewBox="0 0 416.834 416.834" style="enable-background:new 0 0 416.834 416.834;" xml:space="preserve">
<g>
	<g>
		<path d="M414.367,123.088v-65.7c-0.1-3.8-2.1-7.2-5.4-8.9l-88.8-47.3c-3-1.6-6.6-1.6-9.5,0.1l-86.3,47.3c-3.2,1.8-5.1,5.1-5,8.8
			v67c-0.1,16.8,3,33.5,9,49.3h-43.8c-5.5,0-10,4.5-10,10s4.5,10,10,10h11.8v12h-12.3c-9.9,0.1-19.4,4.2-26.2,11.5l-47.7,51.2
			c-3,3.3-7.2,5.2-11.6,5.3h-42.7c-29.3,0-53.4,23.5-53.4,52.8v20.7c0,19.8,16.4,35.5,36.2,35.5h5.2c7.2,25,33.3,39.5,58.3,32.3
			c15.6-4.5,27.8-16.7,32.3-32.3h136.6c7.2,25,33.3,39.5,58.3,32.3c15.6-4.5,27.8-16.7,32.3-32.3h4.8c19.8,0,36-15.7,36-35.5v-52.7
			c0-10-4.2-19.4-11.5-26.2l-36.3-34C391.867,209.488,414.367,167.788,414.367,123.088z M89.067,397.188c-15,0-27.1-12.2-27.1-27.1
			c0-15,12.2-27.1,27.1-27.1c15,0,27.1,12.2,27.1,27.1C116.167,384.988,104.067,397.088,89.067,397.188z M215.367,362.588h-79.7
			c-3.4-22-23-40.2-46.6-40.2c-23.6,0-43.2,18.2-46.6,40.2h-3.9c-8.8,0-16.2-6.7-16.2-15.5v-20.7c0-18.3,15.1-32.8,33.4-32.8h42.7
			c0.7,0,1.3,0,2-0.1c0.4,0,0.7,0.1,1.1,0.1h113.8V362.588z M215.367,273.588h-82.5l39.6-42.6c3-3.3,7.2-5.2,11.6-5.4h31.3V273.588z
			 M216.367,193.588h21.9c2.6,4,5.5,8,8.6,12h-30.5V193.588z M265.967,225.588c1.9,1.9,3.9,3.6,6,5.1l18.9,42.9h-55.5v-48H265.967z
			 M316.267,397.188c-15,0-27.1-12.2-27.1-27.1c0-15,12.2-27.1,27.1-27.1s27.1,12.2,27.1,27.1
			C343.367,384.988,331.267,397.088,316.267,397.188z M382.267,294.488v52.6h0.1c0,8.8-7.2,15.5-16,15.5h-3.5
			c-3.4-22-23-40.2-46.6-40.2s-43.2,18.2-46.6,40.2h-34.3v-69h70.9h75.8C382.167,293.888,382.267,294.188,382.267,294.488z
			 M366.867,273.588h-54.1l-11.4-25.8l9.6,4.1c2.6,1.1,5.4,1,8-0.1l13.5-5.8c1.2-0.5,2.4-0.9,3.6-1.4L366.867,273.588z
			 M324.767,227.588h-0.1l-9.6,4.1l-7.8-3.5c-41.3-18.1-67.9-58.8-67.9-103.9v-61l76.3-41.9l78.7,42v59.7
			C394.267,168.788,366.867,209.888,324.767,227.588z"/>
	</g>
</g>
<g>
	<g>
		<path d="M364.767,100.988c-3.5-4.2-9.7-4.8-14-1.4l-46.8,38.1l-17-19.9c-3.6-4.2-9.9-4.8-14.1-1.2c-4.2,3.6-4.8,9.9-1.2,14.1
			l0.1,0.1l23.3,27.3c0.1,0.1,0.2,0.2,0.3,0.3c0.1,0.1,0.2,0.3,0.4,0.4c0.2,0.1,0.3,0.3,0.4,0.4c0.1,0.1,0.3,0.2,0.4,0.3
			c0.1,0.1,0.3,0.2,0.5,0.3c0.1,0.1,0.3,0.2,0.4,0.3c0.2,0.1,0.3,0.2,0.5,0.3c0.1,0.1,0.3,0.2,0.4,0.2c0.2,0.1,0.4,0.2,0.6,0.2
			c0.1,0.1,0.3,0.1,0.4,0.2c0.2,0.1,0.4,0.1,0.6,0.2c0.1,0,0.3,0.1,0.4,0.1c0.2,0,0.4,0.1,0.6,0.1c0.1,0,0.3,0.1,0.4,0.1
			c0.3,0,0.5,0,0.8,0c0.1,0,0.2,0,0.3,0c0.3,0,0.6,0,0.9,0c0.1,0,0.1,0,0.2,0c0.2,0,0.5-0.1,0.7-0.1c0.1,0,0.2,0,0.3-0.1
			c0.2,0,0.4-0.1,0.6-0.1c0.1,0,0.2-0.1,0.3-0.1c0.2,0,0.3-0.1,0.5-0.2c0.1,0,0.2-0.1,0.4-0.1c0.1-0.1,0.3-0.1,0.4-0.2
			c0.1-0.1,0.3-0.1,0.4-0.2c0.1-0.1,0.3-0.1,0.4-0.2c0.1-0.1,0.3-0.2,0.4-0.2c0.1-0.1,0.2-0.2,0.4-0.2s0.2-0.2,0.4-0.3
			c0.1-0.1,0.2-0.1,0.3-0.2l54.4-44.2C367.767,111.588,368.367,105.288,364.767,100.988z"/>
	</g>
</g>
<g>
</g>
<g>
</g>
<g>
</g>
<g>
</g>
<g>
</g>
<g>
</g>
<g>
</g>
<g>
</g>
<g>
</g>
<g>
</g>
<g>
</g>
<g>
</g>
<g>
</g>
<g>
</g>
<g>
</g>
</svg>
