<?xml version="1.0" encoding="iso-8859-1"?>
<!-- Generator: Adobe Illustrator 19.0.0, SVG Export Plug-In . SVG Version: 6.00 Build 0)  -->
<svg version="1.1" id="Capa_1"  xmlns="http://www.w3.org/2000/svg" xmlns:xlink="http://www.w3.org/1999/xlink" x="0px" y="0px"
	 viewBox="0 0 445.685 445.685" style="enable-background:new 0 0 445.685 445.685;" xml:space="preserve">
<g>
	<g>
		<path d="M412.433,264.185l-6.8-6.4c-0.1-0.2-0.1-0.5-0.2-0.7l-27.5-64.1c-5.6-12.9-18.3-21.3-32.4-21.3h-97.4
			c28.3-60.1,2.5-131.9-57.6-160.2c-60.1-28.3-131.9-2.5-160.2,57.6c-28.3,60.1-2.5,131.9,57.6,160.2c2.6,1.2,5.2,2.4,7.9,3.4
			l-10.3,23.9l-10.2,8.8c-10.5,8.9-16.5,22-16.4,35.8v109.5c0,19.1,15.2,35,34.3,35h20.5c19.1,0,35.1-15.9,35.1-35v-13h188v13
			c0.1,19.3,15.7,34.9,35,35h20.5c19.1,0,34.5-15.9,34.5-35v-112.3C427.033,285.485,421.733,273.085,412.433,264.185z
			 M345.533,191.685c6.1-0.1,11.6,3.4,14,9l21.5,50h-12.3c-5.5-30.2-34.5-50.2-64.7-44.7c-22.8,4.2-40.6,22-44.7,44.7h-149.6
			l5.4-12.5c8,1.7,16,2.6,24.1,2.6c38.3,0.1,74.4-18.2,97-49.1H345.533z M348.233,250.685h-68.4c4.3-14,18-25.6,34.2-25.6
			S343.933,236.685,348.233,250.685z M38.833,120.385c0-55.4,44.9-100.4,100.4-100.4s100.4,44.9,100.4,100.4s-45,100.4-100.4,100.4
			C83.833,220.685,38.933,175.785,38.833,120.385z M129.033,410.685c-0.2,8.3-6.9,14.9-15.1,15h-20.5c-8.1,0-14.3-7-14.3-15v-16.7
			c4.4,2.4,9.3,3.6,14.3,3.7h35.6V410.685z M407.033,410.685c0,8-6.4,15-14.5,15h-20.5c-8.2-0.2-14.8-6.8-15-15v-13h35.5
			c5.1-0.1,10-1.4,14.5-3.7V410.685z M407.133,362.585c0,8.1-6.4,15.1-14.5,15.1h-299.3c-8.1,0-14.3-7-14.3-15.1v-61.4
			c-0.1-8,3.3-15.5,9.4-20.8l11.1-9.7h291.1l8.1,7.9c5.4,5.2,8.4,12.3,8.4,19.8V362.585z"/>
	</g>
</g>
<g>
	<g>
		<path d="M164.033,297.685h-59c-5.5,0-10,4.5-10,10v40c0,5.5,4.5,10,10,10h59c5.5,0,10-4.5,10-10v-40
			C174.033,302.185,169.533,297.685,164.033,297.685z M154.033,337.685h-39v-20h39V337.685z"/>
	</g>
</g>
<g>
	<g>
		<path d="M381.033,297.685h-59c-5.5,0-10,4.5-10,10v40c0,5.5,4.5,10,10,10h59c5.5,0,10-4.5,10-10v-40
			C391.033,302.185,386.533,297.685,381.033,297.685z M371.033,337.685h-39v-20h39V337.685z"/>
	</g>
</g>
<g>
	<g>
		<path d="M280.533,336.685h-75.2c-5.5,0-10,4.5-10,10s4.5,10,10,10h75.2c5.5,0,10-4.5,10-10S286.033,336.685,280.533,336.685z"/>
	</g>
</g>
<g>
	<g>
		<path d="M280.533,305.685h-75.2c-5.5,0-10,4.5-10,10s4.5,10,10,10h75.2c5.5,0,10-4.5,10-10S286.033,305.685,280.533,305.685z"/>
	</g>
</g>
<g>
	<g>
		<path d="M204.233,68.685c-2.4-3.2-6.5-4.7-10.4-3.8l-130.8,31.7c-5.4,1.3-8.7,6.7-7.4,12.1c0.7,2.7,2.4,5,4.8,6.4l46.4,26l11.5,52
			c1.2,5.4,6.5,8.8,11.9,7.6c2.7-0.6,5.1-2.3,6.5-4.7l68.1-116.3C206.833,76.285,206.633,71.885,204.233,68.685z M114.833,122.585
			l-22.4-12.5l57.2-13.8L114.833,122.585z M132.433,163.785l-5.6-25.2l36.5-27.7L132.433,163.785z"/>
	</g>
</g>
<g>
</g>
<g>
</g>
<g>
</g>
<g>
</g>
<g>
</g>
<g>
</g>
<g>
</g>
<g>
</g>
<g>
</g>
<g>
</g>
<g>
</g>
<g>
</g>
<g>
</g>
<g>
</g>
<g>
</g>
</svg>
