<?xml version="1.0" encoding="iso-8859-1"?>
<!-- Generator: Adobe Illustrator 19.0.0, SVG Export Plug-In . SVG Version: 6.00 Build 0)  -->
<svg version="1.1" id="Capa_1"  xmlns="http://www.w3.org/2000/svg" xmlns:xlink="http://www.w3.org/1999/xlink" x="0px" y="0px"
	 viewBox="0 0 423.9 423.9" style="enable-background:new 0 0 423.9 423.9;" xml:space="preserve">
<g>
	<g>
		<path d="M370.8,274.377c0-0.2,0-0.2,0-0.2H328c-4.4-0.1-8.6-2-11.6-5.2l-47.7-51.2c-6.8-7.3-16.3-11.5-26.2-11.6h-31.8
			c19.4-21.9,30.2-50.1,30.1-79.4c0-66.4-54-120.3-120.4-120.3S0,60.577,0,126.877c0,47.1,27.5,89.8,70.3,109.5l-34.8,32.5
			c-7.3,6.8-11.5,16.3-11.6,26.3v52.7c0,19.8,16.4,35.4,36.2,35.4h4.8c7.2,25,33.3,39.5,58.3,32.3c15.6-4.5,27.8-16.7,32.3-32.3
			h136.6c7.2,25,33.3,39.5,58.3,32.3c15.6-4.5,27.8-16.7,32.3-32.3h5.2c19.8,0,36-15.6,36-35.4v-20.7
			C423.8,297.877,400,274.277,370.8,274.377z M91.7,243.977c9.4,2.3,19,3.4,28.7,3.3c2,0,3.9,0.1,5.9,0l-12.4,26.9H59.7
			L91.7,243.977z M110.3,397.777c-15,0-27.1-12.2-27.1-27.1s12.2-27.1,27.1-27.1c14.9,0,27.1,12.2,27.1,27.1
			C137.5,385.577,125.3,397.777,110.3,397.777z M191,363.177h-34c-3.4-22-23-40.2-46.6-40.2c-23.6,0-43.3,18.2-46.7,40.2h-3.5
			c-8.7,0-16.2-6.7-16.2-15.4v-52.7c0-0.3,0.2-0.7,0.4-0.9H191V363.177z M191,274.177h-55.1l14-30.5c13.7-3.5,26.6-9.4,38.1-17.5h3
			V274.177z M120.4,227.377c-55.4-0.1-100.3-45-100.4-100.4c0-55.4,44.9-100.4,100.4-100.4s100.4,44.9,100.4,100.4
			C220.8,182.377,175.9,227.377,120.4,227.377z M211,226.177h31.5c4.4,0.1,8.6,2.1,11.6,5.4l39.6,42.6H211V226.177z M337.5,397.777
			c-15,0-27.1-12.2-27.1-27.1s12.2-27.1,27.1-27.1s27.1,12.2,27.1,27.1C364.6,385.577,352.5,397.777,337.5,397.777z M404,326.977
			v20.8c0,8.8-7.2,15.4-16,15.4h-3.9c-3.4-22-23-40.2-46.6-40.2s-43.2,18.2-46.6,40.2H211v-69h114c0.4,0,0.7,0,1.1-0.1
			c0.7,0,1.3,0.1,2,0.1h42.7c18.2-0.1,33.1,14.5,33.2,32.7V326.977z"/>
	</g>
</g>
<g>
	<g>
		<path d="M185.4,75.177c-2.4-3.2-6.5-4.7-10.4-3.8l-130.8,31.7c-5.4,1.3-8.7,6.7-7.4,12.1c0.7,2.7,2.4,5,4.8,6.4l46.4,26l11.5,52
			c1.2,5.4,6.5,8.8,11.9,7.6c2.7-0.6,5.1-2.3,6.5-4.7l68-116.2C188,82.777,187.8,78.477,185.4,75.177z M96.1,129.077l-22.4-12.5
			l57.2-13.8L96.1,129.077z M113.6,170.277l-5.6-25.2l36.5-27.7L113.6,170.277z"/>
	</g>
</g>
<g>
</g>
<g>
</g>
<g>
</g>
<g>
</g>
<g>
</g>
<g>
</g>
<g>
</g>
<g>
</g>
<g>
</g>
<g>
</g>
<g>
</g>
<g>
</g>
<g>
</g>
<g>
</g>
<g>
</g>
</svg>
