<?xml version="1.0" encoding="iso-8859-1"?>
<!-- Generator: Adobe Illustrator 19.0.0, SVG Export Plug-In . SVG Version: 6.00 Build 0)  -->
<svg version="1.1" id="Capa_1"  xmlns="http://www.w3.org/2000/svg" xmlns:xlink="http://www.w3.org/1999/xlink" x="0px" y="0px"
	 viewBox="0 0 442.039 442.039" style="enable-background:new 0 0 442.039 442.039;" xml:space="preserve">
<g>
	<g>
		<path d="M412.539,282.052l-65.9-18l-39.3-51.5c-9.5-12.3-24.1-19.6-39.7-19.6h-39.3c29.4-59.6,4.9-131.8-54.7-161.2
			c-59.6-29.4-131.8-4.9-161.2,54.7c-29.4,59.6-4.9,131.8,54.7,161.2c2.1,1,4.1,2,6.3,2.9l-9.1,14.4l-34.3,15.7
			c-14.2,6.5-23.2,20.7-23.1,36.3v28.8c0,22,17.4,40.1,39.4,40.1h9.8c7.4,26.8,35.2,42.5,62,35c17-4.7,30.3-18,35-35h147.1
			c7.4,26.8,35.2,42.5,62,35c17-4.7,30.3-18,35-35h4.8c22.1-0.1,39.9-18.1,40-40.1v-25.2
			C441.839,302.552,429.839,286.852,412.539,282.052z M20.039,139.752c0-55.4,44.9-100.4,100.4-100.4s100.3,44.9,100.3,100.4
			s-44.9,100.3-100.3,100.3C65.039,240.052,20.139,195.152,20.039,139.752z M104.639,402.552c-16.8,0-30.3-13.6-30.3-30.3
			c0-16.8,13.6-30.3,30.3-30.3c16.7,0,30.3,13.6,30.3,30.3S121.339,402.552,104.639,402.552z M348.639,402.552
			c-16.8,0-30.3-13.6-30.3-30.3c0-16.8,13.6-30.3,30.3-30.3c16.8,0,30.3,13.6,30.3,30.3S365.439,402.552,348.639,402.552z
			 M421.939,345.852c0,11-8.9,20-20,20.1h-3.4c-3.6-27.6-28.8-47-56.4-43.4c-22.6,2.9-40.5,20.8-43.4,43.4h-144.2
			c-3.6-27.6-28.8-47-56.4-43.4c-22.6,2.9-40.5,20.8-43.4,43.4h-8.4c-11,0-19.4-9.2-19.4-20.1v-28.9c-0.1-7.8,4.4-14.8,11.4-18.1
			l37.1-16.9c1.8-0.8,3.3-2.1,4.3-3.8l13.3-21.2c46,10.8,94.2-6.4,122.9-44h51.8c9.3,0,18.1,4.3,23.7,11.7l41.3,54.2
			c1.3,1.7,3.2,3,5.3,3.6l69.2,18.9c8.6,2.4,14.7,10.2,14.7,19.2V345.852z"/>
	</g>
</g>
<g>
	<g>
		<path d="M185.439,87.952c-2.4-3.2-6.5-4.7-10.4-3.8l-130.8,31.7c-5.4,1.3-8.7,6.7-7.4,12.1c0.7,2.7,2.4,5,4.8,6.4l46.4,26l11.5,52
			c1.2,5.4,6.5,8.8,11.9,7.6c2.7-0.6,5.1-2.3,6.5-4.7l68.1-116.2C188.039,95.552,187.839,91.252,185.439,87.952z M96.039,141.852
			l-22.4-12.5l57.2-13.8L96.039,141.852z M113.639,183.052l-5.6-25.2l36.5-27.7L113.639,183.052z"/>
	</g>
</g>
<g>
</g>
<g>
</g>
<g>
</g>
<g>
</g>
<g>
</g>
<g>
</g>
<g>
</g>
<g>
</g>
<g>
</g>
<g>
</g>
<g>
</g>
<g>
</g>
<g>
</g>
<g>
</g>
<g>
</g>
</svg>
