<?xml version="1.0" encoding="iso-8859-1"?>
<!-- Generator: Adobe Illustrator 19.0.0, SVG Export Plug-In . SVG Version: 6.00 Build 0)  -->
<svg version="1.1" id="Capa_1"  xmlns="http://www.w3.org/2000/svg" xmlns:xlink="http://www.w3.org/1999/xlink" x="0px" y="0px"
	 viewBox="0 0 398.33 398.33" style="enable-background:new 0 0 398.33 398.33;" xml:space="preserve">
<g>
	<g>
		<path d="M386.202,106.329l-86.9-86.9c-11.1-11.2-27.6-15-42.5-9.9l-53.9,18.3c-13.7,4.7-24.5,15.5-29.1,29.2l-43,127.7
			c-1.2,3.6-0.3,7.6,2.4,10.3l8.4,8.4l-138,137.8c-1.8,1.8-2.9,4.3-2.9,6.8l-0.7,32.4c-0.1,5.6,4.4,10.2,10,10.3l65.4,0.3
			c4.9,0,9.1-3.6,9.9-8.5l5.3-31.7l30.5-4.3c5-0.7,8.7-5,8.6-10.1l-0.5-27.6l12.3-12.3l17.7-5.9c1.5-0.5,2.8-1.3,3.9-2.4l31.8-31.8
			l12.2,12.2c2.6,2.6,6.4,3.6,10,2.5l130.5-39.7c14.3-4.4,25.7-15.4,30.5-29.6l18-53
			C401.202,133.929,397.402,117.429,386.202,106.329z M150.502,272.529l-17.7,5.9c-1.5,0.5-2.8,1.3-3.9,2.4l-17,17
			c-1.9,1.9-3,4.5-2.9,7.3l0.4,23l-29,4.1c-4.3,0.6-7.7,4-8.5,8.3l-5.1,30.5l-46.7-0.1l0.4-18.2l135.2-135.2l24.9,24.9
			L150.502,272.529z M377.102,142.329l-18,53.3c-2.8,8.1-9.2,14.4-17.4,16.9l-124.8,37.9l-65.2-65.3l41.1-121.8
			c2.7-7.8,8.8-14,16.6-16.7l53.9-18.3c7.7-2.6,16.2-0.7,21.9,5.1l86.9,86.9C377.802,126.129,379.802,134.729,377.102,142.329z"/>
	</g>
</g>
<g>
	<g>
		<path d="M321.602,124.629l-40.6-40.6c-12.1-12.1-31.6-12.1-43.7,0c-12.1,12.1-12.1,31.6,0,43.7l40.6,40.6
			c12.1,12.1,31.6,12.1,43.7,0C333.702,156.229,333.702,136.729,321.602,124.629z M307.402,154.129c-4.2,4.2-11.1,4.3-15.4,0
			l-40.6-40.6c-4.3-4.2-4.3-11.1,0-15.4c4.2-4.3,11.1-4.3,15.4,0l40.6,40.6C311.702,142.929,311.702,149.829,307.402,154.129z"/>
	</g>
</g>
<g>
</g>
<g>
</g>
<g>
</g>
<g>
</g>
<g>
</g>
<g>
</g>
<g>
</g>
<g>
</g>
<g>
</g>
<g>
</g>
<g>
</g>
<g>
</g>
<g>
</g>
<g>
</g>
<g>
</g>
</svg>
