<?xml version="1.0" encoding="iso-8859-1"?>
<!-- Generator: Adobe Illustrator 19.0.0, SVG Export Plug-In . SVG Version: 6.00 Build 0)  -->
<svg version="1.1" id="Capa_1"  xmlns="http://www.w3.org/2000/svg" xmlns:xlink="http://www.w3.org/1999/xlink" x="0px" y="0px"
	 viewBox="0 0 480.449 480.449" style="enable-background:new 0 0 480.449 480.449;" xml:space="preserve">
<g>
	<g>
		<path d="M379.124,67.347h-46.9v-5.3c-0.1-17-13.9-30.8-30.9-30.7h-15.5c-10-25.4-38.7-37.9-64.1-27.9c-12.8,5-22.9,15.1-27.9,27.9
			h-15.2c-16.8,0-30.4,13.6-30.4,30.4c0,0.1,0,0.2,0,0.4v5.3h-46.9c-22.8,0-41.1,18.9-41.1,41.7v330.4c0,22.5,18.2,40.8,40.8,40.9
			c0.1,0,0.2,0,0.4,0h277.7c22.5,0.2,41-17.9,41.1-40.5c0-0.1,0-0.2,0-0.4v-330.5C420.224,86.247,401.824,67.347,379.124,67.347z
			 M168.224,62.047c-0.2-5.7,4.3-10.5,10-10.7c0.1,0,0.3,0,0.4,0h22.4c4.7,0,8.7-3.3,9.7-7.8c3.3-14.1,14.9-23.6,28.9-23.6
			c13.9,0,25.9,9.8,28.8,23.4c1,4.7,5,8,9.8,8h23c6-0.1,10.9,4.7,10.9,10.7v39.3h-143.9V62.047z M400.224,439.447
			c0,11.5-9.3,20.8-20.7,20.9c-0.1,0-0.3,0-0.4,0h-277.8c-11.5,0.2-21-9-21.1-20.5c0-0.1,0-0.3,0-0.4v-330.4
			c0-11.8,9.4-21.7,21.1-21.7h46.9v24.3c-0.2,5.1,3.8,9.5,9,9.7c0.2,0,0.4,0,0.5,0h164.5c5.4,0.2,9.9-4.1,10-9.5c0-0.1,0-0.1,0-0.2
			v-24.3h46.9c11.8,0,21.1,10,21.1,21.7V439.447z"/>
	</g>
</g>
<g>
	<g>
		<path d="M251.724,354.347h-116.9c-5.5,0-10,4.5-10,10s4.4,10,10,10h116.9c5.5,0,10-4.5,10-10S257.224,354.347,251.724,354.347z"/>
	</g>
</g>
<g>
	<g>
		<path d="M345.624,396.347h-210.8c-5.5,0-10,4.5-10,10s4.5,10,10,10h210.9c5.5,0,10-4.5,10-10S351.224,396.347,345.624,396.347z"/>
	</g>
</g>
<g>
	<g>
		<path d="M370.224,218.847l-23-10.4l-20.5-32.7c-6.8-10.9-18.9-17.5-31.8-17.4h-79.5c-11.7,0-22.7,5.4-29.8,14.6l-26.4,34.7
			l-44.4,12.1c-13.3,3.6-22.6,15.7-22.6,29.5v17.4c0,16.9,13.7,30.7,30.7,30.7h1c6.8,19.7,28.4,30.2,48.1,23.3
			c10.9-3.8,19.5-12.4,23.3-23.3h86.3c6.8,19.7,28.4,30.2,48.1,23.3c10.9-3.8,19.5-12.4,23.3-23.3h4.5c16.9-0.1,30.6-13.8,30.7-30.7
			v-19.9C388.224,234.747,381.124,223.847,370.224,218.847z M159.624,302.647c-9.8,0-17.8-8-17.8-17.8s8-17.8,17.8-17.8
			s17.8,8,17.8,17.8S169.424,302.547,159.624,302.647z M317.424,302.647c-9.8,0-17.8-8-17.8-17.8s8-17.8,17.8-17.8s17.8,8,17.8,17.8
			C335.124,294.647,327.224,302.547,317.424,302.647z M357.524,277.347h-3.1c-4.2-20.5-24.2-33.6-44.6-29.4
			c-14.8,3-26.4,14.6-29.4,29.4h-83.7c-4.2-20.5-24.1-33.7-44.6-29.5c-14.8,3-26.4,14.6-29.5,29.4c-5.8-0.2-10.4-4.9-10.4-10.6
			v-17.4c0-4.8,3.2-9,7.8-10.2l47.7-13c2.1-0.6,4-1.8,5.3-3.6l28.5-37.3c3.3-4.3,8.5-6.8,13.9-6.8h79.5c6-0.1,11.6,3,14.8,8.1
			l22.1,35.3c1,1.7,2.6,3,4.3,3.8l25.7,11.7c3.8,1.7,6.2,5.5,6.2,9.6v19.8h0.2C368.224,272.547,363.424,277.347,357.524,277.347z"/>
	</g>
</g>
<g>
</g>
<g>
</g>
<g>
</g>
<g>
</g>
<g>
</g>
<g>
</g>
<g>
</g>
<g>
</g>
<g>
</g>
<g>
</g>
<g>
</g>
<g>
</g>
<g>
</g>
<g>
</g>
<g>
</g>
</svg>
