<?xml version="1.0" encoding="iso-8859-1"?>
<!-- Generator: Adobe Illustrator 19.0.0, SVG Export Plug-In . SVG Version: 6.00 Build 0)  -->
<svg version="1.1" id="Capa_1"  xmlns="http://www.w3.org/2000/svg" xmlns:xlink="http://www.w3.org/1999/xlink" x="0px" y="0px"
	 viewBox="0 0 480.449 480.449" style="enable-background:new 0 0 480.449 480.449;" xml:space="preserve">
<g>
	<g>
		<path d="M379.124,67.347h-46.9v-5.3c-0.1-17-13.9-30.8-30.9-30.7h-15.5c-10-25.4-38.7-37.9-64.1-27.9c-12.8,5-22.9,15.1-27.9,27.9
			h-15.2c-16.8,0-30.4,13.6-30.4,30.4c0,0.1,0,0.2,0,0.4v5.3h-46.9c-22.8,0-41.1,18.9-41.1,41.7v330.4c0,22.5,18.2,40.8,40.8,40.9
			c0.1,0,0.2,0,0.4,0h277.7c22.5,0.2,41-17.9,41.1-40.5c0-0.1,0-0.2,0-0.4v-330.5C420.224,86.247,401.824,67.347,379.124,67.347z
			 M168.224,62.047c-0.2-5.7,4.3-10.5,10-10.7c0.1,0,0.3,0,0.4,0h22.4c4.7,0,8.7-3.3,9.7-7.8c3.3-14.1,14.9-23.6,28.9-23.6
			c13.9,0,25.9,9.8,28.8,23.4c1,4.7,5,8,9.8,8h23c6-0.1,10.9,4.7,10.9,10.7v39.3h-143.9V62.047z M400.224,439.447
			c0,11.5-9.3,20.8-20.7,20.9c-0.1,0-0.3,0-0.4,0h-277.8c-11.5,0.2-21-9-21.1-20.5c0-0.1,0-0.3,0-0.4v-330.4
			c0-11.8,9.4-21.7,21.1-21.7h46.9v24.3c-0.2,5.1,3.8,9.5,9,9.7c0.2,0,0.4,0,0.5,0h164.5c5.4,0.2,9.9-4.1,10-9.5c0-0.1,0-0.1,0-0.2
			v-24.3h46.9c11.8,0,21.1,10,21.1,21.7V439.447z"/>
	</g>
</g>
<g>
	<g>
		<path d="M348.924,215.347l-3.6-3.4l-17.1-40c-4.1-9.5-13.4-15.6-23.7-15.6h-125.5c-10.3,0-19.6,6.1-23.7,15.6l-16.8,39.1l-5.7,4.9
			c-7.4,6.3-11.7,15.6-11.6,25.3v68.6c-0.1,14,11.2,25.4,25.2,25.5h12.9c14,0,25.8-11.5,25.8-25.5v-4.5h110v4.5
			c0,14,11.8,25.5,25.8,25.5h12.9c14-0.1,25.3-11.5,25.3-25.5v-70.3C359.224,230.347,355.524,221.647,348.924,215.347z
			 M173.724,179.947c0.9-2.2,3-3.6,5.3-3.6h125.4c2.3,0,4.4,1.5,5.3,3.6l11.4,26.4h-11.2c-5.5-18.9-25.3-29.8-44.3-24.3
			c-11.7,3.4-20.9,12.6-24.3,24.3h-78.9L173.724,179.947z M287.724,206.347h-24.2c2.9-4,7.2-5.7,12.1-5.7
			C280.524,200.647,284.824,202.347,287.724,206.347z M165.224,309.847c-0.2,3.1-2.7,5.5-5.8,5.5h-12.9c-3,0-5.3-2.5-5.3-5.4
			c0,0,0,0,0-0.1v-5.3c1.7,0.4,3.5,0.7,5.3,0.8h18.7V309.847z M339.224,309.847c0.1,3-2.2,5.4-5.3,5.5h-12.9c-3.1,0-5.7-2.4-5.8-5.5
			v-4.5h18.7c1.8-0.1,3.5-0.3,5.3-0.8V309.847z M333.924,285.347h-187.4c-3-0.1-5.4-2.6-5.3-5.6v-38.5c0-3.8,1.6-7.5,4.6-9.9l5.9-5
			h179.5l3.9,3.7c2.6,2.5,4.1,5.9,4,9.5v40.2h0.1C339.324,282.747,336.924,285.247,333.924,285.347z"/>
	</g>
</g>
<g>
	<g>
		<path d="M191.224,235.347h-32c-5.5,0-10,4.5-10,10v25c0,5.5,4.5,10,10,10h32c5.5,0,10-4.5,10-10v-25
			C201.224,239.847,196.724,235.347,191.224,235.347z M180.224,260.347h-11v-5h11V260.347z"/>
	</g>
</g>
<g>
	<g>
		<path d="M322.224,235.347h-32c-5.5,0-10,4.5-10,10v25c0,5.5,4.5,10,10,10h32c5.5,0,10-4.5,10-10v-25
			C332.224,239.847,327.724,235.347,322.224,235.347z M311.224,260.347h-11v-5h11V260.347z"/>
	</g>
</g>
<g>
	<g>
		<path d="M258.524,251.347h-36.7c-5.5,0-10,4.5-10,10c0,5.5,4.5,10,10,10h36.7c5.5,0,10-4.5,10-10
			C268.524,255.847,264.124,251.347,258.524,251.347z"/>
	</g>
</g>
<g>
	<g>
		<path d="M251.724,359.347h-116.9c-5.5,0-10,4.5-10,10s4.4,10,10,10h116.9c5.5,0,10-4.5,10-10S257.224,359.347,251.724,359.347z"/>
	</g>
</g>
<g>
	<g>
		<path d="M345.624,401.347h-210.8c-5.5,0-10,4.5-10,10s4.5,10,10,10h210.9c5.5,0,10-4.5,10-10S351.224,401.347,345.624,401.347z"/>
	</g>
</g>
<g>
</g>
<g>
</g>
<g>
</g>
<g>
</g>
<g>
</g>
<g>
</g>
<g>
</g>
<g>
</g>
<g>
</g>
<g>
</g>
<g>
</g>
<g>
</g>
<g>
</g>
<g>
</g>
<g>
</g>
</svg>
