<?xml version="1.0" encoding="iso-8859-1"?>
<!-- Generator: Adobe Illustrator 19.0.0, SVG Export Plug-In . SVG Version: 6.00 Build 0)  -->
<svg version="1.1" id="Capa_1"  xmlns="http://www.w3.org/2000/svg" xmlns:xlink="http://www.w3.org/1999/xlink" x="0px" y="0px"
	 viewBox="0 0 437.461 437.461" style="enable-background:new 0 0 437.461 437.461;" xml:space="preserve">
<g>
	<g>
		<path d="M434.013,200.531l-87.8-76.2v-113.1c0-5.5-4.5-10-10-10h-67c-5.5,0-10,4.5-10,10v33.6l-30.5-25.7c-3.7-3.2-9.2-3.1-12.9,0
			l-212.3,181.3c-4,3.4-4.7,9.4-1.5,13.6l19,25.4c3.3,4.4,9.6,5.3,14,2c0.3-0.2,0.6-0.5,0.9-0.8l5.3-5.1v190.7c0,5.5,4.5,10,10,10
			h332c5.5,0,10-4.5,10-10v-191.8l6.8,6.2c4.1,3.7,10.4,3.5,14.1-0.6c0.1-0.1,0.2-0.3,0.4-0.4l20.7-25.2
			C438.613,210.331,438.113,204.131,434.013,200.531z M405.813,218.731l-15.8-14.5c-4.1-3.7-10.4-3.5-14.1,0.6
			c-1.7,1.8-2.6,4.3-2.6,6.8v204.6h-312.1v-204.2c0-5.5-4.5-10-10-10c-2.6,0-5.1,1-6.9,2.8l-14,13.5l-6.6-8.8l198.7-169.6l40.4,34.1
			c4.2,3.6,10.5,3,14.1-1.2c1.5-1.8,2.4-4.1,2.4-6.4v-45.2h47v107.6c0,2.9,1.3,5.7,3.4,7.6l83.9,72.8L405.813,218.731z"/>
	</g>
</g>
<g>
	<g>
		<path d="M339.813,265.631l-4.4-4l-19.9-53.6c-4-10.7-14.3-17.8-25.8-17.8h-141.8c-11.5,0-21.8,7.1-25.8,17.8l-19.5,52.6l-6.6,5.7
			c-8.1,6.9-12.8,17-12.7,27.7v77.9c0,15,12.1,27.3,27.1,27.3c0.1,0,0.2,0,0.2,0h14.6c15.2,0,28-12.1,28-27.3v-6.7h128v6.7
			c0.1,15.2,12.5,27.4,27.7,27.3h14.6c15.2,0.1,27.5-12.1,27.7-27.3v-79.9C351.213,282.031,347.013,272.531,339.813,265.631z
			 M140.913,214.931c1.1-2.9,4-4.8,7.1-4.7h141.7c3.1-0.1,5.9,1.8,7.1,4.7l15,40.3h-2.9c-4.5-18-21.3-32.5-41.3-32.5
			s-36.8,14.5-41.3,32.5h-100.5L140.913,214.931z M287.813,255.231h-40.2c3.7-7,11.3-12.5,20.1-12.5
			C276.513,242.731,284.113,248.231,287.813,255.231z M133.213,371.931c0,4.2-3.8,7.3-8,7.3h-14.6c-4,0.1-7.3-3.1-7.4-7
			c0-0.1,0-0.2,0-0.3v-7.7c2.4,0.7,4.9,1.1,7.4,1h22.6V371.931z M331.213,371.931c-0.1,4.1-3.5,7.4-7.7,7.3h-14.6
			c-4.1,0.1-7.6-3.1-7.7-7.3v-6.7h22.3c2.6,0,5.2-0.4,7.7-1V371.931z M323.513,345.231h-213c-4.1,0-7.4-3.3-7.4-7.4v-0.1v-43.7
			c0-4.8,2-9.4,5.7-12.6l7.1-6.2h205l5,4.8c3.3,3.1,5.1,7.4,5.2,12v45.7h0.1C331.113,341.931,327.713,345.231,323.513,345.231z"/>
	</g>
</g>
<g>
	<g>
		<path d="M161.213,289.231h-42c-5.5,0-10,4.5-10,10v29c0,5.5,4.5,10,10,10h42c5.5,0,10-4.5,10-10v-29
			C171.213,293.731,166.713,289.231,161.213,289.231z M150.213,317.231h-21v-8h21V317.231z"/>
	</g>
</g>
<g>
	<g>
		<path d="M315.213,289.231h-42c-5.5,0-10,4.5-10,10v29c0,5.5,4.5,10,10,10h42c5.5,0,10-4.5,10-10v-29
			C325.213,293.731,320.713,289.231,315.213,289.231z M305.213,317.231h-22v-8h22V317.231z"/>
	</g>
</g>
<g>
	<g>
		<path d="M243.813,317.231h-53.5c-5.5,0-10,4.5-10,10s4.5,10,10,10h53.5c5.5,0,10-4.5,10-10S249.413,317.231,243.813,317.231z"/>
	</g>
</g>
<g>
	<g>
		<path d="M243.813,289.231h-53.5c-5.5,0-10,4.5-10,10s4.5,10,10,10h53.5c5.5,0,10-4.5,10-10S249.413,289.231,243.813,289.231z"/>
	</g>
</g>
<g>
</g>
<g>
</g>
<g>
</g>
<g>
</g>
<g>
</g>
<g>
</g>
<g>
</g>
<g>
</g>
<g>
</g>
<g>
</g>
<g>
</g>
<g>
</g>
<g>
</g>
<g>
</g>
<g>
</g>
</svg>
