<?xml version="1.0" encoding="iso-8859-1"?>
<!-- Generator: Adobe Illustrator 19.0.0, SVG Export Plug-In . SVG Version: 6.00 Build 0)  -->
<svg version="1.1" id="Capa_1"  xmlns="http://www.w3.org/2000/svg" xmlns:xlink="http://www.w3.org/1999/xlink" x="0px" y="0px"
	 viewBox="0 0 437.561 437.561" style="enable-background:new 0 0 437.561 437.561;" xml:space="preserve">
<g>
	<g>
		<path d="M434.113,200.581l-87.8-76.2v-113.1c0-5.5-4.5-10-10-10h-67c-5.5,0-10,4.5-10,10v33.6l-30.5-25.7c-3.7-3.1-9.2-3.1-12.9,0
			l-212.4,181.3c-4,3.4-4.7,9.4-1.5,13.6l19,25.4c3.3,4.4,9.6,5.3,14,2c0.3-0.2,0.6-0.5,0.9-0.8l5.3-5.1v190.7c0,5.5,4.5,10,10,10
			h332c5.5,0,10-4.5,10-10v-191.8l6.8,6.2c4.1,3.7,10.4,3.5,14.1-0.6c0.1-0.1,0.3-0.3,0.4-0.4l20.8-25.2
			C438.713,210.381,438.213,204.181,434.113,200.581z M405.813,218.781l-15.7-14.5c-4.1-3.7-10.4-3.5-14.1,0.6
			c-1.7,1.8-2.6,4.3-2.6,6.8v204.6h-312.1v-204.2c0-5.5-4.5-10-10-10c-2.6,0-5.1,1-6.9,2.8l-14.1,13.5l-6.6-8.8l198.7-169.6
			l40.5,34.1c4.2,3.6,10.5,3,14.1-1.2c1.5-1.8,2.3-4.1,2.3-6.4v-45.2h47v107.6c0,2.9,1.3,5.6,3.4,7.5l83.9,72.9L405.813,218.781z"/>
	</g>
</g>
<g>
	<g>
		<path d="M341.513,273.281l-20.8-9.5l-18.6-29.9c-6.5-10.4-17.8-16.6-29.9-16.6h-82.7c-11,0-21.4,5.2-28,13.9l-24.2,31.7
			l-40.6,11.1c-12.6,3.5-21.3,14.9-21.4,27.9v16c0,16,13.1,29.4,29,29.4h0.4c5,13,18.1,23.4,33.4,23.4s28.4-10.4,33.4-23.4h87.9
			c5,13,18.1,23.4,33.4,23.4s28.4-10.4,33.4-23.4h3.5c16,0,28.6-13.4,28.6-29.4v-18.3
			C358.413,288.281,351.813,277.981,341.513,273.281z M138.113,350.181c-8.6,0-15.6-7-15.6-15.6c0-8.6,7-15.6,15.6-15.6
			c8.6,0,15.6,7,15.6,15.6C153.713,343.281,146.713,350.181,138.113,350.181z M292.813,350.181c-8.6,0-15.6-7-15.6-15.6
			c0-8.6,7-15.6,15.6-15.6s15.6,7,15.6,15.6C308.313,343.281,301.413,350.181,292.813,350.181z M338.313,317.981
			c0,4.9-3.7,9.4-8.6,9.4h-2.2c-4.3-19.2-23.3-31.2-42.5-26.9c-13.4,3-23.9,13.5-26.9,26.9h-85.3c-4.2-19.2-23.1-31.4-42.3-27.2
			c-13.5,2.9-24,13.4-27.1,26.8c-4.6-0.5-8.1-4.4-8.1-9v-16c0-4,2.7-7.6,6.6-8.6l43.8-12c2.1-0.6,4-1.8,5.3-3.6l26.3-34.5
			c2.9-3.8,7.4-6,12.1-6h82.7c5.3,0,10.2,2.7,12.9,7.2l20.4,32.5c1,1.7,2.5,3,4.3,3.8l23.4,10.7c3.3,1.5,5.3,4.7,5.2,8.2V317.981z"
			/>
	</g>
</g>
<g>
</g>
<g>
</g>
<g>
</g>
<g>
</g>
<g>
</g>
<g>
</g>
<g>
</g>
<g>
</g>
<g>
</g>
<g>
</g>
<g>
</g>
<g>
</g>
<g>
</g>
<g>
</g>
<g>
</g>
</svg>
