<?xml version="1.0" encoding="iso-8859-1"?>
<!-- Generator: Adobe Illustrator 19.0.0, SVG Export Plug-In . SVG Version: 6.00 Build 0)  -->
<svg version="1.1" id="Capa_1"  xmlns="http://www.w3.org/2000/svg" xmlns:xlink="http://www.w3.org/1999/xlink" x="0px" y="0px"
	 viewBox="0 0 435.905 435.905" style="enable-background:new 0 0 435.905 435.905;" xml:space="preserve">
<g>
	<g>
		<path d="M430.902,120.789l-208.1-115.6c-3-1.7-6.7-1.7-9.7,0l-208,115.6c-3.2,1.8-5.1,5.1-5.1,8.7v292.7c-0.1,5.4,4.2,9.8,9.6,9.8
			c0.1,0,0.2,0,0.2,0h416.3c5.4,0.1,9.8-4.2,9.8-9.6c0-0.1,0-0.2,0-0.2v-292.6C436.002,125.889,434.102,122.589,430.902,120.789z
			 M358.002,412.089h-280v-41h280V412.089z M358.002,351.089h-280v-38h280V351.089z M358.002,293.089h-280v-38h280V293.089z
			 M358.002,235.089h-280v-38h280V235.089z M416.002,412.089h-38v-224.7c0-5.5-4.1-10.3-9.7-10.3h-300.6c-5.5,0-9.7,4.8-9.7,10.3
			v224.7h-38v-276.7l198-110.1l198,110.1V412.089z"/>
	</g>
</g>
<g>
</g>
<g>
</g>
<g>
</g>
<g>
</g>
<g>
</g>
<g>
</g>
<g>
</g>
<g>
</g>
<g>
</g>
<g>
</g>
<g>
</g>
<g>
</g>
<g>
</g>
<g>
</g>
<g>
</g>
</svg>
