<?xml version="1.0" encoding="iso-8859-1"?>
<!-- Generator: Adobe Illustrator 19.0.0, SVG Export Plug-In . SVG Version: 6.00 Build 0)  -->
<svg version="1.1" id="Capa_1"  xmlns="http://www.w3.org/2000/svg" xmlns:xlink="http://www.w3.org/1999/xlink" x="0px" y="0px"
	 viewBox="0 0 456 456" style="enable-background:new 0 0 456 456;" xml:space="preserve">
<g>
	<g>
		<path d="M407.55,274.8l-7.5-8.2l-27.2-63.3c-5.6-13-18.3-21.3-32.4-21.3h-105.5V77.3c-0.1-2.8-1.3-5.4-3.3-7.3l-70.9-67.1
			c-1.9-1.8-4.4-2.8-7-2.9h-89.2c-17,0-30.5,14.2-30.5,31.1v181.5c0,16.7,13.5,30.3,30.2,30.4c0.1,0,0.2,0,0.3,0h26.2l-9.5,22.3
			l-11,10.4c-10.4,9-16.3,22-16.2,35.8V421c0,19.1,15.2,35,34.3,35h20.5c19.3-0.2,34.9-15.7,35.1-35v-13h188v13
			c0.1,19.3,15.7,34.9,35,35h20.5c19.1,0,34.5-15.9,34.5-35V308.7C421.95,295.9,416.75,283.7,407.55,274.8z M234.95,212.6V202h105.5
			c6.1-0.1,11.6,3.4,14,9l21.6,50h-12.3c-5.5-30.2-34.5-50.2-64.7-44.7c-22.7,4.2-40.5,22-44.7,44.7h-149.6l7.7-18h91.3
			C220.75,243,234.95,229.6,234.95,212.6z M343.15,261h-68.4c4.3-14,18-25.6,34.2-25.6S338.85,247,343.15,261z M161.95,32.2l40,37.8
			h-39.4c-0.2,0-0.6-0.5-0.6-0.7V32.2z M64.45,223c-5.7,0.1-10.4-4.4-10.5-10c0-0.2,0-0.3,0-0.4V31.1c0-5.9,4.6-11.1,10.5-11.1h77.5
			v49.3c0.1,11.4,9.3,20.6,20.6,20.7h52.4v122.6c0,5.9-5.2,10.4-11.2,10.4H64.45z M123.95,421c-0.2,8.3-6.9,14.9-15.1,15h-20.5
			c-8.1,0-14.3-7-14.3-15v-16.7c4.4,2.4,9.3,3.6,14.3,3.7h35.6V421z M401.95,421c0,8-6.4,15-14.5,15h-20.5c-8.2-0.2-14.9-6.8-15-15
			v-13h35.5c5-0.1,10-1.4,14.5-3.7V421z M402.05,372.8c0,8.1-6.4,15.1-14.5,15.1H88.25c-8.1,0-14.3-7-14.3-15.1v-61.3
			c-0.1-7.9,3.4-15.4,9.4-20.6c0.1-0.1,0.1-0.4,0.3-0.5l9.9-9.4h293l6.8,7.4c0.1,0.2,0.2,0.4,0.3,0.5c5.4,5.2,8.4,12.3,8.4,19.7
			V372.8z"/>
	</g>
</g>
<g>
	<g>
		<path d="M158.95,308h-59c-5.5,0-10,4.5-10,10v40c0,5.5,4.5,10,10,10h59c5.5,0,10-4.5,10-10v-40
			C168.95,312.5,164.45,308,158.95,308z M148.95,348h-39v-20h39V348z"/>
	</g>
</g>
<g>
	<g>
		<path d="M375.95,308h-59c-5.5,0-10,4.5-10,10v40c0,5.5,4.5,10,10,10h59c5.5,0,10-4.5,10-10v-40
			C385.95,312.5,381.45,308,375.95,308z M365.95,348h-39v-20h39V348z"/>
	</g>
</g>
<g>
	<g>
		<path d="M275.45,347h-75.2c-5.5,0-10,4.5-10,10s4.5,10,10,10h75.2c5.5,0,10-4.5,10-10S280.95,347,275.45,347z"/>
	</g>
</g>
<g>
	<g>
		<path d="M275.45,316h-75.2c-5.5,0-10,4.5-10,10s4.5,10,10,10h75.2c5.5,0,10-4.5,10-10S280.95,316,275.45,316z"/>
	</g>
</g>
<g>
	<g>
		<path d="M181.05,148h-96.8c-5.5,0-10,4.5-10,10s4.5,10,10,10h96.8c5.5,0,10-4.5,10-10S186.55,148,181.05,148z"/>
	</g>
</g>
<g>
	<g>
		<path d="M125.45,112h-41.2c-5.5,0-10,4.5-10,10s4.5,10,10,10h41.2c5.5,0,10-4.5,10-10S130.95,112,125.45,112z"/>
	</g>
</g>
<g>
	<g>
		<path d="M181.05,184h-96.8c-5.5,0-10,4.5-10,10s4.5,10,10,10h96.8c5.5,0,10-4.5,10-10S186.55,184,181.05,184z"/>
	</g>
</g>
<g>
</g>
<g>
</g>
<g>
</g>
<g>
</g>
<g>
</g>
<g>
</g>
<g>
</g>
<g>
</g>
<g>
</g>
<g>
</g>
<g>
</g>
<g>
</g>
<g>
</g>
<g>
</g>
<g>
</g>
</svg>
