<?xml version="1.0" encoding="iso-8859-1"?>
<!-- Generator: Adobe Illustrator 19.0.0, SVG Export Plug-In . SVG Version: 6.00 Build 0)  -->
<svg version="1.1" id="Capa_1"  xmlns="http://www.w3.org/2000/svg" xmlns:xlink="http://www.w3.org/1999/xlink" x="0px" y="0px"
	 viewBox="0 0 438.007 438.007" style="enable-background:new 0 0 438.007 438.007;" xml:space="preserve">
<g>
	<g>
		<path d="M422.903,278.107l-61.2-57c-7.1-6.6-16.4-10.2-26-10.1h-16.7v-134.3c0.1-2.7-1-5.4-2.9-7.3l-70.7-66.8
			c-1.8-1.7-4.3-2.7-6.8-2.6h-89.2c-16.7,0-30.3,13.5-30.4,30.2c0,0.1,0,0.2,0,0.3v181.6c0,17,13.4,30.9,30.4,30.9h2.9l-32.8,35.2
			c-3.4,3.7-8.2,5.8-13.2,5.8h-46.4c-31.3-0.1-56.8,25.2-56.9,56.5v22.5c0.1,21,17.2,38,38.2,38h6.3c5.8,21,25.4,37,48.5,37
			c23.1,0,42.7-16,48.5-37h149.5c5.8,21,25.4,37,48.5,37s42.7-16,48.5-37h5.8c21,0.1,38.1-16.9,38.2-38v-57.1
			C435.003,295.407,430.603,285.307,422.903,278.107z M335.603,231.007c4.6,0,9,1.7,12.4,4.8l51.6,48.2h-61.5l-24.7-53H335.603z
			 M316.003,284.007h-62v-41h34.6c2.7,0,5.3-0.3,7.9-1L316.003,284.007z M247.003,31.607l39.8,37.4h-39.3c-0.2,0-0.5,0-0.5-0.2
			V31.607z M149.303,223.007c-5.9,0-10.3-5-10.3-10.9v-181.5c-0.2-5.7,4.3-10.4,10-10.6c0.1,0,0.2,0,0.4,0h77.6v48.8
			c0.1,11.2,9.2,20.3,20.5,20.2h51.5v123.1c0,5.9-4.4,10.9-10.4,10.9H149.303z M96.003,418.207c-16.7,0-30.3-13.6-30.3-30.3
			c0-16.7,13.6-30.3,30.3-30.3c16.7,0,30.3,13.6,30.3,30.3C126.303,404.607,112.703,418.207,96.003,418.207z M234.003,380.907h-88.2
			c-3.3-24-24.4-43.6-49.8-43.6c-25.4,0-46.5,19.7-49.8,43.7h-5c-10,0.1-18.1-8-18.2-18v-22.5c0.1-20.3,16.6-36.6,36.9-36.6
			c0,0,0,0,0.1,0h46.4c0.7,0,1.4,0,2.2-0.1c0.4,0,0.7,0.1,1.1,0.1h124.3V380.907z M234.003,284.007h-92.5l38.1-41h54.4V284.007z
			 M342.503,418.207c-16.7,0-30.3-13.6-30.3-30.3c0-16.7,13.6-30.3,30.3-30.3s30.3,13.6,30.3,30.3
			C372.703,404.607,359.203,418.207,342.503,418.207z M415.003,305.907v57.1c-0.1,10-8.2,18-18.2,18h-4.5
			c-3.3-24-24.4-43.6-49.8-43.6s-46.6,19.6-49.9,43.6h-38.6v-77h160.8C415.003,304.607,415.103,305.307,415.003,305.907z"/>
	</g>
</g>
<g>
	<g>
		<path d="M265.903,147.007h-96.8c-5.5,0-10,4.5-10,10s4.5,10,10,10h96.8c5.5,0,10-4.5,10-10S271.403,147.007,265.903,147.007z"/>
	</g>
</g>
<g>
	<g>
		<path d="M210.304,111.007h-41.2c-5.5,0-10,4.5-10,10s4.5,10,10,10h41.2c5.5,0,10-4.5,10-10S215.804,111.007,210.304,111.007z"/>
	</g>
</g>
<g>
	<g>
		<path d="M265.903,184.007h-96.8c-5.5,0-10,4.5-10,10s4.5,10,10,10h96.8c5.5,0,10-4.5,10-10S271.403,184.007,265.903,184.007z"/>
	</g>
</g>
<g>
</g>
<g>
</g>
<g>
</g>
<g>
</g>
<g>
</g>
<g>
</g>
<g>
</g>
<g>
</g>
<g>
</g>
<g>
</g>
<g>
</g>
<g>
</g>
<g>
</g>
<g>
</g>
<g>
</g>
</svg>
