<?xml version="1.0" encoding="iso-8859-1"?>
<!-- Generator: Adobe Illustrator 19.0.0, SVG Export Plug-In . SVG Version: 6.00 Build 0)  -->
<svg version="1.1" id="Capa_1"  xmlns="http://www.w3.org/2000/svg" xmlns:xlink="http://www.w3.org/1999/xlink" x="0px" y="0px"
	 viewBox="0 0 436 436" style="enable-background:new 0 0 436 436;" xml:space="preserve">
<g>
	<g>
		<path d="M264.9,154.567h-96.8c-5.5,0-10,4.5-10,10s4.5,10,10,10h96.8c5.5,0,10-4.5,10-10S270.4,154.567,264.9,154.567z"/>
	</g>
</g>
<g>
	<g>
		<path d="M209.3,118.567h-41.2c-5.5,0-10,4.5-10,10s4.5,10,10,10h41.2c5.5,0,10-4.5,10-10S214.8,118.567,209.3,118.567z"/>
	</g>
</g>
<g>
	<g>
		<path d="M264.9,190.567h-96.8c-5.5,0-10,4.5-10,10s4.5,10,10,10h96.8c5.5,0,10-4.5,10-10S270.4,190.567,264.9,190.567z"/>
	</g>
</g>
<g>
	<g>
		<path d="M412.5,286.167l-34.6-15.7l-30.8-48.7c-6.7-10.6-17-18.3-29.1-21.5v-116.2c0.1-2.7-1-5.4-2.9-7.3l-70.7-66.7
			c-1.8-1.7-4.3-2.6-6.8-2.5h-89.2c-16.6-0.1-30.2,13.2-30.4,29.8c0,0.2,0,0.3,0,0.5v181.5c-0.1,5.5,1.3,10.9,4.1,15.6l-26.4,34.6
			l-66.1,18c-17.4,4.7-29.5,20.5-29.6,38.5v25.2c0,22,18.2,40.3,40.2,40.3H45c7.4,26.8,35.2,42.5,62,35c17-4.7,30.3-18,35-35h147
			c7.4,26.8,35.2,42.5,62,35c17-4.7,30.3-18,35-35h9.8c22,0,40.2-18.3,40.2-40.3v-28.8C435.9,306.767,426.7,292.567,412.5,286.167z
			 M246,38.967l39.8,37.6h-39.3c-0.2,0-0.4-0.2-0.5-0.5V38.967z M138,37.867c-0.1-5.6,4.3-10.2,9.8-10.3c0.2,0,0.4,0,0.5,0H226v48.5
			c0,11.3,9.2,20.4,20.5,20.5H298v122.8c0,5.9-4.4,11.2-10.4,11.2H148.3c-5.9,0-10.3-5.3-10.3-11.2V37.867z M93.5,407.967
			c-16.8,0-30.3-13.6-30.3-30.3s13.6-30.3,30.3-30.3c16.8,0,30.3,13.6,30.3,30.3S110.2,407.967,93.5,407.967z M337.5,407.967
			c-16.8,0-30.3-13.6-30.3-30.3s13.6-30.3,30.3-30.3s30.3,13.6,30.3,30.3C367.9,394.367,354.3,407.967,337.5,407.967z M416,351.267
			c-0.1,11.1-9.1,20.1-20.2,20.3h-8.4c-3.6-27.6-28.8-47-56.4-43.4c-22.6,2.9-40.5,20.8-43.4,43.4H143.4
			c-3.6-27.6-28.8-47-56.4-43.4c-22.6,2.9-40.5,20.8-43.4,43.4h-3.4c-11.1-0.2-20.1-9.2-20.2-20.3v-25.2c0.1-9,6.1-16.8,14.8-19.2
			l69.2-18.9c2.1-0.6,4-1.8,5.4-3.6l27.7-36.1c3.6,1.5,7.4,2.3,11.3,2.4h139.3c16.2-0.1,29.6-12.7,30.7-28.9
			c4.9,2.4,9.1,6.1,12,10.8l32.1,51.2c1,1.7,2.6,3,4.3,3.8l37.4,16.9c7.1,3.2,11.7,10.3,11.8,18.1V351.267z"/>
	</g>
</g>
<g>
</g>
<g>
</g>
<g>
</g>
<g>
</g>
<g>
</g>
<g>
</g>
<g>
</g>
<g>
</g>
<g>
</g>
<g>
</g>
<g>
</g>
<g>
</g>
<g>
</g>
<g>
</g>
<g>
</g>
</svg>
