<?xml version="1.0" encoding="iso-8859-1"?>
<!-- Generator: Adobe Illustrator 19.0.0, SVG Export Plug-In . SVG Version: 6.00 Build 0)  -->
<svg version="1.1" id="Capa_1"  xmlns="http://www.w3.org/2000/svg" xmlns:xlink="http://www.w3.org/1999/xlink" x="0px" y="0px"
	 viewBox="0 0 460.007 460.007" style="enable-background:new 0 0 460.007 460.007;" xml:space="preserve">
<g>
	<g>
		<path d="M409.504,279.407l-7.4-8.2l-27.2-63.1c-5.6-12.9-18.3-21.2-32.4-21.1h-105.5v-110.3c-0.1-2.8-1.3-5.4-3.3-7.3l-70.9-66.8
			c-1.9-1.7-4.4-2.7-7-2.6h-89.2c-16.8-0.1-30.5,13.5-30.5,30.3c0,0.1,0,0.2,0,0.2v181.5c0,17,13.6,31,30.5,31h28.7l-12,27.2
			l-11,10.3c-10.4,8.9-16.3,21.9-16.3,35.6v109.5c-0.1,18.9,15.1,34.3,34,34.4c0.1,0,0.2,0,0.3,0h20.5c19.1,0,35.1-15.3,35.1-34.4
			v-13.6h188v13.6c0,19.1,15.9,34.4,35,34.4h20.5c19,0.1,34.4-15.3,34.5-34.2c0-0.1,0-0.1,0-0.2v-112.3
			C423.904,300.507,418.704,288.307,409.504,279.407z M237.004,212.007v-5h105.5c6.1-0.1,11.6,3.4,14,9l21.6,50h-12.3
			c-5.5-30.2-34.5-50.2-64.7-44.7c-22.7,4.2-40.5,22-44.7,44.7h-149.5l10.2-23h88.7
			C222.904,242.907,236.804,229.107,237.004,212.007z M345.204,266.007h-68.4c5.5-18.9,25.3-29.7,44.2-24.2
			C332.704,245.207,341.804,254.307,345.204,266.007z M164.004,31.607l40,37.4h-39.4c-0.2,0-0.6-0.1-0.6-0.3V31.607z
			 M66.504,223.007c-5.9-0.1-10.6-5-10.5-11v-181.5c-0.1-5.7,4.5-10.5,10.3-10.5c0.1,0,0.2,0,0.3,0h77.4v48.7
			c0.1,11.3,9.4,20.3,20.6,20.3h52.4v123c-0.2,6.1-5.1,10.9-11.2,11H66.504z M126.004,425.607c0,8.1-7,14.4-15.1,14.4h-20.5
			c-7.9,0.1-14.3-6.2-14.3-14.1c0-0.1,0-0.2,0-0.3v-16.7c4.5,2.2,9.4,3.2,14.3,3.1h35.6V425.607z M404.004,425.607
			c0.1,7.9-6.3,14.4-14.2,14.4c-0.1,0-0.2,0-0.3,0h-20.5c-8.1,0-15-6.4-15-14.4v-13.6h35.5c5,0.1,9.9-1,14.5-3.1V425.607z
			 M404.104,377.407c0.1,7.9-6.3,14.4-14.3,14.5c-0.1,0-0.1,0-0.2,0h-299.3c-7.9,0-14.3-6.3-14.3-14.2c0-0.1,0-0.2,0-0.3v-61.3
			c-0.1-7.9,3.4-15.4,9.4-20.6c0.1-0.1,0.1-0.2,0.3-0.3l9.9-9.2h293l6.8,7.2c0.1,0.1,0.2,0.3,0.3,0.4c5.4,5.1,8.4,12.2,8.4,19.6
			V377.407z"/>
	</g>
</g>
<g>
	<g>
		<path d="M161.004,313.007h-59c-5.5,0-10,4.5-10,10v40c0,5.5,4.5,10,10,10h59c5.5,0,10-4.5,10-10v-40
			C171.004,317.507,166.504,313.007,161.004,313.007z M151.004,353.007h-39v-20h39V353.007z"/>
	</g>
</g>
<g>
	<g>
		<path d="M378.004,313.007h-59c-5.5,0-10,4.5-10,10v40c0,5.5,4.5,10,10,10h59c5.5,0,10-4.5,10-10v-40
			C388.004,317.507,383.504,313.007,378.004,313.007z M368.004,353.007h-39v-20h39V353.007z"/>
	</g>
</g>
<g>
	<g>
		<path d="M277.504,351.007h-75.2c-5.5,0-10,4.5-10,10s4.5,10,10,10h75.2c5.5,0,10-4.5,10-10S283.004,351.007,277.504,351.007z"/>
	</g>
</g>
<g>
	<g>
		<path d="M277.504,321.007h-75.2c-5.5,0-10,4.5-10,10s4.5,10,10,10h75.2c5.5,0,10-4.5,10-10S283.004,321.007,277.504,321.007z"/>
	</g>
</g>
<g>
	<g>
		<path d="M136.604,133.207c-10.5,0-19,8.5-19,19c0.1,10.5,8.6,19,19,19c10.5,0,19-8.5,19-19S147.104,133.207,136.604,133.207z"/>
	</g>
</g>
<g>
	<g>
		<path d="M188.704,140.807l-7.6-1.2c-1.1-3.2-2.4-6.3-4.1-9.2l3.9-5.8c1.3-1.9,1.1-4.5-0.6-6.2l-9.7-9.6c-1.7-1.7-4.3-1.9-6.2-0.5
			l-5.8,4.2c-2.9-1.6-6-2.8-9.2-3.8l-1.2-8.3c-0.4-2.2-2.3-5.3-4.7-5.3h-13.6c-2.5,0-4.4,3.2-4.7,5.3l-1.2,7.6
			c-3.2,1.1-6.3,2.4-9.2,4.1l-5.8-3.9c-1.9-1.3-4.5-1.1-6.2,0.6l-9.6,9.7c-1.7,1.7-1.9,4.3-0.5,6.2l4.1,5.8c-1.6,2.9-2.9,6-3.8,9.2
			l-8.9,1.2c-2.1,0.4-5.9,2.2-5.9,4.7v13.6c0,2.5,3.8,4.4,6,4.7l7.9,1.2c1.1,3.2,2.5,6.2,4.2,9.1l0.1,0.1l-3.9,5.8
			c-1.3,1.9-1,4.5,0.7,6.2l9.7,9.6c1.7,1.7,4.3,1.9,6.2,0.5l5.8-4.1c2.9,1.6,6,2.9,9.3,3.8l1.2,8.4c0.4,2.2,2.3,5.4,4.7,5.4h13.6
			c2.5,0,4.4-3.2,4.7-5.4l1.2-7.7c3.2-1.1,6.3-2.5,9.2-4.2l5.8,3.9c1.9,1.3,4.5,1.1,6.2-0.6l9.6-9.7c1.7-1.7,1.9-4.3,0.5-6.2
			l-4.2-5.9c1.6-2.9,2.9-6,3.8-9.2l8.4-1.2c2.2-0.4,5.3-2.3,5.3-4.7v-13.6C194.004,143.007,190.904,141.107,188.704,140.807z
			 M136.604,181.207c-15.9,0-28.9-13-28.9-28.9c0-16,13-28.9,28.9-28.9c16,0,28.9,13,28.9,28.9
			C165.504,168.307,152.504,181.207,136.604,181.207z"/>
	</g>
</g>
<g>
</g>
<g>
</g>
<g>
</g>
<g>
</g>
<g>
</g>
<g>
</g>
<g>
</g>
<g>
</g>
<g>
</g>
<g>
</g>
<g>
</g>
<g>
</g>
<g>
</g>
<g>
</g>
<g>
</g>
</svg>
