<?xml version="1.0" encoding="iso-8859-1"?>
<!-- Generator: Adobe Illustrator 19.0.0, SVG Export Plug-In . SVG Version: 6.00 Build 0)  -->
<svg version="1.1" id="Capa_1"  xmlns="http://www.w3.org/2000/svg" xmlns:xlink="http://www.w3.org/1999/xlink" x="0px" y="0px"
	 viewBox="0 0 476.1 476.1" style="enable-background:new 0 0 476.1 476.1;" xml:space="preserve">
<g>
	<g>
		<path d="M286.551,118.4c-5-5.3-10.9-9.6-17.5-12.7V99c0.1-6.4-2-12.6-6-17.5V25c0-13.8-11.2-25-25-25s-25,11.2-25,25v56.6
			c-4,4.9-6.1,11.2-6,17.5v6.8c-22,11.4-37.4,34.5-37.4,61c-0.1,5.4,4.3,9.9,9.7,10c0,0.1,0.1,0.1,0.1,0.1h117.2c5.5,0,10-4.5,10-10
			C306.751,148.8,299.451,131.3,286.551,118.4z M233.051,25c0-2.8,2.2-5,5-5s5,2.2,5,5v46.8c-0.3,0-0.6,0.2-1,0.2h-8.1
			c-0.3,0-0.6-0.2-0.9-0.2V25z M233.551,92c0.1,0,0.3,0,0.4,0h8.1c3.8-0.1,6.9,2.9,7,6.7c0,0.1,0,0.3,0,0.4v0.1
			c-3.6-0.7-7.3-1-10.9-0.9c-3.7,0-7.4,0.3-11.1,1v-0.2C226.851,95.3,229.851,92.2,233.551,92z M190.551,157
			c4.7-22.5,24.6-38.6,47.6-38.7c23,0,42.9,16.2,47.6,38.7H190.551z"/>
	</g>
</g>
<g>
	<g>
		<path d="M178.051,185.1c-5.5,0-10,4.5-10,10v15c0,5.6,4.5,10,10,10s10-4.5,10-10v-15C188.051,189.6,183.551,185.1,178.051,185.1z"
			/>
	</g>
</g>
<g>
	<g>
		<path d="M208.051,185.1c-5.5,0-10,4.5-10,10v15c0,5.5,4.5,10,10,10s10-4.5,10-10v-15C218.051,189.6,213.551,185.1,208.051,185.1z"
			/>
	</g>
</g>
<g>
	<g>
		<path d="M238.051,185.1c-5.5,0-10,4.5-10,10v15c0,5.5,4.5,10,10,10s10-4.5,10-10v-15C248.051,189.6,243.551,185.1,238.051,185.1z"
			/>
	</g>
</g>
<g>
	<g>
		<path d="M268.051,185.1c-5.5,0-10,4.5-10,10v15c0,5.5,4.5,10,10,10s10-4.5,10-10v-15C278.051,189.6,273.551,185.1,268.051,185.1z"
			/>
	</g>
</g>
<g>
	<g>
		<path d="M298.051,185.1c-5.5,0-10,4.5-10,10v15c0,5.5,4.5,10,10,10s10-4.5,10-10v-15C308.051,189.6,303.551,185.1,298.051,185.1z"
			/>
	</g>
</g>
<g>
	<g>
		<path d="M382.251,320.3l-5.4-5.2c0-0.1,0-0.2-0.1-0.3l-23.3-54c-4.9-11.5-16.3-18.8-28.8-18.7h-169.1
			c-12.5-0.1-23.8,7.3-28.8,18.7l-23,53.4l-8.3,7.1c-9.2,7.8-14.5,19.3-14.4,31.4v92.6c-0.1,16.9,13.4,30.7,30.3,30.8
			c0.1,0,0.1,0,0.2,0h17.4c17.1,0,31-13.7,31.1-30.8V435h156v10.2c0.1,17.1,14,30.8,31.1,30.8h17.4c16.9,0,30.5-13.7,30.5-30.6
			c0-0.1,0-0.1,0-0.2v-94.9C395.051,338.9,390.451,328.1,382.251,320.3z M145.051,268.8c1.8-4.1,5.9-6.8,10.4-6.8h169.3
			c4.5,0,8.6,2.6,10.4,6.8l17.3,40.2h-6.8c-5.5-26.3-31.3-43.1-57.5-37.5c-18.8,4-33.6,18.7-37.5,37.5h-122.9L145.051,268.8z
			 M324.951,309h-53.5c5.5-14.8,22-22.3,36.8-16.8C315.951,295.1,322.051,301.2,324.951,309z M140.051,445.2
			c-0.1,6-5.1,10.8-11.1,10.8h-17.4c-5.8,0-10.5-4.7-10.5-10.6c0-0.1,0-0.2,0-0.2v-11.8c3,1.3,6.7,1.6,10.5,1.6h28.5V445.2z
			 M375.051,445.2c0.1,5.8-4.5,10.7-10.3,10.8c-0.1,0-0.1,0-0.2,0h-17.4c-6,0-11-4.8-11.1-10.8V435h28.5c3.8,0,7.5-0.3,10.5-1.6
			V445.2z M365.051,415c-0.2,0-0.3,0-0.5,0h-253c-5.7,0.1-10.4-4.3-10.5-10c0-0.2,0-0.3,0-0.5v-51.9c-0.1-6.2,2.6-12.1,7.3-16.1
			l8.9-7.6h245l6.3,5.9c4.2,4,6.6,9.5,6.5,15.3l0,54.4C375.151,410.2,370.651,414.8,365.051,415z"/>
	</g>
</g>
<g>
	<g>
		<path d="M171.051,348h-50c-5.5,0-10,4.5-10,10v34c0,5.5,4.5,10,10,10h50c5.5,0,10-4.5,10-10v-34
			C181.051,352.5,176.551,348,171.051,348z M161.051,382h-30v-14h30V382z"/>
	</g>
</g>
<g>
	<g>
		<path d="M355.051,348h-50c-5.5,0-10,4.5-10,10v34c0,5.5,4.5,10,10,10h50c5.5,0,10-4.5,10-10v-34
			C365.051,352.5,360.551,348,355.051,348z M345.051,382h-30v-14h30V382z"/>
	</g>
</g>
<g>
	<g>
		<path d="M269.851,381h-63.6c-5.5,0-10,4.5-10,10s4.5,10,10,10h63.6c5.5,0,10-4.5,10-10S275.351,381,269.851,381z"/>
	</g>
</g>
<g>
	<g>
		<path d="M269.851,355h-63.6c-5.5,0-10,4.5-10,10s4.5,10,10,10h63.6c5.5,0,10-4.5,10-10S275.351,355,269.851,355z"/>
	</g>
</g>
<g>
</g>
<g>
</g>
<g>
</g>
<g>
</g>
<g>
</g>
<g>
</g>
<g>
</g>
<g>
</g>
<g>
</g>
<g>
</g>
<g>
</g>
<g>
</g>
<g>
</g>
<g>
</g>
<g>
</g>
</svg>
