<?xml version="1.0" encoding="iso-8859-1"?>
<!-- Generator: Adobe Illustrator 19.0.0, SVG Export Plug-In . SVG Version: 6.00 Build 0)  -->
<svg version="1.1" id="Capa_1"  xmlns="http://www.w3.org/2000/svg" xmlns:xlink="http://www.w3.org/1999/xlink" x="0px" y="0px"
	 viewBox="0 0 477.956 477.956" style="enable-background:new 0 0 477.956 477.956;" xml:space="preserve">
<g>
	<g>
		<path d="M289.378,120.7c-5.4-5.4-11.6-9.9-18.5-13.3V100c0.1-6.4-2-12.7-6-17.8V26c0-14.4-11.6-26-26-26c-14.4,0-26,11.6-26,26v56
			c-4.4,5-6.8,11.4-7,18v7.5c-23.8,12.3-38.8,36.8-38.8,63.6c0.1,5.6,4.6,10,10.2,9.9h123c5.5,0.1,9.9-4.3,10-9.8
			C310.378,152.2,302.878,134,289.378,120.7z M232.878,26c0-3.3,2.7-6,6-6s6,2.7,6,6v45.9c-0.6,0-1.2,0.1-1.9,0.1h-8.5
			c-0.5,0-1.1-0.2-1.6-0.1V26z M225.878,100c0-4.5,4.1-8,8.6-8h8.5c4.3-0.1,7.8,3.4,7.9,7.7c0,0.1,0,0.2,0,0.3v0.7
			c-4.1-0.7-8.3-1.1-12.4-1.1c-4.2,0-8.4,0.4-12.6,1.1V100z M188.278,161c4.6-23,25.5-41.5,50.6-41.5c13.7-0.1,26.9,5.4,36.5,15.1
			c7.2,7.2,12.1,16.4,14,26.4H188.278z"/>
	</g>
</g>
<g>
	<g>
		<path d="M175.878,190.8c-5.5,0-10,4.5-10,10v15.8c0,5.5,4.5,9.9,10,9.9s10-4.5,10-10v-15.7
			C185.878,195.3,181.378,190.8,175.878,190.8z"/>
	</g>
</g>
<g>
	<g>
		<path d="M206.878,190.8c-5.5,0-10,4.4-10,10v15.8c0,5.5,4.5,10,10,10s10-4.5,10-10v-15.8
			C216.878,195.3,212.378,190.8,206.878,190.8z"/>
	</g>
</g>
<g>
	<g>
		<path d="M238.878,190.8c-5.5,0-10,4.4-10,10v15.8c0,5.5,4.5,10,10,10s10-4.5,10-10v-15.8
			C248.878,195.3,244.378,190.8,238.878,190.8z"/>
	</g>
</g>
<g>
	<g>
		<path d="M270.878,190.8c-5.5,0-10,4.4-10,10v15.8c0,5.5,4.5,10,10,10s10-4.5,10-10v-15.8
			C280.878,195.3,276.378,190.8,270.878,190.8z"/>
	</g>
</g>
<g>
	<g>
		<path d="M301.878,190.8c-5.5,0-10,4.5-10,10v15.8c0,5.5,4.5,10,10,10s10-4.5,10-10v-15.8
			C311.878,195.2,307.378,190.8,301.878,190.8z"/>
	</g>
</g>
<g>
	<g>
		<path d="M420.578,334l-54.4-50.7c-6.5-6-15.1-9.4-23.9-9.3h-12.4v-11h11.5c5.5,0,10-4.5,10-10s-4.5-10-10-10h-119.7
			c-5.5,0-10,4.5-10,10s4.5,10,10,10h11.2v11h-11.7c-9.7,0-18.9,4-25.5,11l-45.9,49.2c-2.8,3-6.8,4.8-10.9,4.8h-41.1
			c-28.4,0-51.9,22.8-51.9,51.3v20c0,19.3,16,34.8,35.3,34.8h4.8c7.1,24.2,32.5,38.1,56.8,31c14.9-4.4,26.6-16.1,31-31h130.9
			c7.1,24.2,32.5,38.1,56.8,31c14.9-4.4,26.6-16.1,31-31h4.3c19.3,0,35.3-15.5,35.3-34.8v-50.7
			C431.778,349.8,427.778,340.6,420.578,334z M342.278,294c3.8,0,7.5,1.5,10.2,4.1l43.7,40.9h-51l-20.8-45H342.278z M129.778,458
			c-14.2,0-25.7-11.5-25.7-25.7s11.5-25.7,25.7-25.7s25.7,11.5,25.7,25.7S143.978,458,129.778,458z M250.878,424.9h-75.9
			c-3.5-22.2-22.7-38.6-45.2-38.5c-22.5,0-41.7,16.4-45.2,38.6h-3.4c-8.2,0-15.3-6.5-15.3-14.8v-20c0-17.4,14.5-31.3,31.9-31.3h41.1
			c1,0,2-0.3,3-0.4v0.4h109V424.9z M250.878,339h-78.1l37.5-40.2c2.8-3,6.8-4.8,10.9-4.8h29.7V339z M252.878,263h57v11h-57V263z
			 M323.178,339h-52.3v-45h31.5L323.178,339z M348.378,458c-14.2,0-25.7-11.5-25.7-25.7s11.5-25.7,25.7-25.7s25.7,11.5,25.7,25.7
			S362.578,458,348.378,458z M411.878,410.2c0,8.2-7,14.8-15.3,14.8h-3c-3.9-25-27.3-42-52.3-38.1c-19.6,3.1-35,18.5-38.1,38.1
			h-32.3v-66h140.6c0,0,0.4,0.3,0.4,0.5V410.2z"/>
	</g>
</g>
<g>
</g>
<g>
</g>
<g>
</g>
<g>
</g>
<g>
</g>
<g>
</g>
<g>
</g>
<g>
</g>
<g>
</g>
<g>
</g>
<g>
</g>
<g>
</g>
<g>
</g>
<g>
</g>
<g>
</g>
</svg>
