<?xml version="1.0" encoding="iso-8859-1"?>
<!-- Generator: Adobe Illustrator 19.0.0, SVG Export Plug-In . SVG Version: 6.00 Build 0)  -->
<svg version="1.1" id="Capa_1"  xmlns="http://www.w3.org/2000/svg" xmlns:xlink="http://www.w3.org/1999/xlink" x="0px" y="0px"
	 viewBox="0 0 471.38 471.38" style="enable-background:new 0 0 471.38 471.38;" xml:space="preserve">
<g>
	<g>
		<path d="M285.591,122c-5.2-5.4-11.3-9.9-18-13.2v-7.2c0-6.8-2.5-13.4-7-18.5V25c0-13.8-11.2-25-25-25s-25,11.2-25,25v57.8
			c-4.6,5.2-7.1,11.8-7,18.7v7.3c-23.7,12.1-38.6,36.4-38.6,63c-0.1,5.6,4.3,10.1,9.8,10.2h121.3c5.5,0,10-4.5,10-10
			C306.191,153.3,298.891,135.2,285.591,122z M230.591,25.1c0-2.7,2.2-5,5-5s5,2.2,5,5v48.6c-0.3,0-0.6,0.2-0.9,0.2h-8.4
			c-0.2,0-0.5-0.2-0.7-0.2V25.1z M223.591,101.7c-0.1-4.2,3.2-7.6,7.4-7.7c0.1,0,0.2,0,0.3,0h8.4c4.3-0.1,7.8,3.3,7.9,7.5
			c0,0.1,0,0.1,0,0.2v0.5c-3.9-0.7-7.9-1-11.9-1s-8.1,0.4-12.1,1.1V101.7z M185.791,161.9c4.9-23.5,25.6-40.5,49.8-40.7
			c13.5,0,26.4,5.3,35.9,14.9c7.1,7,11.9,16,13.7,25.8H185.791z"/>
	</g>
</g>
<g>
	<g>
		<path d="M173.591,191c-5.5,0-10,4.5-10,10v15.6c0,5.5,4.5,10,10,10s10-4.5,10-10V201C183.591,195.5,179.091,191,173.591,191z"/>
	</g>
</g>
<g>
	<g>
		<path d="M204.591,191c-5.5,0-10,4.5-10,10v15.6c0,5.5,4.5,10,10,10s10-4.5,10-10V201C214.591,195.5,210.091,191,204.591,191z"/>
	</g>
</g>
<g>
	<g>
		<path d="M235.591,191c-5.5,0-10,4.5-10,10v15.6c0,5.5,4.5,10,10,10s10-4.5,10-10V201C245.591,195.5,241.091,191,235.591,191z"/>
	</g>
</g>
<g>
	<g>
		<path d="M266.591,191c-5.5,0-10,4.5-10,10v15.6c0,5.5,4.5,10,10,10s10-4.5,10-10V201C276.591,195.5,272.091,191,266.591,191z"/>
	</g>
</g>
<g>
	<g>
		<path d="M297.591,191c-5.5,0-10,4.5-10,10v15.6c0,5.5,4.5,10,10,10s10-4.5,10-10V201C307.591,195.5,303.091,191,297.591,191z"/>
	</g>
</g>
<g>
	<g>
		<path d="M417.491,338l-32.1-14.6l-28.4-45.3c-8.6-13.8-23.8-22.2-40-22.1h-122c-14.7,0-28.6,6.9-37.6,18.5l-36.6,48l-61.3,16.7
			c-16.5,4.5-27.9,19.5-27.8,36.6v23.6c0,20.7,16.7,37.5,37.4,37.5c0.1,0,0.2,0,0.3,0h4c7.3,25.3,33.8,39.9,59.1,32.6
			c15.7-4.5,28-16.8,32.6-32.6h136.5c7.3,25.3,33.8,39.9,59.1,32.6c15.7-4.5,28-16.8,32.6-32.6h8.7c20.7,0.2,37.6-16.5,37.7-37.2
			c0-0.1,0-0.2,0-0.3v-26.9C439.591,357.7,430.991,344.2,417.491,338z M119.191,451.9c-15.3,0-27.7-12.4-27.7-27.7
			c0-15.3,12.4-27.7,27.7-27.7c15.3,0,27.7,12.4,27.7,27.7C146.891,439.5,134.491,451.9,119.191,451.9z M347.391,451.9
			c-15.3,0-27.7-12.4-27.7-27.7c0-15.3,12.4-27.7,27.7-27.7s27.7,12.4,27.7,27.7C375.091,439.5,362.691,451.9,347.391,451.9z
			 M402.191,417c-0.1,0-0.3,0-0.4,0h-7.2c-3.7-26.1-27.9-44.2-54-40.5c-21,3-37.5,19.5-40.5,40.5h-133.7
			c-3.7-26.1-27.9-44.2-54-40.5c-21,3-37.5,19.5-40.5,40.5h-2.6c-9.6,0.2-17.6-7.5-17.7-17.1c0-0.1,0-0.3,0-0.4v-23.6
			c0-8.1,5.3-15.2,13.1-17.3l64.6-17.7c2.1-0.6,4-1.8,5.3-3.6l38.6-50.7c5.2-6.7,13.2-10.7,21.7-10.7h122
			c9.4-0.1,18.1,4.7,23.1,12.7l30,47.9c1,1.7,2.6,3,4.3,3.8l34.8,15.8c6.4,2.9,10.4,9.3,10.4,16.3v27.1h0.1
			C419.591,409.1,411.891,417,402.191,417z"/>
	</g>
</g>
<g>
</g>
<g>
</g>
<g>
</g>
<g>
</g>
<g>
</g>
<g>
</g>
<g>
</g>
<g>
</g>
<g>
</g>
<g>
</g>
<g>
</g>
<g>
</g>
<g>
</g>
<g>
</g>
<g>
</g>
</svg>
