<?xml version="1.0" encoding="iso-8859-1"?>
<!-- Generator: Adobe Illustrator 19.0.0, SVG Export Plug-In . SVG Version: 6.00 Build 0)  -->
<svg version="1.1" id="Capa_1"  xmlns="http://www.w3.org/2000/svg" xmlns:xlink="http://www.w3.org/1999/xlink" x="0px" y="0px"
	 viewBox="0 0 449.215 449.215" style="enable-background:new 0 0 449.215 449.215;" xml:space="preserve">
<g>
	<g>
		<path d="M429.457,288.8l-6.8-6.3V173.1c0.1-21-16.9-38-37.8-38.1c-0.1,0-0.1,0-0.2,0h-89.5c-10.2-0.1-18.4-8.3-18.4-18.5v-11.8
			c19.5-2.7,34-19.3,34-38.9V49.2c5-0.7,8.6-5,8.6-10c0.1-5.5-4.3-10.1-9.8-10.2h-11.3l0.1-19c0-5.5-4.4-10-9.9-10c0,0,0,0-0.1,0
			h-0.1c-5.5,0-10,4.4-10,9.9l-0.1,19.1h-18.5l-0.1-19.1c0-5.5-4.5-9.9-10-9.9h-0.1c-5.5,0-10,4.5-9.9,10l0.1,19h-11.3
			c-5.6,0.1-10.1,4.6-10.1,10.2c-0.1,5,3.4,9.3,8.3,10v16.6c0.1,18.1,12.5,33.8,30,38.1v12.6c0.1,21.2,17.2,38.4,38.4,38.5h89.5
			c9.9-0.1,18,7.9,18.1,17.8c0,0.1,0,0.2,0,0.3v90.8l-34.8-32.6c-7-6.6-16.3-10.3-26-10.3h-15.1v-22h14.1c5.5,0,10-4.5,10-10
			s-4.5-10-10-10h-135.7c-5.5,0-10,4.5-10,10s4.5,10,10,10h13.6v22h-14c-10.6,0-20.7,4.4-27.9,12.1l-52.1,55.9
			c-3.4,3.8-8.3,5.9-13.3,6h-46.6c-31.3-0.2-56.9,25-57.1,56.3c0,0.1,0,0.2,0,0.3v22.6c0,20.9,17,37.8,37.9,37.8c0.1,0,0.2,0,0.3,0
			h6.4c7.3,26.9,35.1,42.8,62,35.4c17.3-4.7,30.7-18.2,35.4-35.4h150.4c7.3,26.9,35.1,42.8,62,35.4c17.3-4.7,30.7-18.2,35.4-35.4
			h5.9c20.9,0.2,38-16.6,38.2-37.5c0-0.1,0-0.2,0-0.3v-57.4C441.657,306.2,437.157,296.1,429.457,288.8z M271.757,85h-5.7
			c-10.6,0-19.3-8.5-19.4-19.2V49h44v16.8c0.2,10.4-8.2,19-18.6,19.2C271.957,85,271.857,85,271.757,85z M341.957,241
			c4.6,0.1,9,1.9,12.4,5.2l52,48.8h-62l-24.8-54H341.957z M322.257,295h-62.6v-54h37.8L322.257,295z M238.657,199h68v22h-68V199z
			 M100.957,429.7c-16.9,0-30.5-13.7-30.5-30.5c0-16.9,13.7-30.5,30.5-30.5c16.9,0,30.5,13.7,30.5,30.5
			C131.457,416,117.857,429.7,100.957,429.7z M239.557,392h-88.6c-3.2-24-24.4-43.8-50-43.8c-25.6,0-46.8,19.8-50.1,43.8h-5.1
			c-10.1,0-18.2-7.7-18.2-17.8v-22.6c0-20.3,16.5-36.7,36.8-36.6c0.1,0,0.2,0,0.3,0h46.6c1.1-0.2,2.2-0.4,3.3-0.7v0.7h125V392z
			 M239.657,295h-93l44.7-48c3.4-3.8,8.3-5.9,13.3-6h35V295z M348.757,429.7c-16.9,0-30.5-13.7-30.5-30.5
			c0-16.9,13.7-30.5,30.5-30.5c16.9,0,30.5,13.7,30.5,30.5C379.257,416,365.657,429.7,348.757,429.7z M421.657,374.2
			c0,10.1-8.1,17.8-18.2,17.8h-4.6c-3.3-24-24.5-43.8-50.1-43.8s-46.7,19.8-50,43.8h-39.1v-77h161.9c0.1,0.6,0.1,1.2,0.1,1.8V374.2z
			"/>
	</g>
</g>
<g>
</g>
<g>
</g>
<g>
</g>
<g>
</g>
<g>
</g>
<g>
</g>
<g>
</g>
<g>
</g>
<g>
</g>
<g>
</g>
<g>
</g>
<g>
</g>
<g>
</g>
<g>
</g>
<g>
</g>
</svg>
