<?xml version="1.0" encoding="iso-8859-1"?>
<!-- Generator: Adobe Illustrator 19.0.0, SVG Export Plug-In . SVG Version: 6.00 Build 0)  -->
<svg version="1.1" id="Capa_1"  xmlns="http://www.w3.org/2000/svg" xmlns:xlink="http://www.w3.org/1999/xlink" x="0px" y="0px"
	 viewBox="0 0 485.246 485.246" style="enable-background:new 0 0 485.246 485.246;" xml:space="preserve">
<g>
	<g>
		<path d="M466.202,217.423l-1-0.3c-14.5-4.2-29.6,4.2-33.8,18.6c-6.2,21.5-16.9,57.8-20.1,68.8l-38.8,29l-6.6-3l24.1-24.5
			c9.9-10.1,10.3-26.1,1-36.8c-9.4-10.8-25.6-12.2-36.8-3.4l-64.2,49.1c-5,3.8-8.9,8.8-11.2,14.6l-34.2,109.1l92.5,36.5l14.6-59.9
			l92.8-54.4c6.9-4.1,12-10.6,14.3-18.3l25.5-92.4v-0.2C488.102,236.023,480.102,221.623,466.202,217.423z M465.102,245.023
			l-25.4,91.9c-0.9,2.8-2.8,5.3-5.3,6.8l-100.1,58.6l-11.2,45.8l-53.9-21.2l28.3-90.4c1-2.2,2.5-4.2,4.4-5.7l64.5-49.3l0.1-0.1
			c2.8-2.2,6.9-1.9,9.3,0.8c2.5,2.7,2.4,6.9-0.2,9.6l-44.1,44.9l43.3,19.9l53.7-40l0.9-3.2c0.1-0.5,13.6-46.5,21-72.1
			c1.1-3.7,5-5.9,8.7-5l0.8,0.3C463.902,237.423,466.102,241.323,465.102,245.023z"/>
	</g>
</g>
<g>
	<g>
		<path d="M206.802,329.823l-0.5-0.5c-2.3-5.8-6.2-10.9-11.2-14.6l-64.2-49.1c-11.2-8.9-27.4-7.4-36.8,3.4
			c-9.3,10.6-8.9,26.6,1,36.7l24.2,24.6l-6.6,3l-38.8-29c-3.2-10.9-13.8-47.2-20-68.7c-4.2-14.5-19.3-22.8-33.8-18.7l-1,0.3
			c-13.9,4.2-21.9,18.6-18.2,32.7l25.5,92.3l0.1,0.2c2.3,7.7,7.4,14.2,14.4,18.3l92.8,54.3l14.6,59.9l92.5-36.5L206.802,329.823z
			 M150.902,402.323l-100.1-58.6c-2.6-1.5-4.4-4-5.3-6.8l-25.4-91.9c-1-3.7,1.2-7.6,4.9-8.6l0.8-0.3c3.8-0.9,7.6,1.4,8.7,5.1
			c7.4,25.5,20.9,71.6,21,72l0.9,3.2l53.7,40l43.3-19.9l-44.2-44.9c-2.5-2.7-2.6-6.8-0.1-9.5c2.4-2.7,6.5-3,9.3-0.8l64.4,49.3
			l0.2,0.1c1.9,1.5,3.5,3.4,4.4,5.7l28.3,90.4l-53.6,21.3L150.902,402.323z"/>
	</g>
</g>
<g>
	<g>
		<path d="M385.602,87.723l-5.5-5.1c0-0.1-0.1-0.2-0.2-0.3l-23-53.5c-4.9-11.4-16.2-18.8-28.6-18.7h-167.3
			c-12.4-0.1-23.6,7.3-28.6,18.7l-22.7,52.8l-8.6,7c-9.2,7.7-14.6,19.1-14.7,31.2v91.4c0.2,16.9,14.4,30.9,31.2,30.9h17.2
			c17-0.1,30.7-13.9,30.8-30.9v-9.1h154v9.1c0.1,17,13.8,30.7,30.8,30.9h17.2c16.9,0,31-14,31-30.9v-93.8
			C398.502,106.123,393.802,95.423,385.602,87.723z M150.902,36.623c1.8-4,5.8-6.6,10.2-6.5h167.2c4.4-0.1,8.4,2.5,10.2,6.5l17,39.5
			h-6.4c-5.5-26-31-42.6-57-37.1c-18.6,3.9-33.1,18.5-37.1,37.1h-121.2L150.902,36.623z M328.302,76.123h-52.5
			c4-10,14.3-18.1,26.3-18.1S324.202,66.123,328.302,76.123z M145.602,211.223c-0.1,5.9-4.9,10.8-10.8,10.9h-17.2
			c-6-0.1-10.8-4.9-11-10.9v-11.4c4,1.2,7.3,2.3,11,2.3h28V211.223z M378.602,211.323c-0.2,5.9-5,10.7-11,10.8h-17.2
			c-5.9-0.1-10.7-4.9-10.8-10.9v-9.1h28c3.7,0,7-1.1,11-2.3V211.323z M378.602,171.123c-0.2,6-5,10.9-11,11h-250
			c-6-0.2-10.9-5-11-11v-51.3c0.1-6.2,2.9-12,7.6-16l9.2-7.7h241.9l6.5,6.1c4.2,4,6.7,9.5,6.8,15.3V171.123z"/>
	</g>
</g>
<g>
	<g>
		<path d="M176.602,115.123h-49c-5.5,0-10,4.5-10,10v34c0,5.5,4.5,10,10,10h49c5.5,0,10-4.5,10-10v-34
			C186.602,119.623,182.102,115.123,176.602,115.123z M166.602,149.123h-29v-14h29V149.123z"/>
	</g>
</g>
<g>
	<g>
		<path d="M357.602,115.123h-49c-5.5,0-10,4.5-10,10v34c0,5.5,4.5,10,10,10h49c5.5,0,10-4.5,10-10v-34
			C367.602,119.623,363.102,115.123,357.602,115.123z M347.602,149.123h-29v-14h29V149.123z"/>
	</g>
</g>
<g>
	<g>
		<path d="M274.002,147.123h-62.8c-5.5,0-10,4.5-10,10s4.5,10,10,10h62.8c5.5,0,10-4.5,10-10S279.502,147.123,274.002,147.123z"/>
	</g>
</g>
<g>
	<g>
		<path d="M274.002,122.123h-62.8c-5.5,0-10,4.5-10,10c0,5.5,4.5,10,10,10h62.8c5.5,0,10-4.5,10-10
			C284.002,126.623,279.502,122.123,274.002,122.123z"/>
	</g>
</g>
<g>
</g>
<g>
</g>
<g>
</g>
<g>
</g>
<g>
</g>
<g>
</g>
<g>
</g>
<g>
</g>
<g>
</g>
<g>
</g>
<g>
</g>
<g>
</g>
<g>
</g>
<g>
</g>
<g>
</g>
</svg>
