<?xml version="1.0" encoding="iso-8859-1"?>
<!-- Generator: Adobe Illustrator 19.0.0, SVG Export Plug-In . SVG Version: 6.00 Build 0)  -->
<svg version="1.1" id="Capa_1"  xmlns="http://www.w3.org/2000/svg" xmlns:xlink="http://www.w3.org/1999/xlink" x="0px" y="0px"
	 viewBox="0 0 485.246 485.246" style="enable-background:new 0 0 485.246 485.246;" xml:space="preserve">
<g>
	<g>
		<path d="M466.202,210.223l-1-0.3c-14.5-4.2-29.6,4.2-33.8,18.6c-6.2,21.5-16.9,57.8-20.1,68.8l-38.8,29l-6.6-3l24.1-24.5
			c9.9-10.1,10.3-26.1,1-36.8c-9.4-10.8-25.6-12.2-36.8-3.4l-64.2,49.1c-5,3.8-8.9,8.8-11.2,14.6l-34.2,109.2l92.5,36.5l14.6-59.9
			l92.8-54.4c6.9-4.1,12-10.6,14.3-18.3l25.5-92.4v-0.2C488.102,228.823,480.102,214.423,466.202,210.223z M465.102,237.823
			l-25.4,91.9c-0.9,2.8-2.8,5.3-5.3,6.8l-100.1,58.6l-11.2,45.8l-53.9-21.2l28.3-90.4c1-2.2,2.5-4.2,4.4-5.7l64.5-49.3l0.2-0.1
			c2.8-2.2,6.9-1.9,9.3,0.8c2.5,2.7,2.4,6.9-0.2,9.6l-44.1,44.9l43.3,19.9l53.7-40l0.9-3.2c0.1-0.5,13.6-46.5,21-72.1
			c1.1-3.7,5-5.9,8.7-5l0.8,0.3C463.902,230.323,466.102,234.123,465.102,237.823z"/>
	</g>
</g>
<g>
	<g>
		<path d="M206.802,322.723l-0.5-0.5c-2.3-5.8-6.2-10.9-11.2-14.6l-64.2-49.1c-11.2-8.9-27.4-7.4-36.8,3.4
			c-9.3,10.6-8.9,26.6,1,36.7l24.2,24.6l-6.6,3l-38.8-29c-3.2-10.9-13.8-47.2-20-68.7c-4.2-14.5-19.3-22.8-33.8-18.7l-1,0.3
			c-13.9,4.2-21.9,18.6-18.2,32.7l25.5,92.3l0.1,0.2c2.3,7.7,7.4,14.2,14.4,18.3l92.8,54.3l14.6,59.9l92.5-36.5L206.802,322.723z
			 M150.902,395.123l-100.1-58.6c-2.6-1.5-4.4-4-5.3-6.8l-25.4-91.9c-1-3.7,1.2-7.6,4.9-8.6l0.8-0.3c3.8-0.9,7.6,1.4,8.7,5.1
			c7.4,25.5,20.9,71.6,21,72l0.9,3.2l53.7,40l43.3-19.9l-44.2-44.9c-2.5-2.7-2.6-6.8-0.1-9.5c2.4-2.7,6.5-3,9.3-0.8l64.4,49.3
			l0.2,0.1c1.9,1.5,3.5,3.4,4.4,5.7l28.3,90.4l-53.6,21.3L150.902,395.123z"/>
	</g>
</g>
<g>
	<g>
		<path d="M414.702,103.923l-51.4-47.8c-6.3-5.8-14.5-8.9-23-8.9h-10.7v-10h9.8c5.5,0,10-4.5,10-10s-4.5-10-10-10h-113.1
			c-5.5,0-10,4.5-10,10s4.5,10,10,10h10.3v10h-10.7c-9.3,0-18.1,3.7-24.5,10.5l-43.4,46.3c-2.6,2.7-6.2,4.3-9.9,4.2h-38.9
			c-27.2,0-49.6,22.1-49.6,49.2v18.9c0.1,18.7,15.2,33.8,33.9,33.9h4.1c7,23.1,31.5,36.2,54.6,29.1c14-4.2,24.9-15.2,29.1-29.1
			h122.9c7,23.1,31.5,36.2,54.6,29.1c14-4.2,24.9-15.2,29.1-29.1h3.7c18.7-0.1,33.7-15.2,33.9-33.9v-47.9
			C425.402,119.123,421.502,110.223,414.702,103.923z M340.302,67.223c3.5-0.1,6.8,1.2,9.3,3.5l40.3,37.5h-46.5l-19.2-41H340.302z
			 M139.502,220.923c-13.1,0-23.8-10.7-23.8-23.8c0-13.1,10.7-23.8,23.8-23.8s23.8,10.7,23.8,23.8
			C163.202,210.323,152.602,220.923,139.502,220.923z M253.602,190.223h-71c-4-23.8-26.6-39.9-50.4-35.9
			c-18.4,3.1-32.8,17.5-35.9,35.9h-2.8c-7.6-0.1-13.8-6.3-13.9-13.9v-18.9h0c0-16.1,13.5-29.2,29.6-29.2h38.9c0.6,0,1.2,0,1.8,0
			c0.3,0,0.6,0,1,0h102.7V190.223z M253.602,108.223h-72.2l34.6-36.8c2.6-2.7,6.2-4.2,9.9-4.2h27.7V108.223z M256.602,37.223h53v10
			h-53V37.223z M321.402,108.223h-47.8v-41h28.6L321.402,108.223z M346.102,220.923c-13.1,0-23.8-10.7-23.8-23.8
			c0-13.1,10.7-23.8,23.8-23.8s23.8,10.7,23.8,23.8C369.902,210.323,359.302,220.923,346.102,220.923z M405.602,176.323
			c-0.1,7.6-6.3,13.8-13.9,13.9h-2.4c-4-23.8-26.6-39.9-50.4-35.9c-18.4,3.1-32.8,17.5-35.9,35.9h-29.4v-62h131.7
			c0,0,0.3,0.1,0.3,0.2V176.323z"/>
	</g>
</g>
<g>
</g>
<g>
</g>
<g>
</g>
<g>
</g>
<g>
</g>
<g>
</g>
<g>
</g>
<g>
</g>
<g>
</g>
<g>
</g>
<g>
</g>
<g>
</g>
<g>
</g>
<g>
</g>
<g>
</g>
</svg>
