<?xml version="1.0" encoding="iso-8859-1"?>
<!-- Generator: Adobe Illustrator 19.0.0, SVG Export Plug-In . SVG Version: 6.00 Build 0)  -->
<svg version="1.1" id="Capa_1"  xmlns="http://www.w3.org/2000/svg" xmlns:xlink="http://www.w3.org/1999/xlink" x="0px" y="0px"
	 viewBox="0 0 485.304 485.304" style="enable-background:new 0 0 485.304 485.304;" xml:space="preserve">
<g>
	<g>
		<path d="M466.202,204.452l-1-0.3c-14.5-4.2-29.6,4.2-33.8,18.6c-6.2,21.5-16.9,57.8-20.1,68.8l-38.8,29l-6.6-3l24.1-24.5
			c9.9-10.1,10.3-26.1,1-36.8c-9.4-10.8-25.6-12.2-36.8-3.4l-64.2,49.1c-5,3.8-8.9,8.8-11.2,14.6l-34.2,109.2l92.5,36.5l14.6-59.9
			l92.9-54.3c6.9-4.1,12-10.6,14.3-18.3l25.5-92.4v-0.2C488.102,223.152,480.102,208.652,466.202,204.452z M465.102,232.152
			l-25.4,91.9c-0.9,2.8-2.8,5.3-5.3,6.8l-100.1,58.6l-11.2,45.8l-53.9-21.2l28.3-90.4c1-2.2,2.5-4.2,4.4-5.7l64.5-49.3l0.1-0.1
			c2.8-2.2,6.9-1.9,9.3,0.8c2.5,2.7,2.4,6.9-0.2,9.6l-44.1,44.9l43.3,19.9l53.7-40l0.9-3.2c0.1-0.5,13.6-46.5,21-72.1
			c1.2-3.7,5-5.9,8.7-5l0.8,0.3C463.902,224.552,466.102,228.352,465.102,232.152z"/>
	</g>
</g>
<g>
	<g>
		<path d="M206.802,316.952l-0.5-0.5c-2.3-5.8-6.2-10.9-11.2-14.6l-64.2-49.1c-11.2-8.9-27.4-7.4-36.8,3.4
			c-9.3,10.6-8.9,26.6,1,36.7l24.2,24.6l-6.6,3l-38.8-29c-3.2-10.9-13.8-47.2-20-68.7c-4.2-14.5-19.3-22.8-33.8-18.7l-1,0.3
			c-13.9,4.2-21.9,18.6-18.2,32.7l25.5,92.3l0.1,0.2c2.3,7.7,7.4,14.2,14.4,18.3l92.8,54.3l14.6,59.9l92.5-36.5L206.802,316.952z
			 M150.902,389.452l-100.1-58.6c-2.6-1.5-4.4-4-5.3-6.8l-25.4-91.9c-1-3.7,1.2-7.6,4.9-8.6l0.8-0.3c3.8-0.9,7.6,1.4,8.7,5.1
			c7.4,25.5,20.9,71.6,21,72l0.9,3.2l53.7,40l43.3-19.9l-44.2-44.9c-2.5-2.7-2.6-6.8-0.1-9.5c2.4-2.7,6.5-3,9.3-0.8l64.4,49.3
			l0.2,0.1c1.9,1.5,3.5,3.4,4.4,5.7l28.3,90.4l-53.6,21.3L150.902,389.452z"/>
	</g>
</g>
<g>
	<g>
		<path d="M411.402,98.852l-29.6-13.4l-26.2-41.7c-8.1-13-22.4-20.8-37.7-20.7h-112.9c-13.8,0-26.9,6.4-35.4,17.3l-33.7,44.2
			l-56.7,15.4c-15.6,4.2-26.5,18.3-26.6,34.5v21.8c0,19.8,16.4,35.8,36.2,35.8h3.1c7.2,23.7,32.2,37.1,56,30
			c14.4-4.3,25.6-15.6,30-30h125.2c7.2,23.7,32.2,37.1,56,30c14.4-4.3,25.6-15.6,30-30h7.4c19.7,0,36.1-16,36.1-35.7v-24.9
			C432.502,117.352,424.202,104.652,411.402,98.852z M134.902,204.052c-13.7,0-24.9-11.1-24.9-24.9c0-13.8,11.1-24.9,24.9-24.9
			c13.7,0,24.9,11.1,24.9,24.9C159.802,192.852,148.602,204.052,134.902,204.052z M346.002,204.052c-13.7,0-24.9-11.1-24.9-24.9
			c0-13.7,11.1-24.9,24.9-24.9c13.7,0,24.9,11.1,24.9,24.9C370.902,192.852,359.702,204.052,346.002,204.052z M412.702,156.152
			c0,8.7-7.5,15.7-16.2,15.7h-6.1c-3.4-21-22-37.9-44.3-37.9s-41.1,17.1-44.5,38.1h-122.3c-3.4-21-22-37.9-44.3-37.9
			s-41.1,16.9-44.4,37.9h-1.7c-8.7,0-16.2-7-16.2-15.7v-21.9h-0.1c0.1-7.2,4.9-13.4,11.9-15.3l59.9-16.3c2.1-0.6,4-1.8,5.4-3.6
			l35.8-46.8c4.7-6,11.9-9.5,19.5-9.5h112.9c8.4-0.1,16.3,4.2,20.7,11.3l27.8,44.3c1,1.6,2.6,3,4.3,3.7l32.4,14.6
			c5.7,2.5,9.4,8.2,9.5,14.4V156.152z"/>
	</g>
</g>
<g>
</g>
<g>
</g>
<g>
</g>
<g>
</g>
<g>
</g>
<g>
</g>
<g>
</g>
<g>
</g>
<g>
</g>
<g>
</g>
<g>
</g>
<g>
</g>
<g>
</g>
<g>
</g>
<g>
</g>
</svg>
