<?xml version="1.0" encoding="iso-8859-1"?>
<!-- Generator: Adobe Illustrator 19.0.0, SVG Export Plug-In . SVG Version: 6.00 Build 0)  -->
<svg version="1.1" id="Capa_1"  xmlns="http://www.w3.org/2000/svg" xmlns:xlink="http://www.w3.org/1999/xlink" x="0px" y="0px"
	 viewBox="0 0 468.2 468.2" style="enable-background:new 0 0 468.2 468.2;" xml:space="preserve">
<g>
	<g>
		<path d="M401.691,77.8l-5.4-5.1c0-0.1-0.1-0.2-0.1-0.3l-23-53.6c-4.9-11.4-16.1-18.8-28.6-18.8h-167.4c-12.4,0-23.7,7.4-28.6,18.8
			l-22.7,52.8l-8.2,7.1c-9.1,7.8-14.4,19.2-14.3,31.2v91.4c-0.1,16.8,13.4,30.5,30.2,30.7c0.1,0,0.2,0,0.2,0h17.2
			c16.9-0.1,30.5-13.8,30.5-30.7V192h154v9.3c0,16.9,14.2,30.7,31.1,30.7h17.2c16.9,0,30.7-13.7,30.8-30.7v-93.8
			C414.492,96.2,409.892,85.5,401.691,77.8z M166.992,26.5c1.8-4,5.8-6.6,10.2-6.5h167.2c4.4-0.1,8.4,2.5,10.2,6.5l17,39.5h-6.4
			c-4.6-21-24-38.1-47.1-38.1s-42.4,17.1-47.1,38.1h-121L166.992,26.5z M344.392,66h-52.5c4-10,14.3-18.1,26.3-18.1
			S340.392,56,344.392,66z M161.492,201.3c0,5.8-4.7,10.6-10.5,10.7h-17.2c-5.7-0.1-10.4-4.8-10.3-10.5c0-0.1,0-0.1,0-0.2v-11.4
			c3.3,1.4,6.8,2.1,10.3,2.1h27.7V201.3z M394.392,201.4c0,5.8-4.8,10.6-10.7,10.6h-17.2c-5.8,0-11.1-4.8-11.1-10.7V192h28.2
			c3.7,0,7.3-0.8,10.8-2.1V201.4z M394.392,161.2c-0.1,5.9-4.8,10.7-10.8,10.8h-249.8c-5.8-0.1-10.4-5-10.3-10.8v-51.3
			c-0.1-6.2,2.6-12.1,7.2-16.1l8.8-7.8h241.9l6.4,6.2c4.2,4,6.6,9.6,6.6,15.4V161.2z"/>
	</g>
</g>
<g>
	<g>
		<path d="M192.492,106h-49c-5.5,0-10,4.5-10,10v34c0,5.5,4.5,10,10,10h49c5.5,0,10-4.5,10-10v-34
			C202.492,110.5,197.992,106,192.492,106z M182.492,139h-29v-13h29V139z"/>
	</g>
</g>
<g>
	<g>
		<path d="M374.492,106h-49c-5.5,0-10,4.5-10,10v34c0,5.5,4.5,10,10,10h49c5.5,0,10-4.5,10-10v-34
			C384.492,110.5,379.992,106,374.492,106z M364.492,139h-29v-13h29V139z"/>
	</g>
</g>
<g>
	<g>
		<path d="M290.092,138h-62.8c-5.5,0-10,4.5-10,10s4.5,10,10,10h62.8c5.5,0,10-4.5,10-10S295.592,138,290.092,138z"/>
	</g>
</g>
<g>
	<g>
		<path d="M290.092,112h-62.8c-5.5,0-10,4.5-10,10s4.5,10,10,10h62.8c5.5,0,10-4.5,10-10S295.592,112,290.092,112z"/>
	</g>
</g>
<g>
	<g>
		<path d="M437.592,243l-1-0.9c-13.6-13.4-35.5-13.2-48.9,0.4c-23,23.4-62.4,63.1-72.4,73.2l-71.8,10.5l-11.3-15l52.3-16.1
			c16.9-5.1,27.1-22.8,23.2-40.3c-4-17.6-21-29-38.8-25.8l-113,17.9c-8,1.2-15.6,4.6-21.8,9.8l-113.4,110.2l85.2,101.3l56.6-62.6
			l154.2-5.2c10.3-0.4,20.1-4.7,27.5-12l94-97.9l0.1-0.1C450.892,277,450.492,256,437.592,243z M423.592,276.7l-93.7,97.5
			c-3.7,3.7-8.7,5.9-14,6.1l-162.6,5.5l-46.9,51.9l-58.4-69.5l99.3-96.5c3.3-2.7,7.3-4.4,11.5-5.1l113.6-18h0.2
			c7.2-1.2,14.2,3.3,15.9,10.5c1.7,7.2-2.4,14.5-9.5,16.8l-79.6,24.5l35.5,47.2l90.1-13.1l2.4-2.4c0.5-0.5,48.4-48.8,74.8-75.7
			c5.6-5.5,14.5-5.7,20.3-0.4l0.7,0.8C428.692,262.2,428.892,271.1,423.592,276.7z"/>
	</g>
</g>
<g>
</g>
<g>
</g>
<g>
</g>
<g>
</g>
<g>
</g>
<g>
</g>
<g>
</g>
<g>
</g>
<g>
</g>
<g>
</g>
<g>
</g>
<g>
</g>
<g>
</g>
<g>
</g>
<g>
</g>
</svg>
