<?xml version="1.0" encoding="iso-8859-1"?>
<!-- Generator: Adobe Illustrator 19.0.0, SVG Export Plug-In . SVG Version: 6.00 Build 0)  -->
<svg version="1.1" id="Capa_1"  xmlns="http://www.w3.org/2000/svg" xmlns:xlink="http://www.w3.org/1999/xlink" x="0px" y="0px"
	 viewBox="0 0 453.9 453.9" style="enable-background:new 0 0 453.9 453.9;" xml:space="preserve">
<g>
	<g>
		<path d="M423.642,86.9l-51.3-47.9c-6.2-5.8-14.4-9-22.9-9h-11V20h10.1c5.5,0,10-4.5,10-10s-4.5-10-10-10h-113.2
			c-5.5,0-10,4.5-10,10s4.5,10,10,10h10v10h-10.4c-9.3,0-18.2,3.8-24.5,10.6l-43.4,46.2c-2.6,2.7-6.2,4.2-9.9,4.2h-38.9
			c-27.2,0-48.9,22.3-48.9,49.5v18.9c-0.2,18.4,14.6,33.5,33,33.7c0.1-0.1,0.1-0.1,0.2-0.1h4.1c7,23.1,31.5,36.2,54.6,29.1
			c14-4.2,24.9-15.2,29.1-29.1h122.9c7,23.1,31.5,36.2,54.6,29.1c14-4.2,24.9-15.2,29.1-29.1h3.7c18.6-0.1,33.7-15.1,33.7-33.7
			v-47.9C434.342,102.1,430.442,93.2,423.642,86.9z M349.342,50c3.5-0.1,6.8,1.2,9.3,3.5l40.3,37.5h-46.5l-19.1-41H349.342z
			 M148.442,203.9c-13.1,0-23.8-10.7-23.8-23.8c0-13.1,10.7-23.8,23.8-23.8s23.8,10.7,23.8,23.8
			C172.242,193.3,161.642,203.9,148.442,203.9z M262.342,173h-70.7c-4-23.8-26.6-39.9-50.4-35.9c-18.4,3.1-32.9,17.5-36,35.9h-2.8
			c-7.4,0-13.1-6.2-13.1-13.7v-18.8c0-16.1,12.7-29.5,28.9-29.5h38.9c0.6,0,1.2,0,1.8,0c0.3,0,0.6,0,1,0h102.4V173z M262.342,91h-72
			l34.7-36.8c2.6-2.7,6.2-4.2,9.9-4.2h27.4V91z M265.342,20h53v10h-53V20z M330.442,91h-48.1V50h28.9L330.442,91z M355.142,203.9
			c-13.1,0-23.8-10.7-23.8-23.8c0-13.1,10.7-23.8,23.8-23.8s23.8,10.7,23.8,23.9C378.942,193.3,368.242,203.9,355.142,203.9z
			 M414.342,159.3c0,7.6-6.1,13.7-13.6,13.7h-2.4c-4-23.8-26.6-39.9-50.4-35.9c-18.4,3.1-32.8,17.5-35.9,35.9h-29.7v-62h131.9
			c0,0.1,0.1,0.3,0.1,0.4V159.3z"/>
	</g>
</g>
<g>
	<g>
		<path d="M430.442,228.7l-1-0.9c-13.6-13.4-35.5-13.2-48.9,0.4c-23,23.4-62.4,63.1-72.4,73.2l-71.8,10.5l-11.3-15l52.3-16.1
			c16.9-5.1,27.1-22.8,23.2-40.3c-4-17.6-21-29-38.8-25.8l-113,18c-8,1.2-15.6,4.6-21.8,9.8l-113.4,110.1l85.2,101.3l56.6-62.6
			l154.2-5.2c10.3-0.4,20.1-4.7,27.5-12l94-97.9l0.1-0.1C443.742,262.7,443.342,241.7,430.442,228.7z M416.442,262.5l-93.7,97.5
			c-3.7,3.7-8.7,5.9-14,6.1l-162.6,5.5l-46.9,51.9l-58.5-69.5l99.3-96.5c3.3-2.7,7.3-4.4,11.5-5.1l113.6-18h0.2
			c7.2-1.2,14.2,3.3,15.9,10.5c1.7,7.2-2.4,14.5-9.5,16.8l-79.6,24.5l35.5,47.2l90.1-13.1l2.4-2.4c0.5-0.5,48.4-48.8,74.8-75.7
			c5.6-5.5,14.5-5.7,20.3-0.4l0.7,0.8C421.542,248,421.742,256.8,416.442,262.5z"/>
	</g>
</g>
<g>
</g>
<g>
</g>
<g>
</g>
<g>
</g>
<g>
</g>
<g>
</g>
<g>
</g>
<g>
</g>
<g>
</g>
<g>
</g>
<g>
</g>
<g>
</g>
<g>
</g>
<g>
</g>
<g>
</g>
</svg>
