<?xml version="1.0" encoding="iso-8859-1"?>
<!-- Generator: Adobe Illustrator 19.0.0, SVG Export Plug-In . SVG Version: 6.00 Build 0)  -->
<svg version="1.1" id="Capa_1"  xmlns="http://www.w3.org/2000/svg" xmlns:xlink="http://www.w3.org/1999/xlink" x="0px" y="0px"
	 viewBox="0 0 436.306 436.306" style="enable-background:new 0 0 436.306 436.306;" xml:space="preserve">
<g>
	<g>
		<path d="M424.306,241.209l-61.1-57c-7-6.6-16.3-10.2-25.9-10.1h-15v-16h13.9c5.5,0,10-4.5,10-10s-4.5-10-10-10h-134.8
			c-5.5,0-10,4.5-10,10s4.5,10,10,10h13.9v16h-14.3c-10.5,0-20.6,4.3-27.8,11.9l-51.7,55.1c0,0-0.1,0-0.1,0.1l-68.2-53.6
			c-0.1-0.1-0.2-0.2-0.4-0.3c-12.2-8.8-28.9-7.9-40.2,2l-9.1,8c-4.2,3.6-4.7,9.9-1.1,14.1c3.6,4.2,9.9,4.7,14.1,1.1
			c0.1-0.1,0.1-0.1,0.2-0.2l9.1-8c4.3-3.7,10.6-4,15.3-0.7l55.1,43.5h-34.2c-31.2-0.1-56.6,25.1-56.7,56.3c0,0.1,0,0.1,0,0.2v22.5
			c0,21,16.9,38,37.9,38c0,0,0,0,0.1,0h6.3c7.3,26.8,35,42.5,61.7,35.2c17.1-4.7,30.5-18.1,35.2-35.2h149.3
			c7.3,26.8,35,42.5,61.7,35.2c17.1-4.7,30.5-18.1,35.2-35.2h5.8c20.9,0,37.9-17,37.8-37.9v-0.1v-57.1
			C436.306,258.509,432.006,248.409,424.306,241.209z M337.306,194.109c4.6,0,9,1.7,12.4,4.9l51.5,48.1h-61.4l-24.6-53H337.306z
			 M317.706,247.109h-61.4v-53h36.8L317.706,247.109z M235.306,158.109h67v16h-67V158.109z M98.006,381.109
			c-16.7,0-30.2-13.5-30.2-30.2s13.5-30.2,30.2-30.2s30.2,13.5,30.2,30.2S114.706,381.109,98.006,381.109z M236.306,344.109h-88.5
			c-3.3-24-24.4-43.5-49.8-43.5c-25.4,0-46.5,19.5-49.8,43.5h-5c-9.9,0-17.9-8-17.9-18v-22.5c0-20.1,16.3-36.5,36.4-36.5
			c0.1,0,0.2,0,0.2,0h46.4c0.7,0,1.4,0,2.2-0.1c0.4,0,0.7,0.1,1.1,0.1h124.7V344.109z M236.306,247.109h-92.8l44.3-47.3
			c3.4-3.6,8.2-5.7,13.2-5.7h35.3V247.109z M344.206,381.109c-16.7,0-30.2-13.5-30.2-30.2s13.5-30.2,30.2-30.2s30.2,13.5,30.2,30.2
			C374.406,367.609,360.906,381.109,344.206,381.109z M416.306,269.009v57.1c0.1,9.9-7.8,17.9-17.7,18c-0.1,0-0.1,0-0.2,0h-4.5
			c-3.3-24-24.4-43.5-49.8-43.5c-25.4,0-46.5,19.5-49.8,43.5h-38v-77h160.1C416.506,267.109,416.306,268.309,416.306,269.009z"/>
	</g>
</g>
<g>
	<g>
		<path d="M92.006,98.009c0-9.5-3.4-14.8-5.8-18.6c-1.8-2.9-2.7-4.2-2.7-7.8c0-3.6,0.8-5,2.7-7.8c2.5-3.8,5.8-9.1,5.8-18.6
			c0-5.5-4.5-10-10-10s-10,4.5-10,10c0,3.7-0.8,5-2.7,7.8c-2.5,3.8-5.8,9.1-5.8,18.6s3.4,14.8,5.8,18.6c1.8,2.9,2.7,4.2,2.7,7.8
			c0,3.6-0.8,5-2.7,7.9c-2.4,3.8-5.8,9-5.8,18.6c0,9.5,3.4,14.8,5.8,18.6c1.8,2.9,2.7,4.2,2.7,7.9c0,5.5,4.5,10,10,10s10-4.5,10-10
			c0-9.5-3.4-14.8-5.8-18.6c-1.8-2.9-2.7-4.2-2.7-7.9c0-3.7,0.8-5,2.7-7.9C88.706,112.809,92.006,107.509,92.006,98.009z"/>
	</g>
</g>
<g>
	<g>
		<path d="M122.006,124.509c0-3.7,0.8-5,2.7-7.9c2.5-3.8,5.8-9.1,5.8-18.6s-3.4-14.8-5.8-18.6c-1.8-2.9-2.7-4.2-2.7-7.8
			c0-5.5-4.5-10-10-10s-10,4.5-10,10c0,9.5,3.4,14.8,5.8,18.6c1.8,2.9,2.7,4.2,2.7,7.8c0,3.6-0.8,5-2.7,7.9c-2.4,3.8-5.8,9-5.8,18.6
			c0,9.5,3.4,14.8,5.8,18.6c1.8,2.9,2.7,4.2,2.7,7.9c0,5.5,4.5,10,10,10s10-4.5,10-10c0-9.5-3.4-14.8-5.8-18.6
			C122.906,129.509,122.006,128.209,122.006,124.509z"/>
	</g>
</g>
<g>
	<g>
		<path d="M45.006,124.509c0-3.7,0.8-5,2.7-7.9c2.5-3.8,5.8-9.1,5.8-18.6s-3.4-14.8-5.8-18.6c-1.8-2.9-2.7-4.2-2.7-7.8
			c0-5.5-4.5-10-10-10s-10,4.5-10,10c0,9.5,3.4,14.8,5.8,18.6c1.8,2.9,2.7,4.2,2.7,7.8c0,3.6-0.8,5-2.7,7.9c-2.4,3.8-5.8,9-5.8,18.6
			c0,9.5,3.4,14.8,5.8,18.6c1.8,2.9,2.7,4.2,2.7,7.9c0,5.5,4.5,10,10,10s10-4.5,10-10c0-9.5-3.4-14.8-5.8-18.6
			C45.906,129.509,45.006,128.209,45.006,124.509z"/>
	</g>
</g>
<g>
</g>
<g>
</g>
<g>
</g>
<g>
</g>
<g>
</g>
<g>
</g>
<g>
</g>
<g>
</g>
<g>
</g>
<g>
</g>
<g>
</g>
<g>
</g>
<g>
</g>
<g>
</g>
<g>
</g>
</svg>
