<?xml version="1.0" encoding="iso-8859-1"?>
<!-- Generator: Adobe Illustrator 19.0.0, SVG Export Plug-In . SVG Version: 6.00 Build 0)  -->
<svg version="1.1" id="Capa_1"  xmlns="http://www.w3.org/2000/svg" xmlns:xlink="http://www.w3.org/1999/xlink" x="0px" y="0px"
	 viewBox="0 0 465.933 465.933" style="enable-background:new 0 0 465.933 465.933;" xml:space="preserve">
<g>
	<g>
		<path d="M441.432,269.566l-36.6-16.6l-32.3-51.5c-9.4-15.2-26.1-24.5-44-24.4h-137.5c-16.2,0.1-31.5,7.6-41.3,20.5l-33.7,44.3
			l-64.2-45.7c-12-8.6-28.4-7.8-39.5,2l-8.9,7.7c-4.2,3.6-4.6,10-0.9,14.1c3.7,4.1,10,4.6,14.1,0.9l8.9-7.7
			c4.1-3.6,10.2-3.9,14.7-0.7l59,42l-60.7,16.6c-18,4.9-30.6,21.3-30.7,40v26.6c0.1,22.9,18.8,41.4,41.7,41.4h5.5
			c6,22,26.5,38.8,50.7,38.8s44.6-16.8,50.7-38.8h155.7c6,22,26.5,38.8,50.7,38.8s44.6-16.8,50.7-38.8h10.7
			c22.9,0,41.6-18.5,41.7-41.4v-30.4C465.733,291.066,456.233,276.266,441.432,269.566z M262.833,197.066h65.7
			c11,0,21.2,5.7,27.1,15l23.8,38h-116.6V197.066z M165.533,209.666c6.1-7.9,15.5-12.6,25.4-12.6h51.9v53h-108L165.533,209.666z
			 M105.633,397.966c-17.9,0-32.5-14.5-32.5-32.5c0-17.9,14.5-32.5,32.5-32.5c17.9,0,32.5,14.5,32.5,32.5
			C138.133,383.366,123.633,397.966,105.633,397.966z M362.733,397.966c-17.9,0-32.5-14.6-32.5-32.5c0-17.9,14.6-32.5,32.5-32.5
			s32.5,14.6,32.5,32.5C395.233,383.366,380.733,397.966,362.733,397.966z M445.833,337.666c-0.1,11.9-9.8,21.4-21.7,21.4h-9.3
			c-3.5-28.8-29.6-49.3-58.4-45.8c-24,2.9-42.9,21.8-45.8,45.8h-152.9c-3.5-28.8-29.6-49.3-58.4-45.8c-24,2.9-42.9,21.8-45.8,45.8
			h-4c-11.9,0-21.6-9.5-21.7-21.4v-26.6c0.1-9.7,6.6-18.2,15.9-20.7l72.9-19.9c0.4-0.1,0.8-0.2,1.2-0.4h276.3l39,17.7
			c7.7,3.5,12.6,11.1,12.7,19.6V337.666z"/>
	</g>
</g>
<g>
	<g>
		<path d="M103.333,109.566c0-9.4-3.3-14.5-5.7-18.3c-1.7-2.7-2.5-4-2.5-7.5s0.8-4.7,2.5-7.5c2.4-3.8,5.7-8.9,5.7-18.2
			c0-5.5-4.5-10-10-10s-10,4.5-10,10c0,3.5-0.8,4.7-2.5,7.5c-2.4,3.8-5.7,8.9-5.7,18.2s3.3,14.5,5.7,18.3c1.7,2.7,2.5,4,2.5,7.5
			s-0.8,4.8-2.5,7.5c-2.4,3.8-5.7,8.9-5.7,18.3c0,9.4,3.3,14.5,5.7,18.3c1.7,2.7,2.5,4,2.5,7.5c0,5.5,4.5,10,10,10s10-4.5,10-10
			c0-9.4-3.3-14.5-5.7-18.3c-1.7-2.7-2.5-4-2.5-7.5s0.8-4.8,2.5-7.5C100.033,124.066,103.333,118.966,103.333,109.566z"/>
	</g>
</g>
<g>
	<g>
		<path d="M132.633,135.366c0-3.5,0.8-4.8,2.5-7.5c2.4-3.8,5.7-8.9,5.7-18.3s-3.3-14.5-5.7-18.3c-1.7-2.7-2.5-4-2.5-7.5
			c0-5.5-4.5-10-10-10c-5.5,0-10,4.5-10,10c0,9.4,3.3,14.5,5.7,18.3c1.7,2.7,2.5,4,2.5,7.5s-0.8,4.8-2.5,7.5
			c-2.4,3.8-5.7,8.9-5.7,18.3c0,9.4,3.3,14.5,5.7,18.3c1.7,2.7,2.5,4,2.5,7.5c0,5.5,4.5,10,10,10c5.5,0,10-4.5,10-10
			c0-9.4-3.3-14.5-5.7-18.3C133.433,140.166,132.633,138.866,132.633,135.366z"/>
	</g>
</g>
<g>
	<g>
		<path d="M57.733,135.366c0-3.5,0.8-4.8,2.5-7.5c2.4-3.8,5.7-8.9,5.7-18.3s-3.3-14.5-5.7-18.3c-1.7-2.7-2.5-4-2.5-7.5
			c0-5.5-4.5-10-10-10s-10,4.5-10,10c0,9.4,3.3,14.5,5.7,18.3c1.7,2.7,2.5,4,2.5,7.5s-0.8,4.8-2.5,7.5c-2.4,3.8-5.7,8.9-5.7,18.3
			c0,9.4,3.3,14.5,5.7,18.3c1.7,2.7,2.5,4,2.5,7.5c0,5.5,4.5,10,10,10s10-4.5,10-10c0-9.4-3.3-14.5-5.7-18.3
			C58.533,140.166,57.733,138.866,57.733,135.366z"/>
	</g>
</g>
<g>
</g>
<g>
</g>
<g>
</g>
<g>
</g>
<g>
</g>
<g>
</g>
<g>
</g>
<g>
</g>
<g>
</g>
<g>
</g>
<g>
</g>
<g>
</g>
<g>
</g>
<g>
</g>
<g>
</g>
</svg>
