<?xml version="1.0" encoding="iso-8859-1"?>
<!-- Generator: Adobe Illustrator 19.0.0, SVG Export Plug-In . SVG Version: 6.00 Build 0)  -->
<svg version="1.1" id="Capa_1"  xmlns="http://www.w3.org/2000/svg" xmlns:xlink="http://www.w3.org/1999/xlink" x="0px" y="0px"
	 viewBox="0 0 444 444" style="enable-background:new 0 0 444 444;" xml:space="preserve">
<g>
	<g>
		<path d="M434.1,82c0,0,0,0-0.1,0h-38V35c0-5.5-5-10-10.5-10h-88.1c-5.5,0-10.4,4.5-10.4,10v47H157V35c0-5.5-4.9-10-10.4-10H58.5
			C53,25,48,29.5,48,35v47H10c-5.5,0-9.9,4.3-10,9.8v0.1V409c0,5.5,4.4,10,9.9,10H434c5.5,0,10-4.5,10-10V91.9
			C444,86.4,439.6,82,434.1,82z M307,45h69v37h-69V45z M68,45h69v37H68V45z M424,399H20V102h404V399z"/>
	</g>
</g>
<g>
	<g>
		<path d="M375,231H70c-5.5,0-10,4.5-10,10v108c0,5.5,4.5,10,10,10h305c5.5,0,10-4.5,10-10V241C385,235.5,380.5,231,375,231z
			 M364,339H80v-88h284V339z"/>
	</g>
</g>
<g>
	<g>
		<path d="M126,158h-13v-14c0-5.5-4.5-10-10-10s-10,4.5-10,10v14H79c-5.5,0-10,4.5-10,10s4.5,10,10,10h14v14c0,5.5,4.5,10,10,10
			s10-4.5,10-10v-14h13c5.5,0,10-4.5,10-10S131.5,158,126,158z"/>
	</g>
</g>
<g>
	<g>
		<path d="M365,158h-47c-5.5,0-10,4.5-10,10s4.5,10,10,10h47c5.5,0,10-4.5,10-10S370.5,158,365,158z"/>
	</g>
</g>
<g>
</g>
<g>
</g>
<g>
</g>
<g>
</g>
<g>
</g>
<g>
</g>
<g>
</g>
<g>
</g>
<g>
</g>
<g>
</g>
<g>
</g>
<g>
</g>
<g>
</g>
<g>
</g>
<g>
</g>
</svg>
