<?xml version="1.0" encoding="iso-8859-1"?>
<!-- Generator: Adobe Illustrator 16.0.0, SVG Export Plug-In . SVG Version: 6.00 Build 0)  -->
<!DOCTYPE svg PUBLIC "-//W3C//DTD SVG 1.1//EN" "http://www.w3.org/Graphics/SVG/1.1/DTD/svg11.dtd">
<svg version="1.1" id="Capa_1" xmlns="http://www.w3.org/2000/svg" xmlns:xlink="http://www.w3.org/1999/xlink" x="0px" y="0px"
	 width="99.135px" height="99.135px" viewBox="0 0 99.135 99.135" style="enable-background:new 0 0 99.135 99.135;"
	 xml:space="preserve">
<g>
	<g>
		<path d="M13.941,54.717c-3.637,0.035-6.556,3.01-6.522,6.646c0.003,0.281,0.029,0.556,0.066,0.826
			c0.438,3.243,3.226,5.728,6.581,5.695c3.449-0.031,6.246-2.707,6.5-6.085c0.014-0.185,0.025-0.372,0.023-0.562
			C20.555,57.602,17.578,54.683,13.941,54.717z M13.394,57.223l0.018,1.894c-0.207,0.057-0.4,0.14-0.58,0.25l-1.354-1.329
			C12.025,57.614,12.677,57.329,13.394,57.223z M10.681,58.851l1.357,1.331c-0.104,0.183-0.184,0.376-0.234,0.581l-1.892,0.02
			C10.003,60.062,10.271,59.407,10.681,58.851z M9.915,61.92l1.907-0.019c0.056,0.204,0.137,0.396,0.244,0.57l-1.333,1.358
			C10.313,63.287,10.022,62.635,9.915,61.92z M11.554,64.625l1.327-1.354c0.177,0.102,0.372,0.177,0.574,0.227l0.018,1.898
			C12.758,65.305,12.106,65.032,11.554,64.625z M18.086,60.705l-1.894,0.019c-0.054-0.207-0.138-0.396-0.244-0.578l1.331-1.354
			C17.7,59.335,17.98,59.987,18.086,60.705z M14.534,57.211c0.72,0.094,1.376,0.365,1.931,0.778l-1.328,1.354
			c-0.182-0.105-0.377-0.186-0.585-0.238L14.534,57.211z M14.612,65.386l-0.018-1.897c0.203-0.057,0.394-0.134,0.57-0.239
			l1.352,1.329C15.971,64.996,15.325,65.283,14.612,65.386z M17.325,63.772l-1.363-1.338c0.103-0.177,0.188-0.367,0.24-0.572
			l1.892-0.019C18,62.558,17.736,63.221,17.325,63.772z"/>
		<path d="M77.666,54.717c-3.637,0.035-6.557,3.01-6.521,6.646c0.002,0.281,0.028,0.556,0.065,0.826
			c0.438,3.243,3.226,5.728,6.581,5.695c3.449-0.031,6.246-2.707,6.5-6.085c0.014-0.185,0.025-0.372,0.023-0.562
			C84.279,57.602,81.303,54.683,77.666,54.717z M77.12,57.223l0.018,1.894c-0.207,0.057-0.399,0.14-0.579,0.25l-1.354-1.329
			C75.751,57.614,76.402,57.329,77.12,57.223z M74.406,58.851l1.356,1.331c-0.104,0.183-0.184,0.376-0.233,0.581l-1.893,0.02
			C73.729,60.062,73.996,59.407,74.406,58.851z M73.641,61.92l1.906-0.019c0.057,0.204,0.137,0.396,0.244,0.57l-1.333,1.358
			C74.038,63.287,73.748,62.635,73.641,61.92z M75.279,64.625l1.326-1.354c0.178,0.102,0.373,0.177,0.574,0.227l0.018,1.898
			C76.484,65.305,75.832,65.032,75.279,64.625z M81.811,60.705l-1.894,0.019c-0.054-0.207-0.138-0.396-0.244-0.578l1.331-1.354
			C81.425,59.335,81.706,59.987,81.811,60.705z M78.26,57.211c0.721,0.094,1.376,0.365,1.932,0.778l-1.328,1.354
			c-0.183-0.105-0.377-0.186-0.586-0.238L78.26,57.211z M78.338,65.386l-0.018-1.897c0.203-0.057,0.394-0.134,0.57-0.239
			l1.352,1.329C79.697,64.996,79.05,65.283,78.338,65.386z M81.05,63.772l-1.362-1.338c0.103-0.177,0.188-0.367,0.239-0.572
			l1.892-0.019C81.725,62.558,81.462,63.221,81.05,63.772z"/>
		<path d="M98.341,57.18l-2.272-0.997c0,0,1.98-11.781-3.274-22.426c-0.224-0.453-0.626-0.793-1.11-0.936
			c-7.457-2.201-50.841-1.947-61.286-0.129c-0.903,0.158-1.756,0.543-2.469,1.119c-3.008,2.432-10.766,9.219-10.766,9.219
			S8.306,44.595,5.36,45.155c-2.568,0.488-3.776,1.837-3.765,3.64c0.011,1.598,0.042,6.393,0.042,6.393l-0.979,0.295
			C0.267,55.599,0,55.96,0,56.369v2.671c0,0,0.3,1.553,1.638,2.521c0.196,0.143,1.771,0.24,4.307,0.31
			c-0.013-0.162-0.036-0.321-0.038-0.488c-0.042-4.464,3.555-8.131,8.019-8.174c4.502,0,8.134,3.597,8.175,8.02
			c0.002,0.231-0.027,0.688-0.027,0.688l47.577-0.31c0,0-0.017-0.146-0.018-0.226c-0.042-4.464,3.555-8.131,8.02-8.174
			c4.502,0,8.134,3.597,8.174,8.02c0.003,0.209-0.023,0.622-0.023,0.622l6.321-1.044v1.187c0,0.271,0.221,0.492,0.493,0.492h1.113
			c0.271,0,0.492-0.221,0.492-0.492v-1.271h3.588c0.731,0,1.324-0.594,1.324-1.325v-0.999C99.134,57.868,98.822,57.391,98.341,57.18
			z M37.653,43.484c-0.019,0.309-0.275,0.55-0.585,0.55H26.142c0,0,0.012-2.91-0.047-3.639c-0.093-1.145-0.567-1.58-0.567-1.58
			l4.007-3.688c0.477-0.438,1.098-0.688,1.745-0.701l6.315-0.132c0.164-0.003,0.322,0.063,0.436,0.181
			c0.114,0.118,0.172,0.279,0.163,0.443L37.653,43.484z"/>
	</g>
</g>
<g>
</g>
<g>
</g>
<g>
</g>
<g>
</g>
<g>
</g>
<g>
</g>
<g>
</g>
<g>
</g>
<g>
</g>
<g>
</g>
<g>
</g>
<g>
</g>
<g>
</g>
<g>
</g>
<g>
</g>
</svg>
